<svg width="168" height="39" viewBox="0 0 168 39" fill="none" xmlns="http://www.w3.org/2000/svg">
<path d="M32.1959 13.4921C45.8934 10.6465 57.4693 13.9701 71.0463 14.2018C75.2198 14.2729 79.4955 13.8107 83.6513 13.4096C87.8347 12.9907 92.0231 12.6169 96.2148 12.2884C120.73 10.3249 147.613 10.554 167.408 27.2883L167.438 27.8968C143.311 15.4098 121.092 15.1595 94.5542 16.8299C87.2633 17.1529 79.8613 18.1817 72.5743 18.0753C61.1719 17.9088 50.118 14.2535 38.7511 13.6963C36.5653 13.5892 34.3879 13.6306 32.1959 13.4921Z" fill="white"/>
<path d="M1.06589 8.12497C10.2948 11.5659 28.7106 6.30982 38.7049 4.25035C44.8741 2.93712 51.0937 1.87067 57.3488 1.05359C70.9286 -0.628761 85.2528 -0.539086 98.5055 3.11648C102.523 4.22455 110.879 7.0857 114.433 9.29332C111.609 8.4312 108.821 7.50355 105.941 6.84456C84.5488 1.94854 62.5408 5.04684 41.2276 8.7087C33.6662 10.0078 25.9969 11.4211 18.3583 12.0962C12.5655 12.6083 4.40019 12.8033 0 8.39972C0.342908 8.11453 0.609553 8.15309 1.06589 8.12497Z" fill="white"/>
<path d="M30.4473 17.0641C38.5971 16.1533 49.9755 19.2792 58.002 21.0253C61.4261 21.7701 64.4302 22.2966 67.8991 22.8402C65.1094 23.0322 60.0838 22.4205 57.1139 22.202C50.1942 21.6931 43.3656 20.9828 36.4048 20.9963C24.9301 20.9416 14.9384 23.6876 4.86981 29.0772C5.9465 27.9442 7.92669 26.4481 9.19664 25.511C15.7439 20.6792 22.2896 17.7488 30.4473 17.0641Z" fill="white"/>
<path d="M27.0242 34.6056H17.4897L19.4742 32.025H27.1138C27.7404 32.025 28.0239 31.8322 28.0239 31.3873C28.0239 30.9275 27.7255 30.7347 27.0839 30.7347H21.6825C19.2504 30.7347 17.8478 29.6372 17.8478 27.7537C17.8478 25.707 19.2354 24.6836 22.0555 24.6836H30.7843L28.7998 27.2642H21.8168C21.1752 27.2642 20.8768 27.4719 20.8768 27.902C20.8768 28.3469 21.1752 28.5545 21.8168 28.5545H27.263C29.7399 28.5545 31.0529 29.5482 31.0529 31.4317C31.0529 33.6119 29.7996 34.6056 27.0242 34.6056ZM47.3814 34.6056H35.7876L37.6379 32.025H41.9352L39.115 27.9761L34.3851 34.6056H30.7742L37.1753 25.6328C37.608 25.0396 38.2049 24.5205 39.1598 24.5205C40.0849 24.5205 40.6967 25.0099 41.1294 25.6328L47.3814 34.6056Z" fill="white"/>
<path d="M59.4355 34.6056H50.6769V28.5397H59.54C60.0921 28.5397 60.3756 28.3172 60.3756 27.8871C60.3756 27.4867 60.0921 27.2642 59.5549 27.2642H50.6769L52.7957 24.6836H59.3759C61.8677 24.6836 63.3001 25.6922 63.3001 27.4125C63.3001 28.3321 62.9271 29.0885 62.3004 29.5482C63.0614 30.008 63.509 30.8088 63.509 31.758C63.509 33.6712 62.1661 34.6056 59.4355 34.6056ZM59.54 30.7199H53.7655V32.025H59.5549C60.1368 32.025 60.4203 31.8025 60.4203 31.3873C60.4203 30.9423 60.1219 30.7199 59.54 30.7199ZM68.1776 34.6056H65.089V24.6836H68.1776V34.6056ZM78.9191 34.6056H70.0859V24.6836H73.1745V32.025H80.9036L78.9191 34.6056ZM89.6462 34.6056H80.1117L82.0962 32.025H89.7358C90.3625 32.025 90.646 31.8322 90.646 31.3873C90.646 30.9275 90.3475 30.7347 89.7059 30.7347H84.3045C81.8724 30.7347 80.4698 29.6372 80.4698 27.7537C80.4698 25.707 81.8575 24.6836 84.6775 24.6836H93.4064L91.4218 27.2642H84.4388C83.7972 27.2642 83.4988 27.4719 83.4988 27.902C83.4988 28.3469 83.7972 28.5545 84.4388 28.5545H89.885C92.3619 28.5545 93.6749 29.5482 93.6749 31.4317C93.6749 33.6119 92.4216 34.6056 89.6462 34.6056ZM98.1645 27.2642V28.5397H106.058L104.267 30.7347H98.1645V32.025H106.655L104.685 34.6056H95.0759V24.6836H106.64L104.64 27.2642H98.1645ZM107.664 34.6056V26.3892C107.664 25.2324 108.306 24.5205 109.35 24.5205C109.813 24.5205 110.171 24.6688 110.574 25.0396L116.557 30.4677V24.6836H119.512V32.9148C119.512 34.0568 118.87 34.7836 117.825 34.7836C117.363 34.7836 117.005 34.6204 116.587 34.2348L110.634 28.8363V34.6056H107.664ZM128.48 34.6056H125.406V27.2642H120.468L122.497 24.6836H133.658L131.629 27.2642H128.48V34.6056ZM137.754 27.2642V28.5397H145.648L143.857 30.7347H137.754V32.025H146.245L144.275 34.6056H134.666V24.6836H146.23L144.23 27.2642H137.754ZM160.833 28.3024C160.833 29.8448 159.953 30.972 158.431 31.5504L161.445 34.6056H157.371L154.865 31.9657H150.343V34.6056H147.27V29.4889H156.118C157.252 29.4889 157.744 29.1626 157.744 28.4211C157.744 27.6202 157.222 27.2642 156.103 27.2642H147.27L149.329 24.6836H155.805C158.938 24.6836 160.833 26.0333 160.833 28.3024Z" fill="white"/>
</svg>
