<svg width="180" height="40" viewBox="0 0 180 40" fill="none" xmlns="http://www.w3.org/2000/svg">
<mask id="path-1-inside-1_413_273" fill="white">
<path d="M0 20C0 8.95431 8.95431 0 20 0C31.0457 0 40 8.95431 40 20C40 31.0457 31.0457 40 20 40C8.95431 40 0 31.0457 0 20Z"/>
</mask>
<path d="M20 39C9.50659 39 1 30.4934 1 20H-1C-1 31.598 8.40202 41 20 41V39ZM39 20C39 30.4934 30.4934 39 20 39V41C31.598 41 41 31.598 41 20H39ZM20 1C30.4934 1 39 9.50659 39 20H41C41 8.40202 31.598 -1 20 -1V1ZM20 -1C8.40202 -1 -1 8.40202 -1 20H1C1 9.50659 9.50659 1 20 1V-1Z" fill="#FAFAFA" mask="url(#path-1-inside-1_413_273)"/>
<path d="M16.6316 31.7105H21.4736V19.5H24.8421L25.1578 15.3947H21.3684C21.3684 15.3947 21.3684 13.8158 21.3684 13.0789C21.3684 12.1316 21.5789 11.7105 22.5263 11.7105C23.2631 11.7105 25.1578 11.7105 25.1578 11.7105V7.5C25.1578 7.5 22.421 7.5 21.7894 7.5C18.2105 7.5 16.5263 9.07894 16.5263 12.1316C16.5263 14.7632 16.5263 15.3947 16.5263 15.3947H14V19.5H16.6316V31.7105Z" fill="#FAFAFA"/>
<mask id="path-4-inside-2_413_273" fill="white">
<path d="M70 20C70 8.95431 78.9543 0 90 0C101.046 0 110 8.95431 110 20C110 31.0457 101.046 40 90 40C78.9543 40 70 31.0457 70 20Z"/>
</mask>
<path d="M90 39C79.5066 39 71 30.4934 71 20H69C69 31.598 78.402 41 90 41V39ZM109 20C109 30.4934 100.493 39 90 39V41C101.598 41 111 31.598 111 20H109ZM90 1C100.493 1 109 9.50659 109 20H111C111 8.40202 101.598 -1 90 -1V1ZM90 -1C78.402 -1 69 8.40202 69 20H71C71 9.50659 79.5066 1 90 1V-1Z" fill="#FAFAFA" mask="url(#path-4-inside-2_413_273)"/>
<path d="M89.9474 11C92.8947 11 93.2105 11 94.3684 11.1053C95.4211 11.1053 96.0526 11.3158 96.3684 11.5263C96.8947 11.7368 97.2105 11.9474 97.6316 12.3684C98.0526 12.7895 98.2632 13.1053 98.4737 13.6316C98.5789 14.0526 98.7895 14.5789 98.8947 15.6316C99 16.7895 99 17.1053 99 20.0526C99 23 99 23.3158 98.8947 24.4737C98.8947 25.5263 98.6842 26.1579 98.4737 26.4737C98.2632 27 98.0526 27.3158 97.6316 27.7368C97.2105 28.1579 96.8947 28.3684 96.3684 28.5789C95.9474 28.6842 95.4211 28.8947 94.3684 29C93.2105 29 92.8947 29.1053 89.9474 29.1053C87 29.1053 86.6842 29.1053 85.5263 29C84.4737 29 83.8421 28.7895 83.5263 28.5789C83 28.3684 82.6842 28.1579 82.2632 27.7368C81.8421 27.3158 81.6316 27 81.4211 26.4737C81.3158 26.0526 81.1053 25.5263 81 24.4737C80.8947 23.3158 80.8947 23 80.8947 20.0526C80.8947 17.1053 80.8947 16.7895 81 15.6316C81 14.5789 81.2105 13.9474 81.4211 13.6316C81.6316 13.1053 81.8421 12.7895 82.2632 12.3684C82.6842 11.9474 83 11.7368 83.5263 11.5263C83.9474 11.4211 84.4737 11.2105 85.5263 11.1053C86.6842 11 87 11 89.9474 11ZM89.9474 9C87 9 86.5789 9 85.4211 9.10526C84.2632 9.21053 83.4211 9.31579 82.7895 9.63158C82.0526 9.94737 81.4211 10.2632 80.8947 10.8947C80.2632 11.5263 79.9474 12.1579 79.6316 12.7895C79.3158 13.5263 79.2105 14.2632 79.1053 15.4211C79 16.5789 79 17 79 19.9474C79 22.8947 79 23.3158 79.1053 24.4737C79.2105 25.6316 79.3158 26.4737 79.6316 27.1053C79.9474 27.8421 80.2632 28.4737 80.8947 29C81.5263 29.6316 82.1579 29.9474 82.7895 30.2632C83.5263 30.5789 84.2632 30.6842 85.4211 30.7895C86.5789 30.8947 87 30.8947 89.9474 30.8947C92.8947 30.8947 93.3158 30.8947 94.4737 30.7895C95.6316 30.6842 96.4737 30.5789 97.1053 30.2632C97.8421 29.9474 98.4737 29.6316 99 29C99.6316 28.3684 99.9474 27.7368 100.263 27.1053C100.579 26.3684 100.684 25.6316 100.789 24.4737C100.895 23.3158 100.895 22.8947 100.895 19.9474C100.895 17 100.895 16.5789 100.789 15.4211C100.684 14.2632 100.579 13.4211 100.263 12.7895C99.9474 12.0526 99.6316 11.4211 99 10.8947C98.3684 10.2632 97.7368 9.94737 97.1053 9.63158C96.3684 9.31579 95.6316 9.21053 94.4737 9.10526C93.3158 9.10526 93 9 89.9474 9Z" fill="#FAFAFA"/>
<path d="M89.9464 14.3728C86.7885 14.3728 84.2622 16.8991 84.2622 20.057C84.2622 23.2149 86.7885 25.7412 89.9464 25.7412C93.1043 25.7412 95.6306 23.2149 95.6306 20.057C95.6306 16.8991 93.1043 14.3728 89.9464 14.3728ZM89.9464 23.7412C87.9464 23.7412 86.2622 22.057 86.2622 20.057C86.2622 18.057 87.9464 16.3728 89.9464 16.3728C91.9464 16.3728 93.6306 18.057 93.6306 20.057C93.6306 22.057 91.9464 23.7412 89.9464 23.7412Z" fill="#FAFAFA"/>
<path d="M97.0912 14.1575C97.0912 14.8943 96.4596 15.5259 95.7228 15.5259C94.986 15.5259 94.3544 14.8943 94.3544 14.1575C94.3544 13.4206 94.986 12.7891 95.7228 12.7891C96.5649 12.8943 97.0912 13.4206 97.0912 14.1575Z" fill="#FAFAFA"/>
<mask id="path-9-inside-3_413_273" fill="white">
<path d="M140 20C140 8.95431 148.954 0 160 0C171.046 0 180 8.95431 180 20C180 31.0457 171.046 40 160 40C148.954 40 140 31.0457 140 20Z"/>
</mask>
<path d="M160 39C149.507 39 141 30.4934 141 20H139C139 31.598 148.402 41 160 41V39ZM179 20C179 30.4934 170.493 39 160 39V41C171.598 41 181 31.598 181 20H179ZM160 1C170.493 1 179 9.50659 179 20H181C181 8.40202 171.598 -1 160 -1V1ZM160 -1C148.402 -1 139 8.40202 139 20H141C141 9.50659 149.507 1 160 1V-1Z" fill="#FAFAFA" mask="url(#path-9-inside-3_413_273)"/>
<path d="M154.525 16.6316H150.42V30H154.525V16.6316Z" fill="#FAFAFA"/>
<path d="M152.421 14.8421C153.789 14.8421 154.842 13.6842 154.842 12.4211C154.842 11.1579 153.789 10 152.421 10C151.053 10 150 11.1579 150 12.4211C150 13.6842 151.053 14.8421 152.421 14.8421Z" fill="#FAFAFA"/>
<path d="M161.156 22.9481C161.156 21.0533 161.998 19.8954 163.683 19.8954C165.156 19.8954 165.893 20.9481 165.893 22.9481C165.893 24.8428 165.893 30.0007 165.893 30.0007H169.998C169.998 30.0007 169.998 25.1586 169.998 21.4744C169.998 17.8954 167.998 16.106 165.156 16.106C162.314 16.106 161.156 18.3165 161.156 18.3165V16.527H157.156V29.8954H161.156C161.156 30.0007 161.156 25.0533 161.156 22.9481Z" fill="#FAFAFA"/>
</svg>
