<svg width="92" height="178" viewBox="0 0 92 178" fill="none" xmlns="http://www.w3.org/2000/svg">
<path d="M13.119 35.2206L8.64409 38.7453L8.03389 49.3193L6.61007 45.9083C6.61007 45.9083 6.20326 38.5179 7.62708 37.0398C9.0509 35.5617 11.0849 33.9699 13.119 35.2206Z" fill="#A91D31"/>
<path d="M84.0049 118.335L9.05102 168.249L7.6272 167.567V38.2906L57.5626 6L84.0049 19.5302V118.335Z" fill="#A0A6A7"/>
<path d="M85.327 119.017L9.05096 168.249V38.9732L58.9863 6.79636L85.327 20.3266V119.017Z" fill="#F7F7F7"/>
<path d="M11.1866 38.1771C11.2883 38.7456 11.5934 40.5648 11.6951 41.4744C12.1019 44.2031 11.8985 47.1593 11.2883 49.8881C8.44065 62.5087 13.7291 91.502 13.7291 91.502L19.8312 82.5198L26.035 83.4294C26.035 83.4294 20.7465 67.6252 22.1703 47.8415C22.3737 44.8853 23.0857 41.9291 23.6959 38.973C24.7129 34.9935 23.8993 31.9236 22.9839 29.9907L10.9832 37.7223C11.051 37.8739 11.1188 38.0255 11.1866 38.1771Z" fill="#AFAFAF"/>
<path d="M85.3277 20.3266L58.9871 6.79636C58.9871 6.79636 60.4109 16.3471 60.3092 24.8745C60.0041 39.6554 69.0555 34.1979 69.0555 34.1979L85.3277 20.3266Z" fill="#D7DBD4"/>
<path d="M78.3096 34.7646L39.5614 59.7785V56.0264L78.3096 31.0125V34.7646Z" fill="#E3E3E3"/>
<path d="M78.3096 102.19L48.511 121.405V118.449L78.3096 99.2339V102.19Z" fill="#E6E6E6"/>
<path d="M78.3096 109.013L48.511 128.341V125.385L78.3096 106.17V109.013Z" fill="#E6E6E6"/>
<path d="M78.3096 115.948L48.511 135.277V132.32L78.3096 112.991V115.948Z" fill="#E6E6E6"/>
<path d="M78.31 57.2783L15.967 97.5279V93.6621L78.31 53.5263V57.2783Z" fill="#E3E3E3"/>
<path d="M78.31 67.5118L15.967 107.648V103.896L78.31 63.646V67.5118Z" fill="#E3E3E3"/>
<path d="M55.4272 92.4106L15.967 117.879V114.013L55.4272 88.6586V92.4106Z" fill="#E3E3E3"/>
<path d="M9.05096 137.776C9.05096 137.776 11.1867 134.933 12.6105 133.455C14.136 132.091 14.136 132.091 14.136 132.091V120.266C14.136 120.266 15.4581 109.465 21.0517 104.689C26.1368 100.255 32.0355 100.028 34.4763 105.258C36.9171 110.488 37.0188 117.651 37.0188 117.651L40.2733 116.855V125.724L15.9667 163.585L9.05096 168.247V137.776Z" fill="#C7C4C3"/>
<path d="M32.6459 117.653C32.6459 117.653 33.2561 103.327 24.4081 109.012C18.7128 112.651 19.2213 127.545 19.2213 127.545L32.6459 117.653Z" fill="#F7F7F7"/>
<path d="M58.9871 6.79636C58.9871 6.79636 62.5466 11.6854 62.3432 23.169C62.1398 34.9937 69.2589 30.6732 69.2589 30.6732L85.3277 20.3266L58.9871 6.79636Z" fill="#FCFCFC"/>
<path d="M24.5096 46.3629C24.713 43.293 25.3233 40.4505 26.0352 37.4943C27.459 31.582 25.0182 27.3751 23.8994 26.6929C22.5773 25.897 13.7293 31.6957 9.96635 34.1971C6.1017 36.5847 6 40.5642 6 43.9752C6 47.2725 7.62722 49.5464 7.62722 49.5464C7.62722 49.5464 7.62722 50.1149 7.62722 48.1821C6.3051 45.3396 6.3051 39.7683 7.52552 37.8354C9.35615 34.8792 13.1191 35.334 13.5259 36.6984C13.6276 37.2669 13.9327 39.0861 14.0344 39.882C14.4412 42.7245 14.1361 45.567 13.5259 48.4095C10.78 61.0301 15.9667 89.9097 15.9667 89.9097L22.1705 80.9274L28.3743 81.9507C28.3743 81.9507 23.0858 66.1465 24.5096 46.3629Z" fill="#BC1418"/>
<path d="M50.3437 121.971V154.034L42.5127 161.993C40.1397 163.737 37.5971 165.366 34.8851 166.882L22.5792 171.999L15.9686 167.678L20.5452 138.344C22.8843 136.638 19.935 141.414 22.5792 139.822L34.8851 131.977L42.5127 127.088L50.3437 121.971Z" fill="#BC1418"/>
<path d="M50.344 121.971V128.907C49.7338 133.227 47.6998 147.212 44.0386 158.128C43.6318 159.34 43.2588 160.477 42.9198 161.539L42.513 161.993C40.14 163.737 37.5975 165.366 34.8854 166.882L26.0374 170.521C26.5798 168.929 27.1222 167.299 27.6646 165.632C32.1395 152.67 34.1735 135.047 34.1735 135.047C34.1735 135.047 35.1905 133.341 37.0212 130.612L42.513 127.088L50.344 121.971Z" fill="#BC1418"/>
<path d="M22.5786 159.265L23.2905 140.732C23.2905 140.732 32.5453 136.638 34.681 135.615C36.8167 134.592 40.478 132.204 42.7154 130.385C44.8512 128.566 50.343 121.971 50.343 121.971L22.5786 139.822V159.265Z" fill="#BC1418"/>
<path d="M50.3438 121.972L42.5128 129.931C40.1397 131.674 37.5972 133.304 34.8852 134.82L22.5793 139.823L18.3078 137.094L15.9687 135.502L17.7993 133.683L23.9014 127.657C25.393 126.52 26.9863 125.421 28.6814 124.36C29.5628 123.829 30.4781 123.298 31.4273 122.768L35.5971 120.949L43.7332 117.651L50.3438 121.972Z" fill="#BC1418"/>
<path d="M15.9686 167.679V135.502L22.5792 139.822V171.999L15.9686 167.679Z" fill="#BC1418"/>
<path d="M24.0031 133.683L23.5963 137.094H18.3078L15.9687 135.502L17.7993 133.683H24.0031Z" fill="#BC1418"/>
<path d="M43.835 120.95L43.4282 124.361H28.6815C29.5629 123.831 30.4782 123.3 31.4275 122.769L35.5972 120.95H43.835Z" fill="#BC1418"/>
<path d="M45.5638 122.768V114.127C45.5638 110.375 43.8349 106.964 40.8855 105.031C38.0379 103.098 34.4783 103.098 31.529 105.031L30.6137 105.6C24.5116 109.579 20.7487 116.97 20.7487 124.815V135.275C20.7487 135.73 20.9521 136.185 21.5623 136.526C22.5793 137.208 24.3082 137.208 25.3252 136.526C25.8337 136.185 26.1388 135.73 26.1388 135.275V124.815C26.1388 119.016 28.8848 113.672 33.2579 110.83L34.2749 110.261C35.4954 109.466 37.0209 109.466 38.2413 110.261C39.4617 111.057 40.2753 112.535 40.2753 114.127V122.768C40.2753 123.223 40.4787 123.678 41.0889 124.019C42.1059 124.701 43.8349 124.701 44.8519 124.019C45.3604 123.678 45.6655 123.223 45.5638 122.768Z" fill="#BC1418"/>
<path d="M22.2735 135.276V124.816C22.2735 116.97 26.1382 109.58 32.2402 105.6L33.1556 105.032C34.376 104.236 35.6981 103.781 37.0202 103.668C35.1896 103.44 33.2573 103.895 31.5283 105.032L30.613 105.6C24.5109 109.58 20.748 116.97 20.748 124.816V135.276C20.748 135.731 20.9514 136.185 21.5616 136.527C21.765 136.678 22.0023 136.792 22.2735 136.868V135.276Z" fill="#BC1418"/>
<path d="M41.7998 116.63C41.7998 110.832 37.8335 110.036 38.2403 110.263C39.4607 111.059 40.2743 112.537 40.2743 114.129V122.77C40.2743 123.225 40.4777 123.68 41.0879 124.021C41.2913 124.173 41.5286 124.286 41.7998 124.362V116.63Z" fill="#BC1418"/>
<path d="M45.0548 116.855C45.0548 116.855 44.4446 108.782 40.3766 106.736C37.1221 105.03 33.9694 105.826 32.3422 106.736C33.1558 105.94 35.6983 103.78 39.6647 105.03C44.1395 106.849 45.0548 111.17 45.0548 116.855Z" fill="#BC1418"/>
</svg>
