<svg width="556" height="129" viewBox="0 0 556 129" fill="none" xmlns="http://www.w3.org/2000/svg">
<path d="M106.553 44.6277C151.885 35.2153 190.196 46.2088 235.129 46.9752C248.942 47.2105 263.092 45.6816 276.846 44.3547C290.691 42.9693 304.553 41.7329 318.425 40.6464C399.557 34.1515 488.53 34.9095 554.039 90.2614L554.14 92.2742C474.292 50.9709 400.755 50.143 312.929 55.6681C288.8 56.7365 264.303 60.1395 240.187 59.7874C202.45 59.2369 165.867 47.1463 128.248 45.3031C121.014 44.9488 113.808 45.086 106.553 44.6277Z" fill="#EAA038"/>
<path d="M3.52758 26.8749C34.0709 38.2563 95.0184 20.8709 128.095 14.0589C148.512 9.7151 169.096 6.18761 189.797 3.48497C234.74 -2.07975 282.146 -1.78313 326.006 10.3084C339.303 13.9735 366.956 23.4373 378.72 30.7394C369.374 27.8878 360.147 24.8194 350.615 22.6397C279.816 6.44517 206.98 16.6934 136.444 28.8057C111.419 33.1027 86.0373 37.7776 60.7571 40.0105C41.5857 41.7044 14.5625 42.3494 0 27.7837C1.13486 26.8404 2.01733 26.9679 3.52758 26.8749Z" fill="#EAA038"/>
<path d="M100.766 56.4422C127.738 53.4298 165.395 63.7693 191.959 69.5448C203.291 72.0085 213.233 73.75 224.714 75.5479C215.481 76.1829 198.849 74.1598 189.02 73.437C166.119 71.7536 143.519 69.4044 120.482 69.4489C82.5066 69.2681 49.4388 78.3508 16.1167 96.1779C19.68 92.4305 26.2335 87.4816 30.4364 84.382C52.1049 68.4002 73.7678 58.707 100.766 56.4422Z" fill="white"/>
<path d="M89.4374 114.465H57.8825L64.4503 105.929H89.7337C91.8077 105.929 92.7459 105.291 92.7459 103.82C92.7459 102.299 91.7583 101.661 89.6349 101.661H71.7588C63.7096 101.661 59.0677 98.0309 59.0677 91.8007C59.0677 85.031 63.6602 81.6461 72.9933 81.6461H101.882L95.3138 90.1819H72.2032C70.0798 90.1819 69.0922 90.8687 69.0922 92.2913C69.0922 93.763 70.0798 94.4498 72.2032 94.4498H90.2275C98.4248 94.4498 102.77 97.7365 102.77 103.967C102.77 111.178 98.6223 114.465 89.4374 114.465ZM156.81 114.465H118.44L124.563 105.929H138.785L129.452 92.5366L113.798 114.465H101.848L123.033 84.7857C124.465 82.8234 126.44 81.1064 129.6 81.1064C132.662 81.1064 134.687 82.7253 136.119 84.7857L156.81 114.465Z" fill="#EAA038"/>
<path d="M196.703 114.465H167.716V94.4007H197.049C198.876 94.4007 199.814 93.6649 199.814 92.2422C199.814 90.9177 198.876 90.1819 197.098 90.1819H167.716L174.729 81.6461H196.506C204.753 81.6461 209.493 84.9819 209.493 90.6724C209.493 93.7139 208.259 96.2158 206.185 97.7365C208.703 99.2573 210.184 101.906 210.184 105.046C210.184 111.374 205.74 114.465 196.703 114.465ZM197.049 101.612H177.938V105.929H197.098C199.024 105.929 199.962 105.193 199.962 103.82C199.962 102.348 198.975 101.612 197.049 101.612ZM225.635 114.465H215.413V81.6461H225.635V114.465ZM261.185 114.465H231.951V81.6461H242.173V105.929H267.752L261.185 114.465ZM296.686 114.465H265.132L271.699 105.929H296.983C299.057 105.929 299.995 105.291 299.995 103.82C299.995 102.299 299.007 101.661 296.884 101.661H279.008C270.959 101.661 266.317 98.0309 266.317 91.8007C266.317 85.031 270.909 81.6461 280.242 81.6461H309.131L302.563 90.1819H279.452C277.329 90.1819 276.341 90.8687 276.341 92.2913C276.341 93.763 277.329 94.4498 279.452 94.4498H297.476C305.674 94.4498 310.019 97.7365 310.019 103.967C310.019 111.178 305.871 114.465 296.686 114.465ZM324.878 90.1819V94.4007H351.001L345.075 101.661H324.878V105.929H352.976L346.458 114.465H314.656V81.6461H352.926L346.309 90.1819H324.878ZM356.317 114.465V87.2875C356.317 83.4612 358.441 81.1064 361.897 81.1064C363.428 81.1064 364.613 81.597 365.947 82.8234L385.749 100.778V81.6461H395.526V108.872C395.526 112.65 393.403 115.053 389.946 115.053C388.415 115.053 387.23 114.514 385.848 113.238L366.144 95.3818V114.465H356.317ZM425.208 114.465H415.036V90.1819H398.69L405.406 81.6461H442.344L435.628 90.1819H425.208V114.465ZM455.902 90.1819V94.4007H482.025L476.099 101.661H455.902V105.929H484L477.481 114.465H445.68V81.6461H483.95L477.333 90.1819H455.902ZM532.28 93.6158C532.28 98.7177 529.367 102.446 524.33 104.359L534.305 114.465H520.824L512.528 105.733H497.565V114.465H487.393V97.5403H516.676C520.429 97.5403 522.058 96.4611 522.058 94.0083C522.058 91.3592 520.33 90.1819 516.626 90.1819H487.393L494.207 81.6461H515.639C526.009 81.6461 532.28 86.1102 532.28 93.6158Z" fill="white"/>
</svg>
