<svg width="299" height="155" viewBox="0 0 299 155" fill="none" xmlns="http://www.w3.org/2000/svg">
<g style="mix-blend-mode:multiply">
<path opacity="0.1" d="M296.28 45.7229V99.329C296.28 118.249 281.308 133.227 263.184 133.227L39.3985 133.227C21.275 133.227 6.30337 118.249 6.30337 99.329L6.30337 53.6062C6.30337 26.0148 29.1548 3.1533 57.522 3.1533L253.729 3.1533C276.58 3.1533 296.28 22.0731 296.28 45.7229Z" fill="#F3F2F3"/>
<path opacity="0.1" d="M294.704 46.5114V99.3292C294.704 117.461 280.52 132.439 261.608 132.439L40.9744 132.439C22.8509 132.439 7.8793 117.461 7.8793 99.3292L7.8793 54.3947C7.8793 26.8033 29.9427 4.73018 57.522 4.73018L252.941 4.73018C275.792 4.73018 294.704 23.65 294.704 46.5114Z" fill="#ECECED"/>
<path opacity="0.2" d="M293.915 47.2997V99.3292C293.915 117.461 278.944 132.439 260.82 132.439L42.5501 132.439C24.4266 132.439 9.45505 117.461 9.45505 99.3292L9.45505 54.3947C9.45505 27.5916 31.5185 5.5185 57.5217 5.5185L252.152 5.5185C275.004 5.5185 293.915 24.4383 293.915 47.2997Z" fill="#E6E5E7"/>
<path opacity="0.2" d="M293.128 48.0883V98.5412C293.128 116.673 278.156 131.651 260.033 131.651L43.3384 131.651C25.2149 131.651 10.2433 116.673 10.2433 98.5412L10.2433 54.3949C10.2433 28.3802 32.3067 7.09541 58.31 7.09541L252.153 7.09541C274.216 7.09541 293.128 25.2269 293.128 48.0883Z" fill="#E0DFE1"/>
<path opacity="0.3" d="M291.551 48.8762V98.5407C291.551 116.672 277.368 131.65 259.244 131.65L44.9141 131.65C26.7906 131.65 11.819 116.672 11.819 98.5407L11.819 55.1828C11.819 29.168 33.0945 8.67158 58.3098 8.67158L251.365 8.67158C273.428 8.67158 291.551 26.8031 291.551 48.8762Z" fill="#DAD8DA"/>
<path opacity="0.3" d="M290.763 49.6647V98.5409C290.763 115.884 275.792 130.862 258.456 130.862L45.7021 130.862C28.3666 130.862 13.395 115.884 13.395 98.5409L13.395 55.183C13.395 30.7449 33.8824 10.2485 59.0977 10.2485L251.365 10.2485C272.64 10.2485 290.763 27.5916 290.763 49.6647Z" fill="#D3D2D4"/>
<path opacity="0.4" d="M289.187 50.4528V97.7524C289.187 115.884 275.004 130.074 256.88 130.074L47.278 130.074C29.1545 130.074 14.9709 115.884 14.9709 97.7524L14.9709 55.9711C14.9709 31.533 34.6703 11.0365 59.0977 11.0365L250.576 11.0365C271.852 11.0365 289.187 29.168 289.187 50.4528Z" fill="#CDCBCE"/>
<path opacity="0.4" d="M288.4 51.2411V97.7524C288.4 115.884 273.428 130.074 256.093 130.074L48.0662 130.074C30.7307 130.074 16.547 115.884 16.547 97.7524L16.547 55.9711C16.547 32.3213 35.4585 12.6132 59.0979 12.6132L249.789 12.6132C271.064 12.6132 288.4 29.9563 288.4 51.2411Z" fill="#C7C5C8"/>
<path opacity="0.5" d="M286.824 51.2414V97.7526C286.824 115.096 272.64 129.286 255.304 129.286L49.642 129.286C32.3065 129.286 17.3349 115.096 17.3349 97.7526L17.3349 55.9713C17.3349 33.1099 36.2464 14.1901 59.8857 14.1901L249.789 14.1901C270.276 14.1901 286.824 30.7449 286.824 51.2414Z" fill="#C1BEC2"/>
<path opacity="0.5" d="M286.036 52.0297V97.7526C286.036 115.096 271.852 129.286 254.517 129.286L50.4302 129.286C33.0947 129.286 18.9111 115.096 18.9111 97.7526L18.9111 56.7596C18.9111 33.8982 37.0346 15.7667 59.886 15.7667L249.001 15.7667C269.488 15.7667 286.036 32.3216 286.036 52.0297Z" fill="#BAB8BC"/>
<path opacity="0.6" d="M284.46 52.8178V96.964C284.46 114.307 270.276 128.497 252.941 128.497L52.0061 128.497C34.6706 128.497 20.487 114.307 20.487 96.964L20.487 56.7594C20.487 34.6863 38.6105 16.5548 59.8859 16.5548L249.001 16.5548C268.7 16.5548 284.46 33.1096 284.46 52.8178Z" fill="#B4B1B6"/>
<path opacity="0.6" d="M283.672 53.6061V96.964C283.672 114.307 269.488 128.497 252.152 128.497L52.7939 128.497C35.4584 128.497 22.0627 114.307 22.0627 96.964L22.0627 56.7594C22.0627 35.4746 39.3983 18.1315 60.6737 18.1315L248.213 18.1315C267.912 18.1315 283.672 33.898 283.672 53.6061Z" fill="#AEABB0"/>
<path opacity="0.7" d="M282.884 54.3947V96.9643C282.884 113.519 268.7 127.709 251.365 127.709L54.3701 127.709C37.0346 127.709 22.851 113.519 22.851 96.9643L22.851 57.548C22.851 36.2632 40.1865 19.7083 60.6739 19.7083L247.425 19.7083C267.124 19.7083 282.884 35.4749 282.884 54.3947Z" fill="#A8A4AA"/>
<path opacity="0.7" d="M281.308 55.183V96.1759C281.308 113.519 267.124 127.709 250.577 127.709L55.9459 127.709C38.6103 127.709 24.4267 113.519 24.4267 96.1759L24.4267 57.548C24.4267 37.8399 40.9743 21.285 61.4617 21.285L247.425 21.285C266.336 21.285 281.308 36.2632 281.308 55.183Z" fill="#A19EA4"/>
<path opacity="0.8" d="M280.52 55.9716V96.1761C280.52 113.519 266.336 126.921 249.001 126.921L56.7338 126.921C39.3983 126.921 26.0026 113.519 26.0026 96.1761L26.0026 57.5482C26.0026 38.6284 41.7622 22.0736 61.4617 22.0736L246.637 22.0736C265.548 22.0736 280.52 37.0517 280.52 55.9716Z" fill="#9B979D"/>
<path opacity="0.8" d="M278.944 56.7594V96.1757C278.944 112.73 265.548 126.92 248.213 126.92L58.31 126.92C40.9745 126.92 27.5788 112.73 27.5788 96.1757L27.5788 58.336C27.5788 39.4162 42.5504 23.6497 61.4619 23.6497L246.637 23.6497C264.76 23.6497 278.944 38.6279 278.944 56.7594Z" fill="#959197"/>
<path opacity="0.9" d="M278.156 57.548V95.3876C278.156 112.731 263.972 126.132 247.425 126.132L59.0978 126.132C42.5503 126.132 28.3666 112.731 28.3666 95.3876L28.3666 58.3363C28.3666 40.2048 43.3382 25.2266 62.2497 25.2266L245.849 25.2266C263.184 25.2266 278.156 39.4165 278.156 57.548Z" fill="#8F8A91"/>
<path opacity="0.9" d="M276.58 58.3363V95.3876C276.58 111.942 263.184 126.132 246.637 126.132L60.674 126.132C43.3385 126.132 29.9428 111.942 29.9428 95.3876L29.9428 59.1246C29.9428 40.9931 44.1264 26.8033 62.2499 26.8033L245.061 26.8033C262.396 26.8033 276.58 40.9931 276.58 58.3363Z" fill="#88848B"/>
<path d="M275.792 58.3365V95.3878C275.792 111.943 262.397 125.344 245.061 125.344L61.4619 125.344C44.9144 125.344 31.5187 111.943 31.5187 95.3878L31.5187 59.1248C31.5187 41.7817 45.7024 27.5918 62.2499 27.5918L245.061 27.5918C261.609 27.5918 275.792 41.7817 275.792 58.3365Z" fill="#827D85"/>
<path d="M274.216 59.1248V94.5995C274.216 111.154 260.82 125.344 244.273 125.344L63.0377 125.344C46.4901 125.344 33.0945 111.154 33.0945 94.5995L33.0945 59.1248C33.0945 42.57 46.4901 29.1685 63.0377 29.1685L244.273 29.1685C260.82 29.1685 274.216 42.57 274.216 59.1248Z" fill="#7C777F"/>
</g>
<path d="M102.438 31.5327L107.953 29.1678C107.953 22.0728 97.7097 16.5546 91.4059 16.5546L65.4026 16.5546C59.0987 16.5546 54.3709 22.0728 54.3709 29.1678L54.3709 31.5327C54.3709 38.6277 59.0987 44.146 65.4026 44.146L91.4059 44.146C97.7097 44.146 102.438 38.6277 102.438 31.5327Z" fill="url(#paint0_linear_2374_8253)"/>
<path d="M91.406 16.5546C97.7098 16.5546 107.954 22.0728 107.954 29.1678L102.438 31.5327C102.438 38.6277 97.7098 44.146 91.406 44.146H76.4344V16.5546L91.406 16.5546Z" fill="url(#paint1_linear_2374_8253)" style="mix-blend-mode:multiply"/>
<path d="M81.1622 16.555C91.4059 17.3433 100.074 18.9199 100.074 20.4966C100.074 22.8616 91.4059 23.6499 80.3742 23.6499C70.1305 22.8615 61.4627 21.2849 61.4627 19.7082C61.4627 17.3433 70.1305 16.555 81.1622 16.555Z" fill="url(#paint2_radial_2374_8253)" style="mix-blend-mode:hard-light"/>
<path d="M57.5229 19.7082C55.9469 21.8104 54.8963 24.1754 54.371 26.8032L106.378 26.8032V23.6499C104.802 22.5988 103.226 21.2849 101.65 19.7082L57.5229 19.7082Z" fill="url(#paint3_linear_2374_8253)" style="mix-blend-mode:multiply"/>
<path d="M102.438 128.497L107.954 130.862C107.954 137.957 97.7098 143.475 91.406 143.475H65.4027C59.0988 143.475 54.371 137.957 54.371 130.862L54.371 128.497C54.371 121.402 59.0988 115.884 65.4027 115.884H91.406C97.7098 115.884 102.438 121.402 102.438 128.497Z" fill="url(#paint4_linear_2374_8253)"/>
<path d="M91.4061 143.475C97.7099 143.475 107.954 137.957 107.954 130.862L102.438 128.497C102.438 121.402 97.7099 115.884 91.4061 115.884H76.4345V143.475H91.4061Z" fill="url(#paint5_linear_2374_8253)" style="mix-blend-mode:multiply"/>
<path d="M79.5864 136.38C90.6181 136.38 99.2859 137.168 99.2859 139.533C99.2859 141.11 90.6181 142.687 79.5864 142.687C69.3427 143.475 59.8869 141.898 59.8869 140.322C59.8869 138.745 68.5547 136.38 79.5864 136.38Z" fill="url(#paint6_radial_2374_8253)" style="mix-blend-mode:hard-light"/>
<path d="M248.213 31.5332L253.729 29.1682C253.729 22.0733 242.697 16.555 236.393 16.555L211.178 16.555C204.874 16.555 199.358 22.0733 199.358 29.1682V31.5332C199.358 38.6281 204.874 44.1464 211.178 44.1464L236.393 44.1464C242.697 44.1464 248.213 38.6281 248.213 31.5332Z" fill="url(#paint7_linear_2374_8253)"/>
<path d="M236.394 16.555C242.697 16.555 253.729 22.0733 253.729 29.1682L248.213 31.5332C248.213 38.6281 242.697 44.1464 237.182 44.1464H222.21V16.555L236.394 16.555Z" fill="url(#paint8_linear_2374_8253)" style="mix-blend-mode:multiply"/>
<path d="M226.15 16.5554C237.181 17.3438 245.849 18.9204 245.849 20.4971C245.849 22.862 237.181 23.6504 226.15 23.6504C215.118 22.862 206.45 21.2854 206.45 19.7087C206.45 17.3437 215.906 16.5554 226.15 16.5554Z" fill="url(#paint9_radial_2374_8253)" style="mix-blend-mode:hard-light"/>
<path d="M203.298 19.7082C201.722 21.8104 200.672 24.1754 200.147 26.8032L251.365 26.8032V23.6499C250.314 22.5988 249.001 21.2849 247.425 19.7082L203.298 19.7082Z" fill="url(#paint10_linear_2374_8253)" style="mix-blend-mode:multiply"/>
<path d="M248.213 128.497L253.729 130.862C253.729 137.957 242.697 143.476 236.393 143.476H211.178C204.874 143.476 199.358 137.957 199.358 130.862V128.497C199.358 121.402 204.874 115.884 211.178 115.884H236.393C242.697 115.884 248.213 121.402 248.213 128.497Z" fill="url(#paint11_linear_2374_8253)"/>
<path d="M236.393 143.476C242.697 143.476 253.729 137.957 253.729 130.862L248.213 128.497C248.213 121.402 242.697 115.884 237.181 115.884H222.21V143.476H236.393Z" fill="url(#paint12_linear_2374_8253)" style="mix-blend-mode:multiply"/>
<path d="M225.362 136.381C236.393 136.381 245.061 137.169 245.061 139.534C245.061 141.111 236.393 142.687 225.362 142.687C214.33 143.476 205.662 141.899 205.662 140.322C205.662 138.746 214.33 136.381 225.362 136.381Z" fill="url(#paint13_radial_2374_8253)" style="mix-blend-mode:hard-light"/>
<path d="M17.3356 30.7442C10.2438 39.4158 6.30387 52.029 6.30387 52.029C6.30387 52.029 4.57764e-05 60.7006 4.57764e-05 79.6204C4.57764e-05 99.3286 6.30387 108 6.30387 108C6.30387 108 10.2438 120.613 17.3356 129.285C27.5793 139.533 48.8547 141.11 55.1586 141.11C73.2821 141.11 130.805 141.11 195.419 141.11C202.511 141.11 237.182 137.957 242.697 137.957C252.941 137.168 260.821 134.015 267.913 122.978C275.793 110.365 276.581 79.6204 276.581 79.6204C276.581 79.6204 277.369 50.4524 267.913 37.0508C260.821 26.0143 252.941 22.861 242.697 22.0727C237.182 21.2843 202.511 18.9194 195.419 18.9194C130.805 18.9194 73.2821 18.9194 55.1586 18.9194C48.8547 18.9194 27.5793 20.496 17.3356 30.7442Z" fill="url(#paint14_linear_2374_8253)"/>
<path d="M6.30412 108L17.3358 115.883C17.3358 115.883 22.0637 122.978 24.4276 126.131C26.7916 129.285 31.5194 134.015 31.5194 134.015C31.5194 134.015 22.0637 134.803 15.7599 126.92C8.66805 119.037 6.30412 108 6.30412 108Z" fill="url(#paint15_linear_2374_8253)"/>
<path d="M31.5196 134.015C31.5196 134.015 26.0038 128.496 24.4278 126.131C22.8519 123.766 17.336 115.883 17.336 115.883L8.66824 109.577C10.2442 113.518 14.9721 122.978 18.912 126.92C22.8519 131.65 26.0038 133.226 31.5196 134.015Z" fill="url(#paint16_linear_2374_8253)"/>
<path d="M11.0322 116.672L8.66822 111.942C9.4562 111.154 11.0322 113.519 12.6081 115.884C13.3961 118.249 14.1841 120.613 13.3961 121.402C13.3961 121.402 11.8201 119.825 10.2442 116.672C9.4562 115.095 8.66822 113.519 8.66822 112.73L11.0322 116.672Z" fill="url(#paint17_linear_2374_8253)" style="mix-blend-mode:soft-light"/>
<path d="M6.30433 52.0288L17.336 44.1455C17.336 44.1455 22.0639 37.0506 24.4278 33.8973C26.7918 30.744 31.5196 26.014 31.5196 26.014C31.5196 26.014 22.0639 25.2257 15.7601 33.1089C8.66827 40.9922 6.30433 52.0288 6.30433 52.0288Z" fill="url(#paint18_linear_2374_8253)"/>
<path d="M31.5195 26.014C31.5195 26.014 26.0036 31.5323 24.4276 33.8973C22.8517 36.2623 17.3358 44.1455 17.3358 44.1455L8.66808 50.4521C10.244 46.5105 14.9719 37.0506 18.9118 33.1089C22.8517 28.379 26.0036 26.8024 31.5195 26.014Z" fill="url(#paint19_linear_2374_8253)"/>
<path d="M11.0323 43.3571L8.6684 48.087C9.45637 48.8754 11.0323 46.5104 12.6083 44.1454C13.3963 40.9921 14.1842 38.6271 13.3963 38.6271C13.3963 38.6271 11.8203 40.2038 10.2444 43.3571C9.45637 44.9337 8.6684 46.5104 8.6684 47.2987L11.0323 43.3571Z" fill="url(#paint20_linear_2374_8253)" style="mix-blend-mode:soft-light"/>
<path d="M14.9715 119.037C18.1234 124.555 19.6993 129.285 18.9114 129.285C18.1234 130.073 14.9715 126.131 11.8196 120.613C8.66765 115.095 7.09169 110.365 7.87967 109.577C8.66765 109.577 11.8196 113.518 14.9715 119.037Z" fill="url(#paint21_radial_2374_8253)" style="mix-blend-mode:hard-light"/>
<g style="mix-blend-mode:multiply">
<path fill-rule="evenodd" clip-rule="evenodd" d="M18.1231 115.883C22.063 122.978 24.427 126.131 24.427 126.131C24.427 126.131 24.427 125.868 24.427 125.343C24.427 125.343 22.063 122.978 18.1231 115.883ZM24.427 125.343C24.427 125.868 24.427 126.131 24.427 126.131C26.5282 128.759 28.8922 131.386 31.5188 134.014C29.4175 131.386 27.0536 128.496 24.427 125.343ZM46.4904 136.379C43.8638 135.854 41.4998 135.328 39.3986 134.802C37.8226 134.802 36.5093 134.802 35.4587 134.802C34.408 134.277 33.6201 134.014 33.0947 134.014C32.5694 134.014 32.0441 134.014 31.5188 134.014C41.7625 136.379 52.0062 136.379 62.2499 137.167C62.2499 137.167 62.2499 136.905 62.2499 136.379C56.9968 136.379 51.7436 136.379 46.4904 136.379ZM68.5538 136.379C64.3512 136.379 62.2499 136.379 62.2499 136.379C62.2499 136.905 62.2499 137.167 62.2499 137.167C62.2499 137.167 64.3512 137.167 68.5538 137.167C72.231 137.167 78.0095 136.905 85.8893 136.379C78.0095 136.379 72.231 136.379 68.5538 136.379ZM31.5188 134.014C41.7625 136.379 52.0062 137.167 62.2499 137.167C52.0062 136.379 41.7625 136.379 31.5188 134.014ZM18.1231 115.883C17.5978 115.883 17.3352 115.883 17.3352 115.883C21.2751 122.978 24.427 126.131 24.427 126.131C24.427 126.131 22.063 122.978 18.1231 115.883ZM24.427 126.131C26.5282 128.759 28.6295 131.386 30.7308 134.014C31.2561 134.014 31.5188 134.014 31.5188 134.014C28.8922 131.386 26.5282 128.759 24.427 126.131ZM31.5188 134.014C31.5188 134.014 31.2561 134.014 30.7308 134.014C30.7308 134.54 30.7308 134.802 30.7308 134.802C31.2561 134.277 31.5188 134.014 31.5188 134.014ZM31.5188 134.014C31.5188 134.014 31.2561 134.277 30.7308 134.802C41.7625 136.379 52.0062 137.167 62.2499 137.167C52.0062 137.167 41.7625 136.379 31.5188 134.014ZM68.5538 137.167C72.231 137.167 78.0095 137.167 85.8893 137.167C85.8893 137.167 85.8893 136.905 85.8893 136.379C78.0095 136.905 72.231 137.167 68.5538 137.167ZM17.3352 115.883C21.2751 122.978 23.639 126.131 23.639 126.131C24.1643 126.131 24.427 126.131 24.427 126.131C24.427 126.131 21.2751 122.978 17.3352 115.883ZM24.427 126.131C26.5282 128.759 28.6295 131.649 30.7308 134.802C30.7308 134.277 30.7308 134.014 30.7308 134.014C28.6295 131.386 26.5282 128.759 24.427 126.131ZM30.7308 134.802C30.7308 134.277 30.7308 134.014 30.7308 134.014C30.7308 134.54 30.7308 134.802 30.7308 134.802ZM30.7308 134.802C36.2466 135.591 41.7625 136.379 46.4904 136.379C51.7436 136.905 56.9968 137.167 62.2499 137.167C52.0062 137.167 41.7625 136.379 30.7308 134.802Z" fill="url(#paint22_linear_2374_8253)"/>
</g>
<path d="M232.454 138.745C237.181 137.956 241.121 137.956 242.697 137.956C252.941 137.168 260.821 134.015 267.913 122.978C275.792 110.365 276.58 79.6202 276.58 79.6202C276.58 79.6202 277.368 50.4521 267.913 37.0506C260.821 26.014 252.941 22.8607 242.697 22.0724C241.121 22.0724 237.181 21.2841 232.454 21.2841L232.454 138.745Z" fill="url(#paint23_linear_2374_8253)" style="mix-blend-mode:multiply"/>
<path d="M98.4974 45.7226C95.3455 62.2774 95.3455 97.7521 98.4974 114.307C99.2854 120.614 105.589 125.343 111.893 126.132L230.878 126.132C231.403 126.132 231.928 125.869 232.454 125.343C236.394 123.767 249.001 113.519 249.001 79.6206C249.001 46.5109 235.606 36.2627 232.454 33.8977C231.928 33.8977 231.403 33.8977 230.878 33.8977L111.893 33.8977C105.589 33.8977 99.2854 38.6277 98.4974 45.7226Z" fill="url(#paint24_linear_2374_8253)"/>
<path d="M103.225 78.0435C103.225 78.0435 126.864 91.4451 174.143 91.4451C220.634 91.4451 247.425 74.8902 247.425 74.8902C247.425 74.8902 252.941 104.058 237.969 122.19C231.665 130.073 202.51 129.285 173.355 129.285C141.048 128.496 108.741 128.496 108.741 124.555C107.953 118.248 100.861 96.175 103.225 78.0435Z" fill="url(#paint25_linear_2374_8253)" style="mix-blend-mode:soft-light"/>
<path d="M85.102 136.38L89.0419 142.686H89.8299C92.9818 147.416 99.2857 154.511 99.2857 154.511C99.2857 154.511 100.862 153.723 100.862 152.146C100.862 151.358 96.9217 141.11 96.9217 141.11L94.5578 140.321C94.5578 140.321 93.7698 139.533 92.9818 138.745C92.9818 137.168 93.7698 135.591 93.7698 135.591L85.102 136.38Z" fill="url(#paint26_linear_2374_8253)"/>
<path d="M88.254 139.533C88.254 139.533 88.5166 139.533 89.042 139.533C89.8299 140.321 91.4059 141.898 92.1939 142.686C93.7698 143.475 95.3458 144.263 95.3458 144.263L99.2857 154.511C99.2857 154.511 96.1338 152.935 93.7698 150.57C89.042 146.628 88.254 141.11 88.254 139.533Z" fill="url(#paint27_linear_2374_8253)"/>
<path d="M96.9218 141.11C96.9218 141.11 100.862 147.416 100.862 152.146C100.862 152.146 100.862 153.723 100.074 153.723C100.074 154.249 99.811 154.249 99.2857 153.723C96.1338 151.358 95.3458 144.263 95.3458 144.263L96.9218 141.11Z" fill="url(#paint28_linear_2374_8253)"/>
<path fill-rule="evenodd" clip-rule="evenodd" d="M96.9219 141.11C96.9219 141.11 100.862 147.416 100.862 152.146C100.862 152.146 100.862 152.409 100.862 152.935C101.387 153.46 101.387 153.723 100.862 153.723C100.074 154.511 99.2858 154.511 99.2858 153.723C96.1339 152.146 95.3459 144.263 95.3459 144.263L96.9219 141.11ZM100.074 154.511H100.862C101.387 153.986 101.65 153.46 101.65 152.935C101.65 152.935 101.65 152.672 101.65 152.146C100.862 148.993 98.4978 143.475 96.9219 141.898L96.1339 145.051C96.1339 145.84 96.9219 152.146 100.074 154.511Z" fill="#1E1E1E"/>
<path d="M85.1018 22.8608L89.0417 17.3425H89.8297C92.9816 12.6126 99.2854 5.51764 99.2854 5.51764C99.2854 5.51764 100.861 6.30597 100.861 7.09429C100.861 8.67095 96.9215 18.9192 96.9215 18.9192L94.5576 19.7075C94.5576 19.7075 93.7696 20.4958 92.9816 21.2841C92.9816 22.0725 93.7696 24.4375 93.7696 24.4375L85.1018 22.8608Z" fill="url(#paint29_linear_2374_8253)"/>
<path d="M88.2537 20.4956C88.2537 20.4956 88.5163 20.4956 89.0417 20.4956C89.8296 19.7072 91.4056 17.3423 92.1936 17.3423C93.7695 15.7656 95.3455 14.9773 95.3455 14.9773L99.2854 5.51737C99.2854 5.51737 96.1335 6.30569 93.7695 9.459C89.0417 13.4006 88.2537 18.1306 88.2537 20.4956Z" fill="url(#paint30_linear_2374_8253)"/>
<path d="M96.9215 18.9194C96.9215 18.9194 100.861 11.8245 100.861 7.88282C100.861 7.0945 100.861 6.30618 100.073 5.51785C100.073 5.51785 99.8108 5.51785 99.2855 5.51785C96.1335 7.88283 95.3456 14.9778 95.3456 14.9778L96.9215 18.9194Z" fill="url(#paint31_linear_2374_8253)"/>
<path fill-rule="evenodd" clip-rule="evenodd" d="M99.2855 5.51785C99.2855 5.51785 100.073 5.51785 100.861 5.51785C101.387 6.0434 101.387 6.56896 100.861 7.09451C100.861 7.62006 100.861 7.88282 100.861 7.88282C100.861 11.8245 96.9215 18.9194 96.9215 18.9194L95.3456 14.9778C95.3456 14.9778 96.1335 7.88283 99.2855 5.51785ZM96.9215 18.1311C97.7095 16.5544 100.861 11.0361 100.861 7.88282C100.861 7.88282 100.861 7.62006 100.861 7.09451C100.861 6.56896 100.861 6.3062 100.861 6.3062C100.073 5.51787 99.2855 5.51787 99.2855 6.3062C96.9215 7.88285 96.1335 14.9778 96.1335 14.9778L96.9215 18.1311Z" fill="#1E1E1E"/>
<path d="M80.3738 136.38C80.3738 136.38 107.165 128.497 117.409 127.709C127.652 126.92 163.112 126.92 163.112 126.92L157.596 137.168L80.3738 136.38Z" fill="url(#paint32_linear_2374_8253)"/>
<path d="M167.051 137.168L169.415 126.92L222.21 127.708L189.903 136.38L167.051 137.168Z" fill="url(#paint33_linear_2374_8253)"/>
<path d="M157.596 137.168H167.052L169.415 126.92H163.112L157.596 137.168Z" fill="#272727"/>
<path d="M85.8898 136.38L89.0417 143.475L93.7696 141.11C93.7696 141.11 92.9816 139.533 92.9816 138.745C92.9816 137.956 92.9816 137.956 92.9816 137.956L93.7696 136.38H85.8898Z" fill="#0E0E0E"/>
<path d="M6.30387 52.029C2.36398 56.759 4.57764e-05 67.7955 4.57764e-05 79.6204C4.57764e-05 92.2336 2.36398 103.27 6.30387 108C20.4875 122.978 70.9181 134.803 70.9181 134.803C70.9181 134.803 55.9465 120.613 55.9465 79.6204C55.9465 39.4158 70.9181 25.2259 70.9181 25.2259C70.9181 25.2259 20.4875 37.0508 6.30387 52.029Z" fill="url(#paint34_linear_2374_8253)"/>
<path d="M80.3733 22.8606C80.3733 22.8606 107.165 31.5322 117.408 32.3205C127.652 33.1089 163.111 33.1088 163.111 33.1088L157.595 22.8606L80.3733 22.8606Z" fill="url(#paint35_linear_2374_8253)"/>
<path d="M167.051 22.8613L169.415 32.3212L222.21 31.5329L189.902 22.8613L167.051 22.8613Z" fill="url(#paint36_linear_2374_8253)"/>
<path d="M157.596 22.8606H167.051L169.415 32.3205L163.111 33.1088L157.596 22.8606Z" fill="#272727"/>
<path d="M85.8896 22.8608L89.0415 16.5542L93.7694 18.9192C93.7694 18.9192 92.9814 20.4958 92.9814 21.2841C92.9814 22.0725 92.9814 22.0725 92.9814 22.0725L93.7694 22.8608H85.8896Z" fill="#0E0E0E"/>
<path d="M249.789 79.6207C249.789 117.46 232.453 126.132 232.453 126.132C232.453 126.132 251.365 127.709 260.032 118.249C266.336 111.942 267.124 79.6207 267.124 79.6207C267.124 79.6207 268.7 50.4526 260.032 40.9927C251.365 32.3212 232.453 33.8978 232.453 33.8978C232.453 33.8978 249.789 41.7811 249.789 79.6207Z" fill="url(#paint37_linear_2374_8253)"/>
<path d="M247.425 67.7955C247.425 68.5838 248.213 77.2554 248.213 79.6204C248.213 82.7737 247.425 91.4453 247.425 92.2336C247.425 93.0219 249.001 93.0219 249.001 93.0219C249.789 89.0803 249.789 79.6204 249.789 79.6204C249.789 79.6204 249.789 70.9488 249.001 66.2189C249.001 66.2189 247.425 67.0072 247.425 67.7955Z" fill="#BD0000"/>
<path d="M59.8865 79.6202C59.8865 79.6202 59.0985 120.613 78.01 134.015L109.529 125.343C109.529 125.343 106.377 107.212 106.377 79.6202C106.377 52.8171 109.529 33.8973 109.529 33.8973L78.01 26.014C59.0985 38.6272 59.8865 79.6202 59.8865 79.6202Z" fill="url(#paint38_linear_2374_8253)"/>
<path d="M147.352 139.533C181.235 139.533 208.026 139.533 208.026 139.533C208.026 140.322 181.235 140.322 147.352 140.322C113.469 140.322 85.8897 140.322 85.8897 139.533C85.8897 139.533 113.469 139.533 147.352 139.533Z" fill="url(#paint39_radial_2374_8253)" style="mix-blend-mode:multiply"/>
<path d="M6.30387 108C20.4875 122.978 70.9181 134.803 70.9181 134.803C70.9181 134.803 63.0383 126.92 58.3105 106.423C48.8547 104.847 29.1553 103.27 18.9115 101.694C2.36398 99.3285 1.576 85.1387 4.57764e-05 84.3503C0.788024 94.5986 3.15196 104.058 6.30387 108Z" fill="white"/>
<path d="M6.30383 52.0289C20.4874 37.0507 70.9181 25.2258 70.9181 25.2258C70.9181 25.2258 63.0383 33.1091 58.3104 53.6056C46.4907 54.3939 27.5793 56.7589 14.9716 59.9122C-0.78798 63.0655 1.57596 74.8903 0 75.6787C0.787979 65.4304 3.15191 55.9705 6.30383 52.0289Z" fill="url(#paint40_linear_2374_8253)" style="mix-blend-mode:multiply"/>
<g style="mix-blend-mode:soft-light">
<path d="M8.66778 108C7.09182 108.789 14.1836 126.92 28.3672 134.015C44.9148 141.898 86.6777 137.168 87.4656 135.592C87.4656 134.015 11.0317 106.424 8.66778 108Z" fill="#808080"/>
<path d="M9.45584 108C7.0919 108.789 14.1837 126.92 28.3673 134.015C44.9149 141.898 85.1018 137.168 85.8898 135.592C85.8898 134.015 11.8198 107.212 9.45584 108Z" fill="#868686"/>
<path d="M9.45585 108.788C7.87989 109.577 14.9717 127.708 28.3673 134.015C44.1269 141.11 83.5258 137.168 84.3138 135.591C84.3138 134.015 11.8198 107.212 9.45585 108.788Z" fill="#8C8C8C"/>
<path d="M10.2438 108.789C8.66789 109.577 14.9717 127.709 28.3674 134.015C44.1269 141.11 81.9499 137.169 82.7379 135.592C83.5259 134.015 12.6078 108.001 10.2438 108.789Z" fill="#929292"/>
<path d="M10.2437 109.577C8.66777 110.366 15.7596 127.709 28.3672 134.015C43.3388 141.11 80.3738 137.169 81.1618 135.592C81.9498 134.015 12.6077 108.001 10.2437 109.577Z" fill="#989898"/>
<path d="M11.0316 109.577C9.45561 110.365 16.5474 127.709 29.1551 134.015C42.5507 140.322 78.7977 137.168 79.5857 135.592C80.3737 134.015 13.3955 108.789 11.0316 109.577Z" fill="#9E9E9E"/>
<path d="M11.8197 110.365C10.2438 111.153 16.5476 128.496 29.1553 134.015C42.5509 140.321 77.222 137.168 78.0099 135.591C78.7979 134.015 13.3957 108.788 11.8197 110.365Z" fill="#A4A4A4"/>
<path d="M11.8197 110.365C10.2438 111.154 17.3356 128.497 29.1553 134.015C41.7629 139.533 75.646 137.168 76.434 135.592C77.222 134.015 14.1837 109.577 11.8197 110.365Z" fill="#AAAAAA"/>
<path d="M12.6077 111.154C11.0317 111.942 17.3355 128.497 29.1552 134.015C41.7629 139.533 74.07 137.168 74.858 135.592C75.646 134.015 14.1836 109.577 12.6077 111.154Z" fill="#B0B0B0"/>
<path d="M12.6075 111.154C11.8195 111.942 18.1233 128.497 29.155 133.227C40.9747 138.745 73.2818 137.168 74.0698 135.592C74.8578 134.015 14.9714 110.365 12.6075 111.154Z" fill="#B6B6B6"/>
<path d="M13.3957 111.942C12.6077 112.73 18.9115 129.285 29.1553 133.227C40.187 138.745 71.7061 137.168 72.4941 135.592C73.2821 134.015 15.7596 111.154 13.3957 111.942Z" fill="#BCBCBC"/>
<path d="M14.1837 111.942C12.6077 112.73 18.9116 129.285 29.1553 133.227C40.187 137.957 70.1302 136.38 70.9182 135.592C71.7061 134.015 15.7597 111.154 14.1837 111.942Z" fill="#C3C3C3"/>
<path d="M14.1835 112.731C13.3955 113.519 19.6993 129.285 29.1551 133.227C39.3988 137.957 68.554 136.38 69.342 135.592C70.13 134.015 16.5474 111.942 14.1835 112.731Z" fill="#C9C9C9"/>
<path d="M14.9717 112.73C14.1838 113.519 20.4876 129.285 29.1554 133.227C39.3991 137.168 66.9783 136.38 67.7663 135.592C68.5543 134.015 16.5477 111.942 14.9717 112.73Z" fill="#CFCFCF"/>
<path d="M15.7596 113.519C14.1836 114.307 20.4874 129.285 29.1552 133.227C38.6109 137.168 65.4022 136.38 66.1902 135.592C66.9782 134.015 17.3355 112.73 15.7596 113.519Z" fill="#D5D5D5"/>
<path d="M15.7596 113.519C14.9716 114.307 21.2754 130.073 29.1552 133.227C37.823 137.168 63.8263 136.38 64.6143 135.592C65.4022 134.015 17.3355 112.73 15.7596 113.519Z" fill="#DBDBDB"/>
<path d="M16.5477 114.307C15.7597 115.095 21.2756 130.074 29.1554 133.227C37.8231 136.38 62.2505 136.38 63.0384 135.592C64.6144 134.015 18.1237 113.519 16.5477 114.307Z" fill="#E1E1E1"/>
<path d="M16.5476 114.307C15.7596 115.095 22.0635 130.074 29.1553 133.227C37.0351 136.38 60.6744 136.38 61.4624 135.592C63.0383 134.015 18.1236 113.519 16.5476 114.307Z" fill="#E7E7E7"/>
<path d="M17.3355 115.095C16.5475 115.883 22.8513 130.073 29.1552 133.227C37.035 135.592 59.0984 136.38 60.6743 135.592C61.4623 134.015 18.9115 114.307 17.3355 115.095Z" fill="#EDEDED"/>
<path d="M18.1236 115.095C17.3356 115.883 22.8515 130.862 29.9433 133.227C36.2471 135.592 57.5225 136.38 59.0985 134.803C59.8865 134.015 18.9116 114.307 18.1236 115.095Z" fill="#F3F3F3"/>
<path d="M18.1236 115.884C17.3356 116.672 23.6395 130.862 29.9433 133.227C35.4592 134.803 55.9466 136.38 57.5226 134.803C58.3105 134.015 19.6996 115.095 18.1236 115.884Z" fill="#F9F9F9"/>
<path d="M18.9115 115.884C18.1235 116.672 24.4273 130.862 29.9432 133.227C35.459 134.803 54.3705 136.38 55.9464 134.803C56.7344 134.015 19.6994 115.095 18.9115 115.884Z" fill="white"/>
</g>
<g style="mix-blend-mode:soft-light">
<path d="M263.185 50.4521C264.761 49.6638 256.093 29.1673 249.001 25.2257C241.121 21.2841 190.691 22.8607 189.903 24.4374C189.903 25.2257 260.033 51.2405 263.185 50.4521Z" fill="#808080"/>
<path d="M262.397 49.664C264.761 48.8757 256.093 29.1675 249.001 25.2259C241.909 21.2843 192.267 22.8609 191.479 24.4376C191.479 25.2259 260.033 50.4523 262.397 49.664Z" fill="#868686"/>
<path d="M262.396 49.664C263.972 48.8757 256.093 29.1675 249.001 25.2259C241.909 22.0726 193.842 22.8609 193.054 24.4376C193.054 25.2259 260.033 50.4523 262.396 49.664Z" fill="#8C8C8C"/>
<path d="M262.397 48.8758C263.973 48.0875 256.093 29.1677 249.001 26.0144C241.909 22.0728 195.419 22.8611 194.631 24.4377C193.843 25.2261 260.033 50.4525 262.397 48.8758Z" fill="#929292"/>
<path d="M262.397 48.8758C263.973 48.0875 255.305 29.1677 249.001 26.0144C241.909 22.0728 196.994 22.8611 196.206 24.4377C195.419 25.2261 260.033 49.6641 262.397 48.8758Z" fill="#989898"/>
<path d="M261.609 48.8758C263.185 48.0875 255.305 29.1677 248.213 26.0144C241.909 22.0728 198.57 22.8611 197.782 24.4377C196.994 25.2261 260.033 49.6641 261.609 48.8758Z" fill="#9E9E9E"/>
<path d="M261.609 48.0871C263.185 47.2988 255.305 29.1673 248.213 26.014C241.909 22.0724 200.146 22.8607 199.358 24.4374C198.57 25.2257 259.245 48.8755 261.609 48.0871Z" fill="#A4A4A4"/>
<path d="M261.609 48.0871C263.185 47.2988 255.305 29.1673 248.213 26.014C241.909 22.8607 201.722 22.8607 200.934 24.4374C200.146 25.2257 259.245 48.8755 261.609 48.0871Z" fill="#AAAAAA"/>
<path d="M261.609 47.299C262.397 46.5107 255.305 29.1676 248.213 26.0143C241.909 22.861 202.51 22.8609 202.51 24.4376C201.722 26.0142 259.245 48.8757 261.609 47.299Z" fill="#B0B0B0"/>
<path d="M260.821 47.2992C262.397 46.5108 255.305 29.1677 248.213 26.0144C241.909 22.8611 204.086 22.8611 203.298 24.4377C202.51 26.0144 259.245 48.0875 260.821 47.2992Z" fill="#B6B6B6"/>
<path d="M260.821 46.5107C262.397 46.5107 254.517 29.1676 248.213 26.0143C241.909 22.861 205.662 22.861 204.874 24.4376C204.086 26.0143 259.245 48.0874 260.821 46.5107Z" fill="#BCBCBC"/>
<path d="M260.821 46.5108C261.609 45.7225 254.517 29.1677 248.213 26.0144C241.909 22.8611 207.238 22.8611 206.45 24.4377C205.662 26.0144 258.457 47.2992 260.821 46.5108Z" fill="#C3C3C3"/>
<path d="M260.033 46.5108C261.609 45.7225 254.517 29.1677 248.213 26.0144C241.909 23.6494 208.814 22.8611 208.026 24.4377C207.238 26.0144 258.457 47.2992 260.033 46.5108Z" fill="#C9C9C9"/>
<path d="M260.033 45.7222C261.609 44.9339 254.517 29.1674 248.213 26.0141C241.909 23.6491 210.39 22.8608 209.602 24.4374C208.814 26.0141 258.457 47.2989 260.033 45.7222Z" fill="#CFCFCF"/>
<path d="M260.033 45.7224C260.821 44.9341 254.517 29.1676 248.213 26.0143C241.909 23.6493 211.966 22.861 211.178 24.4376C210.39 26.0143 258.457 46.5108 260.033 45.7224Z" fill="#D5D5D5"/>
<path d="M260.033 44.934C260.821 44.934 254.517 29.1675 248.213 26.0142C241.909 23.6493 213.542 22.8609 212.754 24.4376C211.966 26.0142 258.457 46.5107 260.033 44.934Z" fill="#DBDBDB"/>
<path d="M259.245 44.934C260.821 44.1456 253.729 28.3792 248.213 26.0142C241.909 23.6492 215.118 22.8609 214.33 24.4375C212.754 26.0142 258.457 45.7223 259.245 44.934Z" fill="#E1E1E1"/>
<path d="M259.245 44.9345C260.033 44.1461 253.729 28.3796 248.213 26.803C241.909 24.438 216.694 22.8614 215.906 24.438C214.33 26.0147 257.669 45.7228 259.245 44.9345Z" fill="#E7E7E7"/>
<path d="M259.245 44.1456C260.033 43.3573 253.729 28.3791 248.213 26.8024C241.909 24.4375 218.27 22.8608 216.694 24.4375C215.906 26.0141 257.669 45.7223 259.245 44.1456Z" fill="#EDEDED"/>
<path d="M259.245 44.1459C260.033 43.3576 253.729 28.3794 247.425 26.8028C241.909 24.4378 219.846 22.8611 218.27 24.4378C217.482 26.0144 257.669 44.9343 259.245 44.1459Z" fill="#F3F3F3"/>
<path d="M258.457 43.3574C259.245 43.3574 253.729 28.3792 247.425 26.8026C241.909 24.4376 221.422 22.861 219.846 24.4376C219.058 26.0143 257.669 44.9341 258.457 43.3574Z" fill="#F9F9F9"/>
<path d="M258.457 43.3578C259.245 42.5695 252.941 28.3796 247.425 26.803C241.909 25.2263 222.998 22.8614 221.422 24.438C220.634 26.0147 257.669 44.1461 258.457 43.3578Z" fill="white"/>
</g>
<g style="mix-blend-mode:soft-light">
<path d="M11.0312 52.0293C9.45528 51.241 18.911 29.9562 26.0028 26.0145C33.0946 22.0729 82.7373 22.0729 83.5253 23.6495C83.5253 25.2262 13.3952 52.8176 11.0312 52.0293Z" fill="#808080"/>
<path d="M11.0312 52.0293C9.45528 51.241 18.911 29.9562 26.0028 26.0145C33.0946 22.0729 81.1613 22.0729 81.9493 23.6495C81.9493 25.2262 14.1832 52.8176 11.0312 52.0293Z" fill="#868686"/>
<path d="M11.8192 51.2407C10.2432 50.4524 18.911 29.956 26.0028 26.0143C33.0946 22.0727 79.5853 22.0727 80.3733 23.6493C81.1613 25.226 14.1831 52.029 11.8192 51.2407Z" fill="#8C8C8C"/>
<path d="M11.8192 51.2407C10.2432 50.4524 18.911 29.956 26.0028 26.0143C33.0946 22.0727 78.0094 22.0727 78.7974 23.6493C79.5853 25.226 14.1831 52.029 11.8192 51.2407Z" fill="#929292"/>
<path d="M11.8194 50.4526C10.2434 49.6643 18.9112 29.9562 26.003 26.0145C33.0948 22.8612 77.2216 22.0729 77.2216 23.6495C78.0096 25.2262 14.1833 51.2409 11.8194 50.4526Z" fill="#989898"/>
<path d="M12.6072 50.4526C11.0313 49.6643 18.9111 29.9562 26.0029 26.0145C33.0947 22.8612 75.6455 22.0729 76.4335 23.6495C76.4335 25.2262 14.9712 51.2409 12.6072 50.4526Z" fill="#9E9E9E"/>
<path d="M12.6072 49.6645C11.0313 48.8762 19.699 29.9563 26.0029 26.0147C33.0947 22.8614 74.0696 22.8614 74.8575 23.6497C75.6455 25.2264 14.9712 50.4528 12.6072 49.6645Z" fill="#A4A4A4"/>
<path d="M12.6072 49.6645C11.0313 48.8762 19.699 29.9563 26.0029 26.0147C33.0947 22.8614 72.4936 22.8614 73.2816 23.6497C74.0696 25.2264 14.9712 50.4528 12.6072 49.6645Z" fill="#AAAAAA"/>
<path d="M13.395 48.8758C11.819 48.0875 19.6988 29.956 26.0027 26.0144C33.0945 22.8611 70.9174 22.8611 71.7054 23.6494C72.4934 25.2261 14.971 49.6642 13.395 48.8758Z" fill="#B0B0B0"/>
<path d="M13.3953 48.8758C11.8193 48.0875 19.6991 29.1677 26.7909 26.8027C33.0948 23.6494 69.3418 22.8611 70.1298 24.4377C70.9177 25.2261 14.9713 49.6641 13.3953 48.8758Z" fill="#B6B6B6"/>
<path d="M13.3951 48.0876C12.6071 47.2993 19.6989 29.1678 26.7907 26.8028C33.0946 23.6495 67.7656 22.8612 68.5536 24.4379C70.1296 25.2262 15.759 48.8759 13.3951 48.0876Z" fill="#BCBCBC"/>
<path d="M14.1833 48.0875C12.6074 47.2991 20.4871 29.1676 26.791 26.8027C33.0948 23.6494 66.9779 22.861 67.7659 24.4377C68.5538 26.0143 15.7593 48.8758 14.1833 48.0875Z" fill="#C3C3C3"/>
<path d="M14.1831 47.2992C12.6071 46.5108 20.4869 29.1677 26.7908 26.8027C33.0946 23.6494 65.4017 22.8611 66.1897 24.4377C66.9777 26.0144 15.7591 48.0875 14.1831 47.2992Z" fill="#C9C9C9"/>
<path d="M14.1831 47.2992C13.3951 46.5108 20.4869 29.1677 26.7908 26.8027C33.0946 23.6494 63.8258 22.8611 64.6137 24.4377C65.4017 26.0144 15.7591 48.0875 14.1831 47.2992Z" fill="#CFCFCF"/>
<path d="M14.9712 46.5108C13.3952 45.7225 20.487 29.1677 26.7909 26.8027C33.0947 24.4377 62.2499 22.8611 63.0379 24.4377C63.8259 26.0144 16.5471 47.2992 14.9712 46.5108Z" fill="#D5D5D5"/>
<path d="M14.971 46.5113C14.183 45.723 20.4868 29.1682 26.7906 26.8032C33.0945 24.4382 60.6737 22.8616 61.4617 24.4382C63.0377 26.0149 16.5469 47.2996 14.971 46.5113Z" fill="#DBDBDB"/>
<path d="M14.9712 45.7224C14.1832 44.9341 20.487 29.1676 26.7908 26.8026C33.0947 24.4376 59.098 22.861 60.6739 24.4376C61.4619 26.0143 16.5471 46.5108 14.9712 45.7224Z" fill="#E1E1E1"/>
<path d="M14.9713 45.7224C14.1833 44.9341 21.2751 29.1676 26.791 26.8026C33.0948 24.4376 58.3101 22.861 59.0981 24.4376C59.8861 26.0143 16.5472 46.5108 14.9713 45.7224Z" fill="#E7E7E7"/>
<path d="M15.7592 44.9345C14.9712 44.1461 21.275 29.168 26.7909 26.803C33.0947 24.438 56.7341 23.6497 57.5221 24.438C58.31 26.0147 16.5472 45.7228 15.7592 44.9345Z" fill="#EDEDED"/>
<path d="M15.7592 44.9345C14.9712 44.1461 21.275 29.168 26.7909 26.803C33.0947 25.2263 55.1581 23.6497 55.9461 24.438C57.5221 26.0147 17.3351 45.7228 15.7592 44.9345Z" fill="#F3F3F3"/>
<path d="M15.7591 44.1459C15.7591 43.3576 21.275 29.1677 26.7908 26.8028C33.0946 25.2261 53.5821 23.6495 54.3701 24.4378C55.946 26.0144 17.3351 44.9343 15.7591 44.1459Z" fill="#F9F9F9"/>
<path d="M16.5471 44.1459C15.7591 43.3576 21.2749 29.1677 26.7908 26.8028C32.3066 25.2261 52.0061 23.6494 53.5821 25.2261C54.3701 26.0144 17.3351 44.9342 16.5471 44.1459Z" fill="white"/>
</g>
<path d="M62.2501 134.015C78.0097 134.015 90.6173 136.38 90.6173 137.956C90.6173 139.533 77.2217 140.321 62.2501 139.533C46.4905 138.745 33.8829 137.168 33.8829 135.591C33.8829 134.015 46.4905 133.226 62.2501 134.015Z" fill="url(#paint41_radial_2374_8253)" style="mix-blend-mode:hard-light"/>
<path d="M59.8862 79.6202C59.8862 79.6202 59.0982 120.613 78.0097 134.015L109.529 125.343C109.529 125.343 107.953 113.518 107.165 94.5983C90.6173 93.0217 59.8862 78.0435 59.8862 78.0435C59.8862 79.0946 59.8862 79.6202 59.8862 79.6202Z" fill="url(#paint42_linear_2374_8253)" style="mix-blend-mode:soft-light"/>
<path d="M92.9815 130.073C105.589 126.131 115.833 124.555 115.833 125.343C115.833 125.343 106.377 129.285 93.7695 132.438C81.1618 135.591 70.9181 137.956 70.9181 137.168C70.9181 136.38 80.3738 133.226 92.9815 130.073Z" fill="url(#paint43_radial_2374_8253)" style="mix-blend-mode:hard-light"/>
<path d="M134.744 137.168C167.052 137.168 193.843 137.168 193.843 137.957C193.843 138.745 167.052 139.533 134.744 139.533C101.649 139.533 75.646 138.745 75.646 137.957C75.646 137.168 101.649 137.168 134.744 137.168Z" fill="url(#paint44_radial_2374_8253)" style="mix-blend-mode:hard-light"/>
<path d="M134.744 18.9192C167.051 18.9192 193.843 18.9192 193.843 19.7075C193.843 20.4958 167.051 21.2841 134.744 21.2841C101.649 21.2841 75.6459 20.4958 75.6459 19.7075C75.6459 18.9192 101.649 18.9192 134.744 18.9192Z" fill="url(#paint45_radial_2374_8253)" style="mix-blend-mode:multiply"/>
<path d="M134.744 20.4958C167.051 20.4958 193.843 20.4958 193.843 21.2841C193.843 22.0725 167.051 22.8608 134.744 22.8608C101.649 22.8608 75.646 22.0725 75.646 21.2841C75.646 20.4958 101.649 20.4958 134.744 20.4958Z" fill="url(#paint46_radial_2374_8253)" style="mix-blend-mode:hard-light"/>
<path d="M93.7696 27.5911C106.377 30.7444 115.833 34.686 115.833 34.686C115.833 35.4744 105.589 33.1094 92.9816 29.9561C81.1619 26.0145 70.9182 22.8612 70.9182 22.0728C71.7062 21.2845 81.9499 23.6495 93.7696 27.5911Z" fill="url(#paint47_radial_2374_8253)" style="mix-blend-mode:hard-light"/>
<mask id="mask0_2374_8253" style="mask-type:luminance" maskUnits="userSpaceOnUse" x="57" y="26" width="53" height="108">
<path d="M57.9958 79.9352C57.9958 79.9352 58.6262 121.086 78.0104 133.778L109.766 125.895C109.766 125.895 106.456 106.896 106.456 79.9352C106.456 53.0533 109.766 34.0546 109.766 34.0546L78.0104 26.0925C58.6262 38.7846 57.9958 79.9352 57.9958 79.9352Z" fill="white"/>
</mask>
<g mask="url(#mask0_2374_8253)">
<path d="M93.7697 21.2846C117.409 27.5912 136.321 35.4745 135.533 40.2044C134.745 44.146 114.257 43.3577 90.6178 37.8394C66.1904 32.3212 47.2789 23.6496 48.0669 19.7079C48.8549 14.978 69.3423 15.7663 93.7697 21.2846Z" fill="url(#paint48_radial_2374_8253)" style="mix-blend-mode:hard-light"/>
<path d="M69.3426 86.7154C70.1306 135.592 62.2508 175.796 51.2191 175.796C40.1874 176.585 30.7316 136.38 29.1557 87.5037C28.3677 38.6275 36.2475 -1.57706 47.2792 -2.36539C58.3109 -2.36539 67.7666 37.0509 69.3426 86.7154Z" fill="url(#paint49_radial_2374_8253)" style="mix-blend-mode:hard-light"/>
<path d="M98.4976 85.1388C119.773 80.4088 139.473 95.387 143.412 118.248C147.352 140.322 133.169 162.395 111.893 166.336C91.4058 170.278 70.9184 156.088 67.7665 133.227C63.8266 111.154 78.0102 89.0804 98.4976 85.1388Z" fill="url(#paint50_radial_2374_8253)" style="mix-blend-mode:hard-light"/>
</g>
<path d="M70.918 134.803L78.0098 134.015C78.0098 134.015 59.8863 122.19 59.8863 78.8321C59.8863 42.5691 78.0098 26.0143 78.0098 26.0143L70.918 25.2259C70.918 25.2259 55.9464 41.7808 55.9464 78.0437C55.9464 121.402 70.918 134.803 70.918 134.803Z" fill="#010101"/>
<path d="M70.9178 134.803C70.9178 134.803 25.2151 123.767 8.66753 110.365C4.72764 107.212 3.93966 104.058 3.93966 104.058C3.93966 104.058 5.51562 108 11.0315 111.153C26.791 123.767 70.9178 134.015 70.9178 134.015V134.803Z" fill="url(#paint51_linear_2374_8253)"/>
<path d="M70.9179 25.226C70.9179 25.226 25.2151 35.4742 8.66758 49.6641C4.72768 52.8174 3.9397 55.9707 3.9397 55.9707C3.9397 55.9707 5.51566 52.029 11.0315 48.0874C26.7911 35.4742 70.9179 26.0143 70.9179 26.0143L70.9179 25.226Z" fill="url(#paint52_linear_2374_8253)"/>
<path d="M39.3988 111.153C52.7944 115.883 63.0381 121.402 61.4622 124.555C60.6742 127.708 48.8545 126.132 35.4589 122.19C22.0632 117.46 11.8195 111.153 13.3955 108C14.1834 104.847 26.0031 106.423 39.3988 111.153Z" fill="url(#paint53_radial_2374_8253)" style="mix-blend-mode:hard-light"/>
<path d="M231.666 122.19C245.849 120.613 257.669 122.19 257.669 124.555C258.457 127.708 246.637 130.861 233.242 132.438C219.058 134.015 207.238 132.438 206.45 129.285C206.45 126.92 217.482 122.978 231.666 122.19Z" fill="url(#paint54_radial_2374_8253)" style="mix-blend-mode:hard-light"/>
<path d="M229.302 27.5912C243.485 28.3795 254.517 32.3212 254.517 34.6861C253.729 37.8394 241.909 39.4161 227.726 37.8394C214.33 37.0511 202.51 33.1095 203.298 30.7445C203.298 27.5912 215.118 26.0145 229.302 27.5912Z" fill="url(#paint55_radial_2374_8253)" style="mix-blend-mode:hard-light"/>
<path d="M267.125 77.2552L249.789 79.6202C249.789 117.46 232.454 126.131 232.454 126.131C232.454 126.131 251.365 127.708 260.033 118.248C266.337 111.942 267.125 79.6202 267.125 79.6202C267.125 79.6202 267.125 78.8319 267.125 77.2552Z" fill="url(#paint56_linear_2374_8253)" style="mix-blend-mode:soft-light"/>
<g style="mix-blend-mode:soft-light">
<path fill-rule="evenodd" clip-rule="evenodd" d="M68.5543 122.19C63.8264 114.307 59.8865 99.3285 59.8865 79.6204C59.8865 99.3285 63.8264 114.307 68.5543 122.978C70.9182 126.92 73.2822 130.073 74.8581 131.65C75.3834 132.175 75.9087 132.438 76.4341 132.438C76.4341 132.964 76.6967 133.227 77.222 133.227C77.7474 133.752 78.01 134.015 78.01 134.015C78.01 134.015 78.01 133.752 78.01 133.227C78.798 133.227 73.2821 130.862 68.5543 122.19ZM78.01 133.227C88.5164 130.599 99.0228 127.971 109.529 125.343C109.529 125.343 109.267 125.343 108.741 125.343C98.7601 127.971 88.5164 130.599 78.01 133.227ZM78.01 132.438C78.01 132.964 78.01 133.227 78.01 133.227C88.5164 130.599 98.7601 127.971 108.741 125.343C98.7601 127.445 88.5164 129.81 78.01 132.438ZM106.377 103.27C106.903 106.949 107.428 110.628 107.953 114.307C107.953 116.409 107.953 118.248 107.953 119.825C108.479 120.876 108.741 121.927 108.741 122.978C108.741 123.504 108.741 124.292 108.741 125.343C109.267 125.343 109.529 125.343 109.529 125.343C109.529 124.818 109.267 124.029 108.741 122.978C108.741 121.927 108.741 120.876 108.741 119.825C108.741 118.248 108.479 116.409 107.953 114.307C107.428 110.628 107.165 106.949 107.165 103.27C106.64 95.3869 106.377 87.5037 106.377 79.6204C106.377 79.6204 106.115 79.6204 105.589 79.6204C105.589 87.5037 105.852 95.3869 106.377 103.27ZM106.377 103.27C106.903 106.949 107.165 110.628 107.165 114.307C107.691 116.409 107.953 118.248 107.953 119.825C107.953 120.876 108.216 121.927 108.741 122.978C108.741 121.927 108.479 120.876 107.953 119.825C107.953 118.248 107.953 116.409 107.953 114.307C107.428 110.628 106.903 106.949 106.377 103.27ZM108.741 37.0508C108.216 38.1019 107.953 38.8902 107.953 39.4158C107.953 41.518 107.691 43.6202 107.165 45.7224C107.165 49.4013 106.903 53.0801 106.377 56.7589C106.903 53.0801 107.428 49.4013 107.953 45.7224C107.953 43.6202 107.953 41.518 107.953 39.4158C108.479 38.8902 108.741 38.1019 108.741 37.0508C108.741 35.9997 108.741 35.2114 108.741 34.6858C108.741 35.7369 108.741 36.5253 108.741 37.0508ZM108.741 37.0508C108.741 38.1019 108.479 38.8902 107.953 39.4158C107.953 41.518 107.953 43.6202 107.953 45.7224C107.428 49.4013 106.903 53.0801 106.377 56.7589C105.852 64.6422 105.589 72.2627 105.589 79.6204C106.115 79.6204 106.377 79.6204 106.377 79.6204C106.377 72.2627 106.64 64.6422 107.165 56.7589C107.165 53.0801 107.428 49.4013 107.953 45.7224C108.479 43.6202 108.741 41.7808 108.741 40.2041C108.741 39.153 108.741 38.1019 108.741 37.0508C109.267 35.9997 109.529 35.2114 109.529 34.6858C109.529 34.6858 109.267 34.6858 108.741 34.6858C108.741 35.2114 108.741 35.9997 108.741 37.0508ZM108.741 34.6858C109.267 34.6858 109.529 34.6858 109.529 34.6858C99.0228 32.0581 88.5164 29.1676 78.01 26.0143C78.01 26.5398 78.01 26.8026 78.01 26.8026C88.5164 29.4303 98.7601 32.0581 108.741 34.6858ZM68.5543 37.0508C73.2821 28.3792 78.798 26.0143 78.01 26.0143C78.01 26.0143 77.7474 26.277 77.222 26.8026C76.6967 26.8026 76.4341 27.0653 76.4341 27.5909C75.9087 27.5909 75.3834 27.8537 74.8581 28.3792C73.2822 29.9559 70.9182 33.1092 68.5543 37.0508ZM78.01 132.438C77.4847 132.438 76.9594 132.175 76.4341 131.65C76.4341 131.65 76.1714 131.387 75.6461 130.862C74.0701 129.285 71.7062 126.92 69.3423 122.19C64.6144 113.518 60.6745 99.3285 60.6745 79.6204C60.1492 79.6204 59.8865 79.6204 59.8865 79.6204C59.8865 99.3285 63.8264 114.307 68.5543 122.19C73.2821 130.862 78.798 133.227 78.01 133.227C78.01 133.227 78.01 132.964 78.01 132.438ZM78.01 133.227C78.01 133.752 78.01 134.015 78.01 134.015C88.5164 131.387 99.2854 128.759 110.317 126.132C109.792 125.606 109.529 125.343 109.529 125.343C99.0228 127.971 88.5164 130.599 78.01 133.227ZM107.165 103.27C107.165 106.949 107.428 110.628 107.953 114.307C108.479 116.409 108.741 118.248 108.741 119.825C108.741 120.876 108.741 121.927 108.741 122.978C109.267 124.029 109.529 124.818 109.529 125.343C109.529 125.343 109.792 125.606 110.317 126.132C109.792 125.08 109.529 124.029 109.529 122.978C109.529 121.927 109.267 120.876 108.741 119.825C108.741 118.248 108.741 116.409 108.741 114.307C108.216 110.628 107.691 106.949 107.165 103.27ZM107.165 103.27C107.691 106.949 108.216 110.628 108.741 114.307C108.741 116.409 108.741 118.248 108.741 119.825C109.267 120.876 109.529 121.927 109.529 122.978C109.529 124.029 109.792 125.08 110.317 126.132C110.317 125.606 110.317 125.081 110.317 124.555C110.317 124.029 110.054 123.504 109.529 122.978C109.529 121.927 109.529 120.876 109.529 119.825C109.529 118.248 109.267 116.409 108.741 114.307C108.216 110.628 107.953 106.686 107.953 102.482C107.428 95.1241 107.165 87.5037 107.165 79.6204C107.165 79.6204 106.903 79.6204 106.377 79.6204C106.377 87.5037 106.64 95.3869 107.165 103.27ZM108.741 37.0508C108.741 38.1019 108.741 39.153 108.741 40.2041C108.741 41.7808 108.479 43.6202 107.953 45.7224C107.428 49.4013 107.165 53.0801 107.165 56.7589C107.691 53.0801 108.216 49.4013 108.741 45.7224C108.741 43.6202 108.741 41.7808 108.741 40.2041C109.267 39.153 109.529 38.1019 109.529 37.0508C109.529 35.9997 109.792 34.9486 110.317 33.8975C109.792 33.8975 109.529 34.1603 109.529 34.6858C109.529 35.2114 109.267 35.9997 108.741 37.0508ZM109.529 37.0508C109.529 38.1019 109.267 39.153 108.741 40.2041C108.741 41.7808 108.741 43.6202 108.741 45.7224C108.216 49.4013 107.691 53.0801 107.165 56.7589C106.64 64.6422 106.377 72.2627 106.377 79.6204C106.903 79.6204 107.165 79.6204 107.165 79.6204C107.165 72.2627 107.428 64.6422 107.953 56.7589C107.953 53.0801 108.216 49.4013 108.741 45.7224C109.267 43.6202 109.529 41.7808 109.529 40.2041C109.529 39.153 109.529 38.1019 109.529 37.0508C110.054 36.5253 110.317 35.9997 110.317 35.4741C110.317 34.9486 110.317 34.4231 110.317 33.8975C109.792 34.9486 109.529 35.9997 109.529 37.0508ZM109.529 34.6858C109.529 34.1603 109.792 33.8975 110.317 33.8975C99.2854 31.2698 88.5164 28.642 78.01 26.0143C88.5164 29.1676 99.0228 32.0581 109.529 34.6858ZM69.3423 37.8392C71.7062 33.1092 74.0701 30.7442 75.6461 29.1676C76.1714 28.642 76.4341 28.1164 76.4341 27.5909C76.9594 27.5909 77.4847 27.5909 78.01 27.5909C78.01 27.0653 78.01 26.8026 78.01 26.8026C78.01 26.8026 78.01 26.5398 78.01 26.0143C78.798 26.0143 73.2821 28.3792 68.5543 37.0508C63.8264 45.7224 59.8865 60.7006 59.8865 79.6204C59.8865 79.6204 60.1492 79.6204 60.6745 79.6204C60.6745 60.7006 64.6144 45.7224 69.3423 37.8392ZM75.6461 29.1676C76.1714 28.642 76.6967 28.3792 77.222 28.3792C77.222 27.8537 77.4847 27.5909 78.01 27.5909C77.4847 27.5909 76.9594 27.5909 76.4341 27.5909C76.4341 28.1164 76.1714 28.642 75.6461 29.1676ZM78.01 132.438C77.4847 132.438 77.222 132.175 77.222 131.65C76.6967 131.65 76.1714 131.387 75.6461 130.862C74.0701 129.285 71.7062 126.132 69.3423 122.19C71.7062 126.92 74.0701 129.285 75.6461 130.862C76.1714 131.387 76.4341 131.65 76.4341 131.65C76.9594 132.175 77.4847 132.438 78.01 132.438ZM78.01 134.015C78.01 134.015 78.01 134.278 78.01 134.803C89.0417 132.175 100.073 129.285 111.105 126.132C110.58 126.132 110.317 126.132 110.317 126.132C99.2854 128.759 88.5164 131.387 78.01 134.015ZM107.953 102.482C107.953 106.686 108.216 110.628 108.741 114.307C109.267 116.409 109.529 118.248 109.529 119.825C109.529 120.876 109.529 121.927 109.529 122.978C110.054 123.504 110.317 124.029 110.317 124.555C110.317 125.081 110.317 125.606 110.317 126.132C110.317 126.132 110.58 126.132 111.105 126.132C110.58 125.606 110.317 124.818 110.317 123.767C110.317 123.767 110.317 123.504 110.317 122.978C110.317 121.927 110.317 120.876 110.317 119.825C109.792 118.248 109.529 116.409 109.529 114.307C109.004 110.628 108.479 106.686 107.953 102.482C107.953 95.1241 107.691 87.5037 107.165 79.6204C107.165 87.5037 107.428 95.1241 107.953 102.482ZM110.317 35.4741C110.317 35.9997 110.054 36.5253 109.529 37.0508C109.529 38.1019 109.529 39.153 109.529 40.2041C109.529 41.7808 109.267 43.6202 108.741 45.7224C108.216 49.4013 107.953 53.0801 107.953 56.7589C107.428 64.6422 107.165 72.2627 107.165 79.6204C107.691 72.2627 107.953 64.6422 107.953 56.7589C108.479 53.0801 109.004 49.4013 109.529 45.7224C109.529 43.6202 109.792 41.7808 110.317 40.2041C110.317 39.153 110.317 38.1019 110.317 37.0508C110.317 36.5253 110.317 35.9997 110.317 35.4741C110.317 34.9486 110.58 34.1603 111.105 33.1092C110.58 33.6347 110.317 33.8975 110.317 33.8975C110.317 34.4231 110.317 34.9486 110.317 35.4741ZM110.317 33.8975C99.2854 31.2698 88.5164 28.3792 78.01 25.2259C78.01 25.7515 78.01 26.0143 78.01 26.0143C88.5164 28.642 99.2854 31.2698 110.317 33.8975ZM110.317 33.8975C110.317 33.8975 110.58 33.6347 111.105 33.1092C100.073 30.4814 89.0417 27.8537 78.01 25.2259C88.5164 28.3792 99.2854 31.2698 110.317 33.8975ZM77.222 133.227C76.6967 133.227 76.4341 132.964 76.4341 132.438C75.9087 132.438 75.3834 132.175 74.8581 131.65C73.2822 130.073 70.9182 126.92 68.5543 122.978C63.8264 114.307 59.8865 99.3285 59.8865 79.6204C59.3612 79.6204 59.0985 79.6204 59.0985 79.6204C59.0985 99.3285 63.0384 114.307 67.7663 122.978C70.1302 126.92 73.2822 130.073 74.8581 131.65C75.3834 132.175 75.6461 132.701 75.6461 133.227C76.1714 133.227 76.6967 133.489 77.222 134.015C77.7474 134.015 78.01 134.015 78.01 134.015C78.01 134.015 77.7474 133.752 77.222 133.227ZM68.5543 37.0508C70.9182 33.1092 73.2822 29.9559 74.8581 28.3792C75.3834 27.8537 75.9087 27.5909 76.4341 27.5909C76.4341 27.0653 76.6967 26.8026 77.222 26.8026C77.7474 26.277 78.01 26.0143 78.01 26.0143C78.01 26.0143 78.01 25.7515 78.01 25.2259C78.01 25.2259 77.7474 25.4887 77.222 26.0143C76.6967 26.5398 76.1714 26.8026 75.6461 26.8026C75.6461 27.3281 75.3834 27.8537 74.8581 28.3792C73.2822 29.9559 70.1302 32.3209 67.7663 37.0508C63.0384 45.7224 59.0985 59.9123 59.0985 79.6204C59.0985 79.6204 59.3612 79.6204 59.8865 79.6204C59.8865 60.7006 63.8264 45.7224 68.5543 37.0508ZM77.222 134.015C76.6967 133.489 76.1714 133.227 75.6461 133.227C75.6461 132.701 75.3834 132.175 74.8581 131.65C73.2822 130.073 70.1302 126.92 67.7663 122.978C70.1302 127.708 72.4942 130.073 74.8581 132.438C74.8581 132.438 75.1208 132.701 75.6461 133.227C76.1714 133.752 76.4341 134.015 76.4341 134.015C77.4847 134.54 78.01 134.803 78.01 134.803C78.01 134.278 78.01 134.015 78.01 134.015C78.01 134.015 77.7474 134.015 77.222 134.015ZM67.7663 37.0508C70.1302 32.3209 73.2822 29.9559 74.8581 28.3792C75.3834 27.8537 75.6461 27.3281 75.6461 26.8026C76.1714 26.8026 76.6967 26.5398 77.222 26.0143C77.7474 25.4887 78.01 25.2259 78.01 25.2259C78.01 25.2259 77.4847 25.4887 76.4341 26.0143C76.4341 26.0143 76.1714 26.277 75.6461 26.8026C75.1208 26.8026 74.5954 27.0653 74.0701 27.5909C72.4942 29.1675 70.1302 32.3209 67.7663 37.0508Z" fill="url(#paint57_linear_2374_8253)"/>
</g>
<g style="mix-blend-mode:soft-light">
<path fill-rule="evenodd" clip-rule="evenodd" d="M235.605 125.343C235.605 124.818 235.605 124.555 235.605 124.555C236.656 124.029 237.444 123.241 237.969 122.19C239.02 121.664 239.808 120.876 240.333 119.825C240.858 118.774 241.384 117.986 241.909 117.46C244.536 113.256 246.374 109.314 247.425 105.635C249.789 96.9635 250.577 88.2919 250.577 79.6203C250.577 88.2919 249.789 96.9635 247.425 104.847C245.849 109.051 244.01 112.993 241.909 116.672C241.384 117.723 240.858 118.774 240.333 119.825C239.808 120.35 239.02 121.139 237.969 122.19C237.444 122.715 236.656 123.504 235.605 124.555C235.605 124.555 235.343 124.818 234.817 125.343C234.817 125.343 234.555 125.343 234.029 125.343C234.029 125.343 234.555 125.343 235.605 125.343ZM234.817 125.343C235.343 124.818 235.605 124.555 235.605 124.555C236.656 123.504 237.444 122.715 237.969 122.19C239.02 121.139 239.808 120.35 240.333 119.825C240.858 118.774 241.384 117.723 241.909 116.672C244.01 112.993 245.849 109.051 247.425 104.847C249.789 96.9635 250.577 88.2919 250.577 79.6203C250.577 79.6203 250.314 79.6203 249.789 79.6203C249.789 88.2919 249.001 96.9635 246.637 104.847C245.586 109.051 244.01 112.993 241.909 116.672C241.384 117.723 240.596 118.511 239.545 119.037C239.02 120.088 238.495 121.139 237.969 122.19C236.919 122.715 236.131 123.241 235.605 123.767C235.08 124.292 234.817 124.555 234.817 124.555C234.817 124.555 234.555 124.818 234.029 125.343C234.029 125.343 233.767 125.343 233.241 125.343C233.241 125.343 233.241 125.606 233.241 126.132C233.767 125.606 234.029 125.343 234.029 125.343C234.555 125.343 234.817 125.343 234.817 125.343ZM233.241 125.343C233.767 125.343 234.029 125.343 234.029 125.343C234.555 124.818 234.817 124.555 234.817 124.555C234.817 124.555 235.08 124.292 235.605 123.767C236.131 123.241 236.919 122.715 237.969 122.19C238.495 121.139 239.02 120.088 239.545 119.037C240.596 118.511 241.384 117.723 241.909 116.672C244.01 112.993 245.586 109.051 246.637 104.847C245.061 109.051 243.222 112.993 241.121 116.672C240.596 117.723 240.07 118.511 239.545 119.037C239.02 120.088 238.232 120.876 237.181 121.402C236.656 122.453 236.131 123.241 235.605 123.767C234.817 124.555 233.241 125.343 232.453 126.132C232.453 126.132 232.191 126.132 231.665 126.132C232.191 126.132 232.716 126.132 233.241 126.132C233.241 125.606 233.241 125.343 233.241 125.343ZM248.213 123.767C252.941 122.978 256.881 121.402 260.033 118.248C260.033 118.248 259.77 118.248 259.245 118.248C256.093 120.613 252.153 122.978 248.213 123.767ZM264.76 99.3285C264.235 103.007 263.71 106.423 263.185 109.577C262.659 111.153 262.134 112.73 261.609 114.307C261.083 115.358 260.295 116.672 259.245 118.248C259.77 118.248 260.033 118.248 260.033 118.248C260.558 117.197 261.083 115.883 261.609 114.307C262.659 112.73 263.185 111.153 263.185 109.577C264.235 106.423 265.023 103.007 265.548 99.3285C266.074 93.0219 266.336 86.4525 266.336 79.6203C266.336 86.4525 265.811 93.0219 264.76 99.3285ZM263.185 49.664C264.235 52.2917 265.023 54.9195 265.548 57.5472C266.074 63.3283 266.336 69.1093 266.336 74.8904C266.862 69.1093 266.599 63.3283 265.548 57.5472C265.023 54.9195 264.498 52.0289 263.972 48.8756C262.397 46.5107 261.609 44.1457 260.033 41.7807C260.033 41.7807 259.77 41.7807 259.245 41.7807C261.609 44.1457 262.397 46.5107 263.185 49.664ZM248.213 36.2624C252.153 37.0508 256.093 39.4158 259.245 41.7807C259.77 41.7807 260.033 41.7807 260.033 41.7807C256.881 38.6274 252.941 37.0508 248.213 36.2624ZM247.425 54.3939C245.849 50.1895 244.01 46.2479 241.909 42.569C241.384 42.0435 240.858 41.2552 240.333 40.2041C239.808 39.153 239.02 38.3647 237.969 37.8391C237.444 36.788 236.656 35.9997 235.605 35.4741C235.605 35.4741 235.343 35.2113 234.817 34.6858C234.817 34.6858 234.555 34.6858 234.029 34.6858C234.029 34.1602 233.767 33.8975 233.241 33.8975C233.767 34.423 234.029 34.6858 234.029 34.6858C234.555 34.6858 234.817 34.9486 234.817 35.4741C234.817 35.4741 235.08 35.4741 235.605 35.4741C236.131 36.5252 236.919 37.3135 237.969 37.8391C238.495 38.8902 239.02 39.6785 239.545 40.2041C240.596 41.2552 241.384 42.3063 241.909 43.3574C244.01 47.0362 245.586 50.7151 246.637 54.3939C249.001 63.0655 249.789 71.7371 249.789 79.6203C250.314 79.6203 250.577 79.6203 250.577 79.6203C250.577 71.7371 249.789 63.0655 247.425 54.3939ZM246.637 54.3939C245.586 50.7151 244.01 47.0362 241.909 43.3574C241.384 42.3063 240.596 41.2552 239.545 40.2041C239.02 39.6785 238.495 38.8902 237.969 37.8391C236.919 37.3135 236.131 36.5252 235.605 35.4741C235.08 35.4741 234.817 35.4741 234.817 35.4741C234.817 34.9486 234.555 34.6858 234.029 34.6858C234.029 34.6858 233.767 34.423 233.241 33.8975C232.716 33.8975 232.191 33.8975 231.665 33.8975C232.191 33.8975 232.453 33.8975 232.453 33.8975C233.241 34.6858 234.817 35.4741 235.605 36.2624C236.131 36.788 236.656 37.5763 237.181 38.6274C238.232 39.153 239.02 39.9413 239.545 40.9924C240.07 41.5179 240.596 42.3063 241.121 43.3574C243.222 47.0362 245.061 50.9778 246.637 55.1822C249.001 63.0655 249.789 71.7371 249.789 79.6203C249.789 71.7371 249.001 63.0655 246.637 54.3939ZM247.425 54.3939C246.374 50.1895 244.536 46.2479 241.909 42.569C241.384 42.0435 240.858 41.2552 240.333 40.2041C239.808 39.153 239.02 38.3647 237.969 37.8391C237.444 36.788 236.656 35.9997 235.605 35.4741C235.605 34.9486 235.605 34.6858 235.605 34.6858C234.555 34.6858 234.029 34.6858 234.029 34.6858C234.555 34.6858 234.817 34.6858 234.817 34.6858C235.343 35.2113 235.605 35.4741 235.605 35.4741C236.656 35.9997 237.444 36.788 237.969 37.8391C239.02 38.3647 239.808 39.153 240.333 40.2041C240.858 41.2552 241.384 42.0435 241.909 42.569C244.01 46.2479 245.849 50.1895 247.425 54.3939ZM232.453 126.132C233.241 125.343 234.817 124.555 235.605 123.767C236.131 123.241 236.656 122.453 237.181 121.402C238.232 120.876 239.02 120.088 239.545 119.037C240.07 118.511 240.596 117.723 241.121 116.672C243.222 112.993 245.061 109.051 246.637 104.847C249.001 96.9635 249.789 88.2919 249.789 79.6203C249.264 79.6203 249.001 79.6203 249.001 79.6203C249.001 88.2919 248.213 96.9635 245.849 104.847C244.798 109.051 243.222 112.993 241.121 116.672C240.596 117.197 240.07 117.986 239.545 119.037C238.495 119.562 237.707 120.35 237.181 121.402C236.656 121.927 235.868 122.715 234.817 123.767C234.817 123.767 234.555 123.767 234.029 123.767C234.029 124.292 233.767 124.555 233.241 124.555C232.716 125.08 231.928 125.606 230.877 126.132C231.403 126.132 231.665 126.132 231.665 126.132C232.191 126.132 232.453 126.132 232.453 126.132ZM230.877 126.132C231.928 125.606 232.716 125.08 233.241 124.555C233.767 124.555 234.029 124.292 234.029 123.767C234.555 123.767 234.817 123.767 234.817 123.767C235.868 122.715 236.656 121.927 237.181 121.402C237.707 120.35 238.495 119.562 239.545 119.037C240.07 117.986 240.596 117.197 241.121 116.672C243.222 112.993 244.798 109.051 245.849 104.847C244.273 109.051 242.434 112.73 240.333 115.883C239.808 116.934 239.282 117.986 238.757 119.037C238.232 119.562 237.707 120.35 237.181 121.402C236.131 121.927 235.343 122.453 234.817 122.978C234.292 123.504 234.029 123.767 234.029 123.767C233.504 124.292 232.979 124.555 232.453 124.555C231.928 125.08 231.403 125.343 230.877 125.343C230.352 125.869 229.827 126.394 229.301 126.92C229.301 126.92 229.564 126.92 230.089 126.92C230.615 126.394 230.877 126.132 230.877 126.132ZM234.817 125.343C234.292 125.343 233.767 125.606 233.241 126.132C233.767 126.132 234.555 126.132 235.605 126.132C235.605 125.606 235.605 125.343 235.605 125.343C235.08 125.343 234.817 125.343 234.817 125.343ZM248.213 123.767C244.01 124.818 239.808 125.343 235.605 125.343C235.605 125.343 235.605 125.606 235.605 126.132C239.808 126.132 244.01 125.606 248.213 124.555C252.941 122.978 256.881 121.402 260.033 118.248C256.881 121.402 252.941 122.978 248.213 123.767ZM265.548 99.3285C265.023 103.007 264.235 106.423 263.185 109.577C263.185 111.153 262.659 112.73 261.609 114.307C261.083 115.883 260.558 117.197 260.033 118.248C261.083 117.197 261.871 115.883 262.397 114.307C262.922 112.73 263.447 111.153 263.972 109.577C264.498 106.423 265.023 103.007 265.548 99.3285C266.599 93.0219 267.124 86.4525 267.124 79.6203C267.124 79.6203 266.862 79.6203 266.336 79.6203C266.336 86.4525 266.074 93.0219 265.548 99.3285ZM266.336 79.6203C266.862 79.6203 267.124 79.6203 267.124 79.6203C267.124 78.0437 267.124 76.467 267.124 74.8904C267.124 74.8904 266.862 74.8904 266.336 74.8904C266.336 76.467 266.336 78.0437 266.336 79.6203ZM263.972 48.8756C264.498 52.0289 265.023 54.9195 265.548 57.5472C266.599 63.3283 266.862 69.1093 266.336 74.8904C266.862 74.8904 267.124 74.8904 267.124 74.8904C267.124 69.1093 266.862 63.3283 266.336 57.5472C265.811 54.9195 265.023 52.0289 263.972 48.8756C263.184 46.5107 261.609 43.3574 260.033 41.7807C261.609 44.1457 262.397 46.5107 263.972 48.8756ZM248.213 36.2624C252.941 37.0508 256.881 38.6274 260.033 41.7807C256.881 38.6274 252.941 36.2624 248.213 35.4741C244.01 34.423 239.808 33.8975 235.605 33.8975C235.605 33.8975 235.605 34.1602 235.605 34.6858C239.808 34.6858 244.01 35.2113 248.213 36.2624ZM246.637 55.1822C245.061 50.9778 243.222 47.0362 241.121 43.3574C240.596 42.3063 240.07 41.5179 239.545 40.9924C239.02 39.9413 238.232 39.153 237.181 38.6274C236.656 37.5763 236.131 36.788 235.605 36.2624C234.817 35.4741 233.241 34.6858 232.453 33.8975C232.453 33.8975 232.191 33.8975 231.665 33.8975C231.665 33.8975 231.403 33.6347 230.877 33.1091C230.877 33.1091 230.877 33.3719 230.877 33.8975C231.928 34.423 232.716 34.9486 233.241 35.4741C233.767 35.4741 234.029 35.7369 234.029 36.2624C234.555 36.2624 234.817 36.2624 234.817 36.2624C235.868 36.788 236.656 37.5763 237.181 38.6274C237.707 39.153 238.495 39.9413 239.545 40.9924C240.07 42.0435 240.596 42.8318 241.121 43.3574C243.222 47.0362 244.798 50.9778 245.849 55.1822C248.213 63.0655 249.001 71.7371 249.001 79.6203C249.001 79.6203 249.264 79.6203 249.789 79.6203C249.789 71.7371 249.001 63.0655 246.637 55.1822ZM245.849 55.1822C244.798 50.9778 243.222 47.0362 241.121 43.3574C240.596 42.8318 240.07 42.0435 239.545 40.9924C238.495 39.9413 237.707 39.153 237.181 38.6274C236.656 37.5763 235.868 36.788 234.817 36.2624C234.817 36.2624 234.555 36.2624 234.029 36.2624C234.029 35.7369 233.767 35.4741 233.241 35.4741C232.716 34.9486 231.928 34.423 230.877 33.8975C230.877 33.3719 230.877 33.1091 230.877 33.1091C230.877 33.1091 230.615 33.1091 230.089 33.1091C229.564 33.1091 229.301 33.1091 229.301 33.1091C229.827 33.6347 230.352 33.8975 230.877 33.8975C231.403 34.423 231.928 34.9486 232.453 35.4741C232.979 35.4741 233.504 35.7369 234.029 36.2624C234.029 36.2624 234.292 36.5252 234.817 37.0508C235.343 37.5763 236.131 38.1019 237.181 38.6274C237.707 39.6785 238.232 40.4668 238.757 40.9924C239.282 42.0435 239.808 43.0946 240.333 44.1457C242.434 47.299 244.273 50.9778 245.849 55.1822ZM233.241 126.132C232.716 126.132 232.191 126.132 231.665 126.132C233.241 126.132 234.555 126.132 235.605 126.132C234.555 126.132 233.767 126.132 233.241 126.132ZM248.213 124.555C252.941 123.767 256.881 121.402 260.033 119.037C260.033 118.511 260.033 118.248 260.033 118.248C256.881 121.402 252.941 122.978 248.213 124.555ZM260.033 119.037C260.033 118.511 260.033 118.248 260.033 118.248C260.033 118.774 260.033 119.037 260.033 119.037ZM265.548 100.117C265.023 103.27 264.498 106.423 263.972 109.577C263.447 111.153 262.922 112.73 262.397 114.307C263.447 112.73 263.972 111.153 263.972 109.577C265.023 106.423 265.811 103.27 266.336 100.117C266.862 93.2846 267.124 86.4525 267.124 79.6203C267.124 86.4525 266.599 93.2846 265.548 100.117ZM267.124 79.6203C267.124 78.0437 267.387 76.467 267.912 74.8904C267.387 74.8904 267.124 74.8904 267.124 74.8904C267.124 76.467 267.124 78.0437 267.124 79.6203ZM263.972 48.8756C265.023 52.0289 265.811 54.9195 266.336 57.5472C266.862 63.3283 267.124 69.1093 267.124 74.8904C267.124 74.8904 267.387 74.8904 267.912 74.8904C267.912 69.1093 267.387 63.3283 266.336 57.5472C265.811 54.3939 265.286 51.5034 264.76 48.8756C263.185 46.5107 262.397 43.3574 260.033 40.9924C260.033 41.5179 260.033 41.7807 260.033 41.7807C261.609 43.3574 263.184 46.5107 263.972 48.8756ZM260.033 40.9924C260.033 41.5179 260.033 41.7807 260.033 41.7807C260.033 41.2552 260.033 40.9924 260.033 40.9924ZM248.213 35.4741C252.941 36.2624 256.881 38.6274 260.033 41.7807C260.033 41.2552 260.033 40.9924 260.033 40.9924C256.881 37.8391 252.941 36.2624 248.213 35.4741ZM235.605 33.8975C234.555 33.8975 233.241 33.8975 231.665 33.8975C232.191 33.8975 232.716 33.8975 233.241 33.8975C233.767 33.8975 234.555 33.8975 235.605 33.8975ZM235.605 34.6858C235.08 34.6858 234.817 34.6858 234.817 34.6858H234.029C234.029 34.6858 234.555 34.6858 235.605 34.6858ZM235.605 125.343C234.555 125.343 234.029 125.343 234.029 125.343H234.817C234.817 125.343 235.08 125.343 235.605 125.343ZM231.665 126.132C231.665 126.132 231.403 126.132 230.877 126.132C232.453 126.657 234.029 126.92 235.605 126.92C235.605 126.394 235.605 126.132 235.605 126.132C234.555 126.132 233.241 126.132 231.665 126.132ZM248.213 124.555C244.01 125.606 239.808 126.132 235.605 126.132C235.605 126.132 235.605 126.394 235.605 126.92C239.808 126.92 244.273 126.394 249.001 125.343C252.941 123.767 256.881 122.19 260.821 119.037C260.295 119.037 260.033 119.037 260.033 119.037C256.881 121.402 252.941 123.767 248.213 124.555ZM260.033 119.037C260.033 119.037 260.295 119.037 260.821 119.037C260.295 119.037 260.033 118.774 260.033 118.248C260.033 118.774 260.033 119.037 260.033 119.037ZM266.336 100.117C265.811 103.27 265.023 106.423 263.972 109.577C263.972 111.153 263.447 112.73 262.397 114.307C261.871 115.883 261.083 117.197 260.033 118.248C260.033 118.774 260.295 119.037 260.821 119.037C261.871 117.46 262.659 115.883 263.185 114.307C263.71 112.73 264.235 111.153 264.76 109.577C265.286 106.423 265.811 103.27 266.336 100.117C267.387 93.2846 267.912 86.4525 267.912 79.6203C267.912 79.6203 267.65 79.6203 267.124 79.6203C267.124 86.4525 266.862 93.2846 266.336 100.117ZM267.124 79.6203C267.65 79.6203 267.912 79.6203 267.912 79.6203C267.912 78.0437 267.912 76.467 267.912 74.8904C267.387 76.467 267.124 78.0437 267.124 79.6203ZM264.76 48.8756C265.286 51.5034 265.811 54.3939 266.336 57.5472C267.387 63.3283 267.912 69.1093 267.912 74.8904C267.912 69.1093 267.65 63.3283 267.124 57.5472C266.336 54.3939 265.548 52.0289 264.76 48.8756C263.972 45.7223 262.397 43.3574 260.821 40.9924C260.295 40.9924 260.033 40.9924 260.033 40.9924C262.397 43.3574 263.185 46.5107 264.76 48.8756ZM248.213 35.4741C252.941 36.2624 256.881 37.8391 260.033 40.9924C260.033 40.9924 260.295 40.9924 260.821 40.9924C256.881 37.8391 252.941 35.4741 249.001 34.6858C244.273 33.6347 239.808 33.1091 235.605 33.1091C235.605 33.1091 235.605 33.3719 235.605 33.8975C239.808 33.8975 244.01 34.423 248.213 35.4741ZM235.605 33.8975C235.605 33.3719 235.605 33.1091 235.605 33.1091C234.029 33.1091 232.453 33.1091 230.877 33.1091C231.403 33.6347 231.665 33.8975 231.665 33.8975C233.241 33.8975 234.555 33.8975 235.605 33.8975ZM235.605 34.6858C235.605 34.1602 235.605 33.8975 235.605 33.8975C234.555 33.8975 233.767 33.8975 233.241 33.8975C233.767 33.8975 234.292 34.1602 234.817 34.6858C234.817 34.6858 235.08 34.6858 235.605 34.6858ZM234.029 125.343C234.029 125.343 233.767 125.606 233.241 126.132C233.767 125.606 234.292 125.343 234.817 125.343H234.029ZM230.089 126.132C230.089 126.132 229.827 126.394 229.301 126.92C230.877 126.92 232.716 126.92 234.817 126.92C233.241 126.92 231.665 126.657 230.089 126.132ZM248.213 125.343C252.153 124.555 256.881 122.19 260.033 119.037C256.093 122.19 252.153 123.767 248.213 125.343ZM265.548 100.117C265.023 103.27 264.498 106.423 263.972 109.577C263.447 111.153 262.922 112.73 262.397 114.307C261.871 115.883 261.083 117.46 260.033 119.037C261.609 117.46 262.397 115.883 262.397 114.307C263.447 112.73 263.972 111.153 263.972 109.577C265.023 106.423 265.811 103.27 266.336 100.117C266.862 93.2846 267.124 86.4525 267.124 79.6203C267.124 86.4525 266.599 93.2846 265.548 100.117ZM267.124 79.6203C267.65 78.0437 267.912 76.467 267.912 74.8904C267.387 74.8904 267.124 74.8904 267.124 74.8904C267.124 76.467 267.124 78.0437 267.124 79.6203ZM263.972 48.8756C264.76 52.0289 265.548 54.3939 266.336 57.5472C266.862 63.3283 267.124 69.1093 267.124 74.8904C267.124 74.8904 267.387 74.8904 267.912 74.8904C267.912 69.1093 267.387 63.3283 266.336 57.5472C265.548 54.3939 265.548 51.2406 264.76 48.8756C263.185 45.7223 262.397 43.3574 260.033 40.9924C261.609 43.3574 263.184 45.7223 263.972 48.8756ZM248.213 34.6858C252.153 35.4741 256.093 37.8391 260.033 40.9924C256.881 37.0508 252.153 35.4741 248.213 34.6858C243.485 33.1091 239.02 32.5836 234.817 33.1091C239.02 33.1091 243.485 33.6347 248.213 34.6858ZM234.817 33.1091C232.716 33.1091 230.877 33.1091 229.301 33.1091C229.827 33.1091 230.089 33.1091 230.089 33.1091C231.665 33.1091 233.241 33.1091 234.817 33.1091Z" fill="url(#paint58_linear_2374_8253)"/>
</g>
<path d="M242.697 22.0725C237.181 21.2842 202.51 18.9192 195.419 18.9192C154.444 18.9192 115.833 18.9192 89.0414 18.9192L85.8895 22.8609L244.273 115.883L271.065 115.883C275.792 101.693 276.58 79.6203 276.58 79.6203C276.58 79.6203 277.368 50.4522 267.913 37.0507C260.821 26.0141 252.941 22.8609 242.697 22.0725Z" fill="url(#paint59_linear_2374_8253)" style="mix-blend-mode:multiply"/>
<path d="M1.5757 75.679C2.36368 75.679 2.36368 77.2556 2.36368 79.6206C2.36368 81.9856 2.36368 84.3505 1.5757 84.3505C1.5757 84.3505 0.78772 81.9856 0.78772 79.6206C0.78772 77.2556 1.5757 75.679 1.5757 75.679Z" fill="url(#paint60_linear_2374_8253)"/>
<path d="M1.57591 82.7734L2.36389 80.4084L2.36389 79.6201L1.57591 77.2551L0.787933 78.0435L2.36389 79.6201L0.787933 81.1968L1.57591 82.7734Z" fill="url(#paint61_linear_2374_8253)"/>
<path d="M248.213 134.803C248.213 134.803 252.941 131.65 260.033 124.555C269.489 115.095 273.428 109.577 273.428 109.577C273.428 109.577 271.064 121.402 262.397 130.073C255.305 136.38 248.213 134.803 248.213 134.803Z" fill="url(#paint62_linear_2374_8253)"/>
<path d="M249.001 134.803C249.001 134.803 253.729 131.65 260.821 124.555C270.277 115.095 272.641 110.365 272.641 110.365C272.641 110.365 272.641 121.402 263.185 130.073C256.093 136.38 249.001 134.803 249.001 134.803Z" fill="url(#paint63_linear_2374_8253)"/>
<path d="M249.001 25.2257C249.001 25.2257 253.729 29.1673 260.033 34.6856C269.489 44.1455 273.429 50.4521 273.429 50.4521C273.429 50.4521 271.853 38.6272 262.397 29.9557C256.093 22.8607 249.001 25.2257 249.001 25.2257Z" fill="url(#paint64_linear_2374_8253)"/>
<path d="M249.789 24.4379C249.789 24.4379 254.517 28.3795 261.609 34.6861C271.065 43.3577 273.429 48.8759 273.429 48.8759C273.429 48.8759 272.641 38.6277 263.973 29.1678C257.669 22.8612 249.789 24.4379 249.789 24.4379Z" fill="url(#paint65_linear_2374_8253)"/>
<path d="M249.001 134.803C249.001 134.803 253.729 131.65 260.821 124.555C270.277 115.095 272.641 110.365 272.641 110.365C272.641 110.365 272.641 121.402 263.185 130.073C256.093 136.38 249.001 134.803 249.001 134.803Z" fill="url(#paint66_linear_2374_8253)" style="mix-blend-mode:overlay"/>
<path d="M249.789 24.4379C249.789 24.4379 254.517 28.3795 261.609 34.6861C271.065 43.3577 273.429 48.8759 273.429 48.8759C273.429 48.8759 272.641 38.6277 263.973 29.1678C257.669 22.8612 249.789 24.4379 249.789 24.4379Z" fill="url(#paint67_linear_2374_8253)" style="mix-blend-mode:overlay"/>
<path fill-rule="evenodd" clip-rule="evenodd" d="M117.409 127.708C127.652 126.92 163.111 126.92 163.111 126.92L157.596 137.168L80.3737 136.38C80.3737 136.38 107.165 128.496 117.409 127.708ZM157.596 136.38L162.324 127.708C156.808 127.708 126.864 126.92 117.409 127.708C109.529 129.285 90.6174 134.015 83.5256 136.38L157.596 136.38Z" fill="url(#paint68_linear_2374_8253)"/>
<path fill-rule="evenodd" clip-rule="evenodd" d="M169.415 126.92L222.21 127.709L189.903 136.38L167.051 137.168L169.415 126.92ZM189.903 135.592L219.058 127.709L170.203 126.92L167.839 135.592H189.903Z" fill="url(#paint69_linear_2374_8253)"/>
<path fill-rule="evenodd" clip-rule="evenodd" d="M157.596 22.8611L163.112 33.1093C163.112 33.1093 127.652 33.1093 117.409 32.321C107.165 31.5327 80.3737 22.8611 80.3737 22.8611L157.596 22.8611ZM117.409 32.321C126.077 33.1093 156.808 32.321 161.536 32.321L156.808 23.6494L82.7377 23.6494C90.6175 26.0144 109.529 30.7444 117.409 32.321Z" fill="url(#paint70_linear_2374_8253)"/>
<path fill-rule="evenodd" clip-rule="evenodd" d="M189.903 22.8608L222.21 31.5324L169.415 32.3208L167.052 22.8608L189.903 22.8608ZM169.415 32.3208L219.058 31.5324L189.903 23.6492L167.839 23.6492L169.415 32.3208Z" fill="url(#paint71_linear_2374_8253)"/>
<path d="M263.185 126.132C269.489 119.825 272.641 110.365 272.641 110.365C272.641 110.365 270.277 115.095 260.821 124.555C253.729 131.65 249.001 134.803 249.001 134.803C249.001 134.803 256.881 133.227 263.185 126.132Z" fill="url(#paint72_linear_2374_8253)" style="mix-blend-mode:overlay"/>
<path d="M264.761 33.8978C271.065 40.2044 273.429 48.8759 273.429 48.8759C273.429 48.8759 271.065 44.9343 260.821 34.6861C254.517 28.3795 249.789 24.4379 249.789 24.4379C249.789 24.4379 258.457 26.8028 264.761 33.8978Z" fill="url(#paint73_linear_2374_8253)" style="mix-blend-mode:overlay"/>
<path d="M126.864 139.533V140.321C127.39 141.373 130.016 141.635 134.744 141.11C138.684 141.11 144.2 140.321 144.2 139.533H138.684C138.684 139.533 136.32 140.321 134.744 140.321C132.38 140.321 130.016 140.321 130.016 140.321V139.533H126.864Z" fill="url(#paint74_linear_2374_8253)"/>
<path d="M126.864 20.4953C127.39 19.4442 130.016 18.9187 134.744 18.9187C138.684 18.9187 144.2 19.707 144.2 20.4953C144.2 21.0209 144.2 21.2837 144.2 21.2837H138.684V20.4953C138.684 20.4953 136.32 19.707 134.744 19.707C132.38 19.707 130.016 20.4953 130.016 20.4953H126.864Z" fill="url(#paint75_linear_2374_8253)"/>
<path d="M130.016 20.4956C130.016 20.4956 132.38 19.7072 134.744 19.7072C137.108 19.7072 138.684 20.4956 138.684 20.4956C138.684 20.4956 137.108 20.4956 134.744 20.4956C131.592 20.4956 130.016 20.4956 130.016 20.4956Z" fill="#0A1C36"/>
<path d="M171.779 139.533L172.567 140.321C173.092 141.373 175.719 141.635 180.447 141.11C184.387 141.11 189.115 140.321 189.903 139.533H184.387C184.387 139.533 182.023 140.321 179.659 140.321C178.083 140.321 175.719 140.321 175.719 140.321V139.533H171.779Z" fill="url(#paint76_linear_2374_8253)"/>
<path d="M170.992 20.4958C172.042 19.4447 174.669 18.9192 178.871 18.9192C183.599 18.9192 188.327 19.7075 189.115 20.4958C189.115 21.0214 189.115 21.2841 189.115 21.2841H183.599L182.811 20.4958C182.811 20.4958 181.235 19.7075 178.871 19.7075C176.507 19.7075 174.931 20.4958 174.931 20.4958H170.992Z" fill="url(#paint77_linear_2374_8253)"/>
<path d="M174.931 20.4956C174.931 20.4956 176.507 19.7072 178.871 19.7072C181.235 19.7072 182.811 20.4956 182.811 20.4956C182.811 20.4956 182.023 20.4956 178.871 20.4956C176.507 20.4956 174.931 20.4956 174.931 20.4956Z" fill="#0A1C36"/>
<path d="M59.8861 107.211L59.0981 94.5977H59.8861V107.211Z" fill="url(#paint78_linear_2374_8253)"/>
<path d="M63.8263 112.729C63.8263 113.255 63.8263 113.518 63.8263 113.518C63.301 113.518 63.0383 113.255 63.0383 112.729C63.0383 112.729 59.8864 103.269 59.0984 94.5977C58.3104 85.1378 58.3104 76.4662 58.3104 76.4662C58.3104 76.4662 58.5731 76.4662 59.0984 76.4662C59.0984 76.4662 59.0984 85.1378 59.8864 94.5977C60.6744 103.269 63.8263 112.729 63.8263 112.729Z" fill="url(#paint79_linear_2374_8253)"/>
<path d="M59.8865 93.0215V96.1748H59.0985V93.0215H59.8865Z" fill="url(#paint80_linear_2374_8253)"/>
<path d="M61.4622 117.459L59.8862 106.423V111.153L61.4622 117.459Z" fill="#231E22"/>
<path d="M63.0385 50.4524L59.0986 62.2773H58.3106L62.2505 50.4524H63.0385Z" fill="url(#paint81_linear_2374_8253)"/>
<path d="M69.3423 33.8979C69.3423 34.6862 66.1904 41.7811 63.0385 51.241C61.4625 59.1243 59.8866 70.1609 59.8866 70.1609C59.8866 70.6864 59.8866 70.9492 59.8866 70.9492C59.3612 70.4236 59.0986 70.1609 59.0986 70.1609C59.0986 70.1609 59.8866 59.1243 62.2505 50.4527C65.4024 41.7811 68.5543 33.8979 68.5543 33.8979C69.0796 33.8979 69.3423 33.8979 69.3423 33.8979Z" fill="url(#paint82_linear_2374_8253)"/>
<path d="M63.8263 49.6641L63.0384 52.8173L62.2504 52.029L63.0384 48.8757L63.8263 49.6641Z" fill="url(#paint83_linear_2374_8253)"/>
<path d="M56.7345 72.5254L59.0984 62.2771L58.3104 61.4888L56.7345 66.2188V72.5254Z" fill="#231E22"/>
<path d="M66.9781 128.497C65.9275 127.971 65.1395 127.183 64.6142 126.132C64.0888 124.555 63.5635 123.241 63.0382 122.19C61.4622 117.986 60.1489 113.518 59.0983 108.788C56.7344 99.3285 55.9464 89.8686 55.9464 80.4087C55.9464 70.4233 56.997 60.7006 59.0983 51.2407C61.4622 41.7808 64.6142 33.1092 70.918 25.2259C67.7661 29.1676 66.1901 33.1092 63.8262 37.8392C62.2502 42.0436 60.9369 46.5107 59.8863 51.2407C57.785 60.7006 56.7344 70.4233 56.7344 80.4087C56.7344 89.8686 56.7344 99.3285 59.0983 108.788C60.1489 113.518 61.7249 117.986 63.8262 122.19C64.3515 123.241 64.8768 124.292 65.4021 125.343C65.9275 126.394 66.4528 127.445 66.9781 128.497Z" fill="white"/>
<defs>
<linearGradient id="paint0_linear_2374_8253" x1="54.1739" y1="16.523" x2="54.1739" y2="43.9962" gradientUnits="userSpaceOnUse">
<stop offset="0.005" stop-color="#C0C0BF"/>
<stop offset="0.033" stop-color="#E2E5E4"/>
<stop offset="0.908" stop-color="#D2D2D1"/>
<stop offset="0.981" stop-color="#B4B7B3"/>
<stop offset="0.992" stop-color="#ADB1AD"/>
</linearGradient>
<linearGradient id="paint1_linear_2374_8253" x1="105.432" y1="12.3213" x2="77.2618" y2="12.3213" gradientUnits="userSpaceOnUse">
<stop stop-color="#808080"/>
<stop offset="1" stop-color="white"/>
</linearGradient>
<radialGradient id="paint2_radial_2374_8253" cx="0" cy="0" r="1" gradientTransform="matrix(0.0866776 -3.35826 3.35679 0.0867156 80.8155 20.0788)" gradientUnits="userSpaceOnUse">
<stop stop-color="#F2F4F3"/>
<stop offset="1" stop-color="#808080"/>
</radialGradient>
<linearGradient id="paint3_linear_2374_8253" x1="54.3473" y1="26.9687" x2="54.3473" y2="20.0788" gradientUnits="userSpaceOnUse">
<stop offset="0.496" stop-color="#ACACAC"/>
<stop offset="1" stop-color="white"/>
</linearGradient>
<linearGradient id="paint4_linear_2374_8253" x1="54.174" y1="143.365" x2="54.174" y2="115.892" gradientUnits="userSpaceOnUse">
<stop offset="0.005" stop-color="#C0C0BF"/>
<stop offset="0.033" stop-color="#E2E5E4"/>
<stop offset="0.908" stop-color="#D2D2D1"/>
<stop offset="0.981" stop-color="#B4B7B3"/>
<stop offset="0.992" stop-color="#ADB1AD"/>
</linearGradient>
<linearGradient id="paint5_linear_2374_8253" x1="105.432" y1="147.574" x2="77.2619" y2="147.574" gradientUnits="userSpaceOnUse">
<stop stop-color="#808080"/>
<stop offset="1" stop-color="white"/>
</linearGradient>
<radialGradient id="paint6_radial_2374_8253" cx="0" cy="0" r="1" gradientTransform="matrix(-0.0787979 -3.35826 3.35679 -0.0788325 79.7913 139.707)" gradientUnits="userSpaceOnUse">
<stop stop-color="#F2F4F3"/>
<stop offset="1" stop-color="#808080"/>
</radialGradient>
<linearGradient id="paint7_linear_2374_8253" x1="199.721" y1="16.5235" x2="199.721" y2="43.9967" gradientUnits="userSpaceOnUse">
<stop offset="0.005" stop-color="#C0C0BF"/>
<stop offset="0.033" stop-color="#E2E5E4"/>
<stop offset="0.908" stop-color="#D2D2D1"/>
<stop offset="0.981" stop-color="#B4B7B3"/>
<stop offset="0.992" stop-color="#ADB1AD"/>
</linearGradient>
<linearGradient id="paint8_linear_2374_8253" x1="250.971" y1="12.3217" x2="222.801" y2="12.3217" gradientUnits="userSpaceOnUse">
<stop stop-color="#808080"/>
<stop offset="1" stop-color="white"/>
</linearGradient>
<radialGradient id="paint9_radial_2374_8253" cx="0" cy="0" r="1" gradientTransform="matrix(0.0866776 -3.35826 3.35679 0.0867156 226.355 20.0792)" gradientUnits="userSpaceOnUse">
<stop stop-color="#F2F4F3"/>
<stop offset="1" stop-color="#808080"/>
</radialGradient>
<linearGradient id="paint10_linear_2374_8253" x1="199.886" y1="26.9687" x2="199.886" y2="20.0788" gradientUnits="userSpaceOnUse">
<stop offset="0.496" stop-color="#ACACAC"/>
<stop offset="1" stop-color="white"/>
</linearGradient>
<linearGradient id="paint11_linear_2374_8253" x1="199.721" y1="143.365" x2="199.721" y2="115.892" gradientUnits="userSpaceOnUse">
<stop offset="0.005" stop-color="#C0C0BF"/>
<stop offset="0.033" stop-color="#E2E5E4"/>
<stop offset="0.908" stop-color="#D2D2D1"/>
<stop offset="0.981" stop-color="#B4B7B3"/>
<stop offset="0.992" stop-color="#ADB1AD"/>
</linearGradient>
<linearGradient id="paint12_linear_2374_8253" x1="250.971" y1="147.575" x2="222.801" y2="147.575" gradientUnits="userSpaceOnUse">
<stop stop-color="#808080"/>
<stop offset="1" stop-color="white"/>
</linearGradient>
<radialGradient id="paint13_radial_2374_8253" cx="0" cy="0" r="1" gradientTransform="matrix(-0.0787979 -3.35826 3.35679 -0.0788325 225.33 139.707)" gradientUnits="userSpaceOnUse">
<stop stop-color="#F2F4F3"/>
<stop offset="1" stop-color="#808080"/>
</radialGradient>
<linearGradient id="paint14_linear_2374_8253" x1="0.236441" y1="141.031" x2="0.236441" y2="18.8563" gradientUnits="userSpaceOnUse">
<stop offset="0.005" stop-color="#C0C0BF"/>
<stop offset="0.159" stop-color="#E2E5E4"/>
<stop offset="0.908" stop-color="#D2D2D1"/>
<stop offset="0.981" stop-color="#B4B7B3"/>
<stop offset="0.992" stop-color="#ADB1AD"/>
</linearGradient>
<linearGradient id="paint15_linear_2374_8253" x1="10.5671" y1="108.914" x2="18.2104" y2="109.053" gradientUnits="userSpaceOnUse">
<stop stop-color="#535350"/>
<stop offset="0.995" stop-color="#8C8C89"/>
</linearGradient>
<linearGradient id="paint16_linear_2374_8253" x1="21.2759" y1="144.704" x2="-2.51369" y2="121.079" gradientUnits="userSpaceOnUse">
<stop stop-color="#5A5A57"/>
<stop offset="0.995" stop-color="#D9D9D8"/>
</linearGradient>
<linearGradient id="paint17_linear_2374_8253" x1="8.7549" y1="121.276" x2="8.7549" y2="111.532" gradientUnits="userSpaceOnUse">
<stop stop-color="#F2F4F3"/>
<stop offset="0.397" stop-color="#DCDCDB"/>
<stop offset="1" stop-color="#808080"/>
</linearGradient>
<linearGradient id="paint18_linear_2374_8253" x1="10.5673" y1="50.9724" x2="18.2106" y2="50.8342" gradientUnits="userSpaceOnUse">
<stop stop-color="#535350"/>
<stop offset="0.995" stop-color="#8C8C89"/>
</linearGradient>
<linearGradient id="paint19_linear_2374_8253" x1="21.2757" y1="15.1824" x2="-2.51386" y2="38.8079" gradientUnits="userSpaceOnUse">
<stop stop-color="#5A5A57"/>
<stop offset="0.995" stop-color="#D9D9D8"/>
</linearGradient>
<linearGradient id="paint20_linear_2374_8253" x1="8.75507" y1="38.6113" x2="8.75507" y2="48.3551" gradientUnits="userSpaceOnUse">
<stop stop-color="#F2F4F3"/>
<stop offset="0.397" stop-color="#DCDCDB"/>
<stop offset="1" stop-color="#808080"/>
</linearGradient>
<radialGradient id="paint21_radial_2374_8253" cx="0" cy="0" r="1" gradientTransform="matrix(1.37108 -0.788326 0.787978 1.37169 13.4822 119.651)" gradientUnits="userSpaceOnUse">
<stop stop-color="#F2F4F3"/>
<stop offset="1" stop-color="#808080"/>
</radialGradient>
<linearGradient id="paint22_linear_2374_8253" x1="18.0207" y1="115.796" x2="17.7601" y2="115.945" gradientUnits="userSpaceOnUse">
<stop stop-color="white"/>
<stop offset="1" stop-color="#717071"/>
</linearGradient>
<linearGradient id="paint23_linear_2374_8253" x1="276.415" y1="88.1814" x2="231.91" y2="88.1814" gradientUnits="userSpaceOnUse">
<stop stop-color="#A2A2A2"/>
<stop offset="0.512" stop-color="white"/>
</linearGradient>
<linearGradient id="paint24_linear_2374_8253" x1="95.8262" y1="126.029" x2="95.8262" y2="33.8583" gradientUnits="userSpaceOnUse">
<stop offset="0.005" stop-color="#C0C0BF"/>
<stop offset="0.033" stop-color="#E2E5E4"/>
<stop offset="0.908" stop-color="#D2D2D1"/>
<stop offset="0.981" stop-color="#B4B7B3"/>
<stop offset="0.992" stop-color="#ADB1AD"/>
</linearGradient>
<linearGradient id="paint25_linear_2374_8253" x1="103.06" y1="129.253" x2="103.06" y2="74.7168" gradientUnits="userSpaceOnUse">
<stop stop-color="white"/>
<stop offset="0.658" stop-color="#DCDCDB"/>
<stop offset="0.825" stop-color="#808780"/>
</linearGradient>
<linearGradient id="paint26_linear_2374_8253" x1="83.928" y1="140.857" x2="87.4796" y2="134.964" gradientUnits="userSpaceOnUse">
<stop stop-color="#242424"/>
<stop offset="1" stop-color="#010101"/>
</linearGradient>
<linearGradient id="paint27_linear_2374_8253" x1="83.3606" y1="150.459" x2="91.6384" y2="137.959" gradientUnits="userSpaceOnUse">
<stop offset="0.005" stop-color="#C0C0BF"/>
<stop offset="0.295" stop-color="#EDEFEE"/>
<stop offset="1" stop-color="#ADB1AD"/>
</linearGradient>
<linearGradient id="paint28_linear_2374_8253" x1="95.6846" y1="154.196" x2="95.6846" y2="140.976" gradientUnits="userSpaceOnUse">
<stop stop-color="#5A5A57"/>
<stop offset="0.995" stop-color="#D9D9D8"/>
</linearGradient>
<linearGradient id="paint29_linear_2374_8253" x1="83.9277" y1="18.9271" x2="87.4793" y2="24.8203" gradientUnits="userSpaceOnUse">
<stop stop-color="#242424"/>
<stop offset="1" stop-color="#010101"/>
</linearGradient>
<linearGradient id="paint30_linear_2374_8253" x1="83.3603" y1="9.32498" x2="91.6381" y2="21.8252" gradientUnits="userSpaceOnUse">
<stop offset="0.005" stop-color="#C0C0BF"/>
<stop offset="0.295" stop-color="#EDEFEE"/>
<stop offset="1" stop-color="#ADB1AD"/>
</linearGradient>
<linearGradient id="paint31_linear_2374_8253" x1="95.6844" y1="5.59669" x2="95.6844" y2="18.8169" gradientUnits="userSpaceOnUse">
<stop stop-color="#5A5A57"/>
<stop offset="0.995" stop-color="#D9D9D8"/>
</linearGradient>
<linearGradient id="paint32_linear_2374_8253" x1="80.0664" y1="136.814" x2="80.0664" y2="126.897" gradientUnits="userSpaceOnUse">
<stop stop-color="#404040"/>
<stop offset="1" stop-color="#010101"/>
</linearGradient>
<linearGradient id="paint33_linear_2374_8253" x1="167.162" y1="136.9" x2="167.162" y2="127.211" gradientUnits="userSpaceOnUse">
<stop stop-color="#404040"/>
<stop offset="1" stop-color="#010101"/>
</linearGradient>
<linearGradient id="paint34_linear_2374_8253" x1="0.23644" y1="134.59" x2="0.23644" y2="25.3048" gradientUnits="userSpaceOnUse">
<stop offset="0.005" stop-color="#CACAC9"/>
<stop offset="0.033" stop-color="#F2F4F3"/>
<stop offset="0.9" stop-color="#DCDCDB"/>
<stop offset="1" stop-color="#CFD2CF"/>
</linearGradient>
<linearGradient id="paint35_linear_2374_8253" x1="80.066" y1="32.9906" x2="80.066" y2="23.0735" gradientUnits="userSpaceOnUse">
<stop stop-color="#010101"/>
<stop offset="1" stop-color="#404040"/>
</linearGradient>
<linearGradient id="paint36_linear_2374_8253" x1="167.161" y1="32.676" x2="167.161" y2="22.9875" gradientUnits="userSpaceOnUse">
<stop stop-color="#010101"/>
<stop offset="1" stop-color="#404040"/>
</linearGradient>
<linearGradient id="paint37_linear_2374_8253" x1="232.382" y1="126.148" x2="232.382" y2="33.7402" gradientUnits="userSpaceOnUse">
<stop stop-color="#242424"/>
<stop offset="1" stop-color="#010101"/>
</linearGradient>
<linearGradient id="paint38_linear_2374_8253" x1="59.7053" y1="133.778" x2="59.7053" y2="26.1008" gradientUnits="userSpaceOnUse">
<stop stop-color="#242424"/>
<stop offset="1" stop-color="#010101"/>
</linearGradient>
<radialGradient id="paint39_radial_2374_8253" cx="0" cy="0" r="1" gradientUnits="userSpaceOnUse" gradientTransform="translate(147.029 139.762) rotate(-90) scale(0.591258 0.590984)">
<stop stop-color="#B2B2B2"/>
<stop offset="1" stop-color="white"/>
</radialGradient>
<linearGradient id="paint40_linear_2374_8253" x1="-3.30951" y1="75.6708" x2="-11.2488" y2="21.8209" gradientUnits="userSpaceOnUse">
<stop stop-color="white"/>
<stop offset="1" stop-color="#ECECEC"/>
</linearGradient>
<radialGradient id="paint41_radial_2374_8253" cx="0" cy="0" r="1" gradientTransform="matrix(0.102437 -2.92469 2.9234 0.102482 61.9979 136.671)" gradientUnits="userSpaceOnUse">
<stop stop-color="#F2F4F3"/>
<stop offset="1" stop-color="#808080"/>
</radialGradient>
<linearGradient id="paint42_linear_2374_8253" x1="59.7049" y1="133.778" x2="59.7049" y2="77.7124" gradientUnits="userSpaceOnUse">
<stop stop-color="#F2F4F3"/>
<stop offset="0.508" stop-color="#DCDCDB"/>
<stop offset="1" stop-color="#808080"/>
</linearGradient>
<radialGradient id="paint43_radial_2374_8253" cx="0" cy="0" r="1" gradientTransform="matrix(-0.330951 -1.24555 1.24501 -0.331097 93.2967 130.948)" gradientUnits="userSpaceOnUse">
<stop stop-color="#F2F4F3"/>
<stop offset="1" stop-color="#808080"/>
</radialGradient>
<radialGradient id="paint44_radial_2374_8253" cx="0" cy="0" r="1" gradientUnits="userSpaceOnUse" gradientTransform="translate(134.697 138.106) rotate(-90) scale(1.29285 1.29228)">
<stop stop-color="#F2F4F3"/>
<stop offset="1" stop-color="#808080"/>
</radialGradient>
<radialGradient id="paint45_radial_2374_8253" cx="0" cy="0" r="1" gradientUnits="userSpaceOnUse" gradientTransform="translate(134.697 19.873) rotate(-90) scale(1.29285 1.29228)">
<stop stop-color="#B2B2B2"/>
<stop offset="1" stop-color="white"/>
</radialGradient>
<radialGradient id="paint46_radial_2374_8253" cx="0" cy="0" r="1" gradientUnits="userSpaceOnUse" gradientTransform="translate(134.697 21.4418) rotate(-90) scale(1.29285 1.29228)">
<stop stop-color="#F2F4F3"/>
<stop offset="1" stop-color="#808080"/>
</radialGradient>
<radialGradient id="paint47_radial_2374_8253" cx="0" cy="0" r="1" gradientTransform="matrix(0.35459 -1.24555 1.24501 0.354746 93.5962 28.679)" gradientUnits="userSpaceOnUse">
<stop stop-color="#F2F4F3"/>
<stop offset="1" stop-color="#808080"/>
</radialGradient>
<radialGradient id="paint48_radial_2374_8253" cx="0" cy="0" r="1" gradientTransform="matrix(1.54444 -8.06457 8.06102 1.54512 91.9022 29.6881)" gradientUnits="userSpaceOnUse">
<stop stop-color="#F2F4F3"/>
<stop offset="1" stop-color="#808080"/>
</radialGradient>
<radialGradient id="paint49_radial_2374_8253" cx="0" cy="0" r="1" gradientTransform="matrix(19.9043 -0.551828 0.551585 19.9131 49.1861 86.8888)" gradientUnits="userSpaceOnUse">
<stop stop-color="#F2F4F3"/>
<stop offset="1" stop-color="#808080"/>
</radialGradient>
<radialGradient id="paint50_radial_2374_8253" cx="0" cy="0" r="1" gradientTransform="matrix(-6.68994 -40.6855 40.6676 -6.69288 105.463 125.635)" gradientUnits="userSpaceOnUse">
<stop stop-color="#F2F4F3"/>
<stop offset="1" stop-color="#808080"/>
</radialGradient>
<linearGradient id="paint51_linear_2374_8253" x1="41.2662" y1="208.346" x2="-25.3725" y2="181.463" gradientUnits="userSpaceOnUse">
<stop offset="0.008" stop-color="#ADB1AD"/>
<stop offset="0.055" stop-color="#B4B7B3"/>
<stop offset="0.479" stop-color="white"/>
<stop offset="0.876" stop-color="#B4B7B3"/>
<stop offset="1" stop-color="#F2F2F2"/>
</linearGradient>
<linearGradient id="paint52_linear_2374_8253" x1="41.2663" y1="-48.4589" x2="-25.3725" y2="-21.5754" gradientUnits="userSpaceOnUse">
<stop offset="0.008" stop-color="#ADB1AD"/>
<stop offset="0.019" stop-color="#B4B7B3"/>
<stop offset="0.092" stop-color="#D2D2D1"/>
<stop offset="1" stop-color="white"/>
</linearGradient>
<radialGradient id="paint53_radial_2374_8253" cx="0" cy="0" r="1" gradientTransform="matrix(1.82023 -5.39215 5.38977 1.82103 37.3658 116.404)" gradientUnits="userSpaceOnUse">
<stop stop-color="#F2F4F3"/>
<stop offset="1" stop-color="#808080"/>
</radialGradient>
<radialGradient id="paint54_radial_2374_8253" cx="0" cy="0" r="1" gradientTransform="matrix(-0.496427 -5.25814 5.25582 -0.496646 232.383 127.211)" gradientUnits="userSpaceOnUse">
<stop stop-color="#F2F4F3"/>
<stop offset="1" stop-color="#808080"/>
</radialGradient>
<radialGradient id="paint55_radial_2374_8253" cx="0" cy="0" r="1" gradientTransform="matrix(0.441268 -5.26602 5.2637 0.441463 228.545 32.6759)" gradientUnits="userSpaceOnUse">
<stop stop-color="#F2F4F3"/>
<stop offset="1" stop-color="#808080"/>
</radialGradient>
<linearGradient id="paint56_linear_2374_8253" x1="232.383" y1="126.147" x2="232.383" y2="77.342" gradientUnits="userSpaceOnUse">
<stop stop-color="#808080"/>
<stop offset="0.492" stop-color="#DCDCDB"/>
<stop offset="1" stop-color="#F2F4F3"/>
</linearGradient>
<linearGradient id="paint57_linear_2374_8253" x1="60.6587" y1="79.9436" x2="60.3751" y2="79.9436" gradientUnits="userSpaceOnUse">
<stop/>
<stop offset="1" stop-color="white"/>
</linearGradient>
<linearGradient id="paint58_linear_2374_8253" x1="250.656" y1="79.9436" x2="250.372" y2="79.9436" gradientUnits="userSpaceOnUse">
<stop/>
<stop offset="1" stop-color="white"/>
</linearGradient>
<linearGradient id="paint59_linear_2374_8253" x1="383.375" y1="89.4349" x2="290.211" y2="233.22" gradientUnits="userSpaceOnUse">
<stop stop-color="#A2A2A2"/>
<stop offset="0.512" stop-color="white"/>
</linearGradient>
<linearGradient id="paint60_linear_2374_8253" x1="1.11079" y1="84.2086" x2="1.11079" y2="75.679" gradientUnits="userSpaceOnUse">
<stop stop-color="#242424"/>
<stop offset="1" stop-color="#010101"/>
</linearGradient>
<linearGradient id="paint61_linear_2374_8253" x1="1.16616" y1="82.6946" x2="1.16616" y2="77.1842" gradientUnits="userSpaceOnUse">
<stop stop-color="#9C9C9A"/>
<stop offset="0.061" stop-color="#515148"/>
<stop offset="0.226" stop-color="#B7BBB7"/>
<stop offset="0.719" stop-color="#9C9C9A"/>
<stop offset="0.843" stop-color="#E5E5E4"/>
<stop offset="0.995" stop-color="#9C9C9A"/>
</linearGradient>
<linearGradient id="paint62_linear_2374_8253" x1="248.26" y1="135.095" x2="248.26" y2="109.317" gradientUnits="userSpaceOnUse">
<stop offset="0.005" stop-color="#9C9C9A"/>
<stop offset="0.157" stop-color="#E5E5E4"/>
<stop offset="0.281" stop-color="#9C9C9A"/>
<stop offset="0.774" stop-color="#B7BBB7"/>
<stop offset="0.939" stop-color="#515148"/>
<stop offset="1" stop-color="#9C9C9A"/>
</linearGradient>
<linearGradient id="paint63_linear_2374_8253" x1="249.112" y1="135.095" x2="249.112" y2="110.302" gradientUnits="userSpaceOnUse">
<stop stop-color="#E00000"/>
<stop offset="1" stop-color="#830000"/>
</linearGradient>
<linearGradient id="paint64_linear_2374_8253" x1="248.67" y1="50.5782" x2="248.67" y2="24.7369" gradientUnits="userSpaceOnUse">
<stop offset="0.005" stop-color="#9C9C9A"/>
<stop offset="0.157" stop-color="#E5E5E4"/>
<stop offset="0.281" stop-color="#9C9C9A"/>
<stop offset="0.774" stop-color="#B7BBB7"/>
<stop offset="0.939" stop-color="#515148"/>
<stop offset="1" stop-color="#9C9C9A"/>
</linearGradient>
<linearGradient id="paint65_linear_2374_8253" x1="249.632" y1="48.8365" x2="249.632" y2="24.5561" gradientUnits="userSpaceOnUse">
<stop stop-color="#E00000"/>
<stop offset="1" stop-color="#830000"/>
</linearGradient>
<linearGradient id="paint66_linear_2374_8253" x1="261.12" y1="145.335" x2="243.832" y2="129.207" gradientUnits="userSpaceOnUse">
<stop stop-color="#F2F4F3"/>
<stop offset="1" stop-color="#808080"/>
</linearGradient>
<linearGradient id="paint67_linear_2374_8253" x1="285.138" y1="38.0601" x2="267.26" y2="52.9512" gradientUnits="userSpaceOnUse">
<stop stop-color="#F2F4F3"/>
<stop offset="1" stop-color="#808080"/>
</linearGradient>
<linearGradient id="paint68_linear_2374_8253" x1="80.0664" y1="136.813" x2="80.0664" y2="126.896" gradientUnits="userSpaceOnUse">
<stop stop-color="#2D2721"/>
<stop offset="0.398" stop-color="#8A8A83"/>
<stop offset="0.995" stop-color="#9C9C9A"/>
</linearGradient>
<linearGradient id="paint69_linear_2374_8253" x1="167.162" y1="136.9" x2="167.162" y2="127.212" gradientUnits="userSpaceOnUse">
<stop stop-color="#2D2721"/>
<stop offset="0.398" stop-color="#8A8A83"/>
<stop offset="0.995" stop-color="#9C9C9A"/>
</linearGradient>
<linearGradient id="paint70_linear_2374_8253" x1="80.0664" y1="32.9911" x2="80.0664" y2="23.074" gradientUnits="userSpaceOnUse">
<stop offset="0.005" stop-color="#9C9C9A"/>
<stop offset="0.602" stop-color="#8A8A83"/>
<stop offset="1" stop-color="#2D2721"/>
</linearGradient>
<linearGradient id="paint71_linear_2374_8253" x1="167.162" y1="32.6755" x2="167.162" y2="22.987" gradientUnits="userSpaceOnUse">
<stop offset="0.005" stop-color="#9C9C9A"/>
<stop offset="0.602" stop-color="#8A8A83"/>
<stop offset="1" stop-color="#2D2721"/>
</linearGradient>
<linearGradient id="paint72_linear_2374_8253" x1="261.057" y1="145.264" x2="243.818" y2="129.181" gradientUnits="userSpaceOnUse">
<stop stop-color="#F2F4F3"/>
<stop offset="1" stop-color="#808080"/>
</linearGradient>
<linearGradient id="paint73_linear_2374_8253" x1="261.27" y1="14.4577" x2="244.361" y2="30.2323" gradientUnits="userSpaceOnUse">
<stop stop-color="#F2F4F3"/>
<stop offset="1" stop-color="#808080"/>
</linearGradient>
<linearGradient id="paint74_linear_2374_8253" x1="126.51" y1="141.425" x2="126.51" y2="139.375" gradientUnits="userSpaceOnUse">
<stop offset="0.005" stop-color="#C0C0BF"/>
<stop offset="0.105" stop-color="white"/>
<stop offset="0.295" stop-color="#EDEFEE"/>
<stop offset="0.845" stop-color="#ADB1AD"/>
<stop offset="1" stop-color="#BFC5C1"/>
</linearGradient>
<linearGradient id="paint75_linear_2374_8253" x1="126.51" y1="19.0606" x2="126.51" y2="21.1102" gradientUnits="userSpaceOnUse">
<stop offset="0.005" stop-color="#C0C0BF"/>
<stop offset="0.105" stop-color="white"/>
<stop offset="0.295" stop-color="#EDEFEE"/>
<stop offset="0.845" stop-color="#ADB1AD"/>
<stop offset="1" stop-color="#BFC5C1"/>
</linearGradient>
<linearGradient id="paint76_linear_2374_8253" x1="172.134" y1="141.425" x2="172.134" y2="139.375" gradientUnits="userSpaceOnUse">
<stop offset="0.005" stop-color="#C0C0BF"/>
<stop offset="0.105" stop-color="white"/>
<stop offset="0.295" stop-color="#EDEFEE"/>
<stop offset="0.845" stop-color="#ADB1AD"/>
<stop offset="1" stop-color="#BFC5C1"/>
</linearGradient>
<linearGradient id="paint77_linear_2374_8253" x1="171.07" y1="19.0611" x2="171.07" y2="21.1107" gradientUnits="userSpaceOnUse">
<stop offset="0.005" stop-color="#C0C0BF"/>
<stop offset="0.105" stop-color="white"/>
<stop offset="0.295" stop-color="#EDEFEE"/>
<stop offset="0.845" stop-color="#ADB1AD"/>
<stop offset="1" stop-color="#BFC5C1"/>
</linearGradient>
<linearGradient id="paint78_linear_2374_8253" x1="59.5551" y1="107.298" x2="58.5461" y2="94.2782" gradientUnits="userSpaceOnUse">
<stop/>
<stop offset="0.905" stop-color="#454545"/>
</linearGradient>
<linearGradient id="paint79_linear_2374_8253" x1="61.1471" y1="113.675" x2="57.2724" y2="76.2358" gradientUnits="userSpaceOnUse">
<stop stop-color="#262626"/>
<stop offset="0.905" stop-color="#454545"/>
</linearGradient>
<linearGradient id="paint80_linear_2374_8253" x1="59.2246" y1="94.6691" x2="60.1075" y2="94.5781" gradientUnits="userSpaceOnUse">
<stop stop-color="#9C9C9A"/>
<stop offset="0.061" stop-color="#515148"/>
<stop offset="0.226" stop-color="#B7BBB7"/>
<stop offset="0.719" stop-color="#9C9C9A"/>
<stop offset="0.843" stop-color="#E5E5E4"/>
<stop offset="0.995" stop-color="#9C9C9A"/>
</linearGradient>
<linearGradient id="paint81_linear_2374_8253" x1="57.956" y1="62.0881" x2="62.5742" y2="50.2039" gradientUnits="userSpaceOnUse">
<stop/>
<stop offset="0.905" stop-color="#454545"/>
</linearGradient>
<linearGradient id="paint82_linear_2374_8253" x1="55.5054" y1="69.1281" x2="68.3121" y2="33.4634" gradientUnits="userSpaceOnUse">
<stop stop-color="#262626"/>
<stop offset="0.905" stop-color="#454545"/>
</linearGradient>
<linearGradient id="paint83_linear_2374_8253" x1="62.5262" y1="50.6337" x2="63.4881" y2="50.979" gradientUnits="userSpaceOnUse">
<stop stop-color="#9C9C9A"/>
<stop offset="0.061" stop-color="#515148"/>
<stop offset="0.226" stop-color="#B7BBB7"/>
<stop offset="0.719" stop-color="#9C9C9A"/>
<stop offset="0.843" stop-color="#E5E5E4"/>
<stop offset="0.995" stop-color="#9C9C9A"/>
</linearGradient>
</defs>
</svg>
