<svg width="24" height="24" viewBox="0 0 24 24" fill="none" xmlns="http://www.w3.org/2000/svg">
<rect x="3" y="7" width="18" height="16" rx="4" fill="#6A6A6A"/>
<path d="M18 8C18 7.21207 17.8448 6.43185 17.5433 5.7039C17.2417 4.97595 16.7998 4.31451 16.2426 3.75736C15.6855 3.20021 15.0241 2.75825 14.2961 2.45672C13.5681 2.15519 12.7879 2 12 2C11.2121 2 10.4319 2.15519 9.7039 2.45672C8.97595 2.75825 8.31451 3.20021 7.75736 3.75736C7.20021 4.31451 6.75825 4.97595 6.45672 5.7039C6.15519 6.43185 6 7.21207 6 8L8.16 8C8.16 7.49572 8.25932 6.99639 8.4523 6.5305C8.64528 6.06461 8.92813 5.64129 9.28471 5.28471C9.64129 4.92813 10.0646 4.64528 10.5305 4.4523C10.9964 4.25932 11.4957 4.16 12 4.16C12.5043 4.16 13.0036 4.25932 13.4695 4.4523C13.9354 4.64528 14.3587 4.92813 14.7153 5.28471C15.0719 5.64129 15.3547 6.06461 15.5477 6.5305C15.7407 6.99639 15.84 7.49572 15.84 8H18Z" fill="#6A6A6A"/>
<rect x="11" y="15" width="2" height="5" rx="1" fill="#FAFAFA"/>
</svg>
