<svg width="570" height="560" viewBox="0 0 570 560" fill="none" xmlns="http://www.w3.org/2000/svg">
<path fill-rule="evenodd" clip-rule="evenodd" d="M559.506 8.34064C554.851 12.6999 534.184 31.3669 513.579 49.8257C401.424 150.295 231.224 315.475 108.598 442.861C78.1362 474.506 9.75532 547.862 3.73604 555.35L0 560L4.67333 556.143C20.9672 542.694 87.5954 482.319 135.81 437.313C248.043 332.549 429.434 152.106 515.016 60.0891C568.644 2.43083 580.297 -11.1231 559.506 8.34064ZM471.431 149.042C434.829 185.454 347.099 272.438 276.474 342.34C201.765 416.286 151.985 466.855 157.438 463.266C186.082 444.413 242.897 398.856 281.91 363.461L297.657 349.174L318.171 368.339C329.454 378.88 350.205 398.235 364.285 411.351L389.886 435.194L451.577 435.256L513.266 435.316L502.19 423.57C496.098 417.11 465.385 384.925 433.939 352.048C402.493 319.171 374.556 289.652 371.857 286.451L366.949 280.629L392.215 253.445C445.2 196.435 542.687 82.7816 538.557 82.8341C538.239 82.8378 508.032 112.633 471.431 149.042ZM392.055 110.773C365.92 129.865 318.287 168.797 291.968 192.571L280.28 203.131L234.339 159.853L188.397 116.576H127.46C93.9427 116.576 66.5213 117.072 66.5213 117.678C66.5213 118.698 162.091 219.467 196.533 254.763L211.539 270.141L189.171 294.137C157.478 328.135 134.012 354.037 111.38 380.005C91.4026 402.927 37.7934 466.96 32.8876 473.756C29.8414 477.981 83.8537 425.086 209.014 301.28C362.351 149.601 421.899 90.3245 420.881 90.3845C420.329 90.4164 407.359 99.5905 392.055 110.773Z" fill="#EAA038"/>
</svg>
