<svg width="32" height="32" viewBox="0 0 267 267" fill="none" xmlns="http://www.w3.org/2000/svg">
  <style>
    .sa {
      fill: #EAA038;
    }
    @media (prefers-color-scheme: dark) {
      .sa {
        fill: #ffffff;
      }
    }
  </style>
  <g transform="translate(0 88.5)">
    <path
      class="sa"
      d="M85.165 90H0L17.726 66.9706H85.9647C91.5624 66.9706 94.0947 65.25 94.0947 61.2794C94.0947 57.1765 91.4291 55.4559 85.6981 55.4559H37.4513C15.7269 55.4559 3.19869 45.6618 3.19869 28.8529C3.19869 10.5882 15.5936 1.45589 40.7833 1.45589H118.751L101.025 24.4853H38.6508C32.9198 24.4853 30.2542 26.3382 30.2542 30.1765C30.2542 34.1471 32.9198 36 38.6508 36H87.2975C109.422 36 121.15 44.8677 121.15 61.6765C121.15 81.1324 109.955 90 85.165 90ZM267 90H163.442L179.969 66.9706H218.353L193.163 30.8382L150.914 90H118.66L175.837 9.92648C179.702 4.63236 185.033 0 193.563 0C201.826 0 207.291 4.36765 211.156 9.92648L267 90Z"
    />
  </g>
</svg>
