<svg width="1967" height="560" viewBox="0 0 1967 560" fill="none" xmlns="http://www.w3.org/2000/svg">
<g clip-path="url(#clip0_2862_26418)">
<path fill-rule="evenodd" clip-rule="evenodd" d="M559.506 8.34066C554.851 12.6999 534.184 31.3669 513.579 49.8257C401.424 150.295 231.224 315.475 108.598 442.861C78.1362 474.506 9.75532 547.862 3.73604 555.35L0 560L4.67333 556.143C20.9672 542.694 87.5954 482.319 135.81 437.313C248.043 332.549 429.434 152.106 515.016 60.0891C568.644 2.43085 580.297 -11.1231 559.506 8.34066ZM471.431 149.042C434.829 185.454 347.099 272.438 276.474 342.34C201.765 416.286 151.985 466.855 157.438 463.266C186.082 444.413 242.897 398.856 281.91 363.461L297.657 349.174L318.171 368.339C329.454 378.88 350.205 398.235 364.285 411.351L389.886 435.194L451.577 435.256L513.266 435.316L502.19 423.57C496.098 417.11 465.385 384.925 433.939 352.048C402.493 319.171 374.556 289.652 371.857 286.451L366.949 280.629L392.215 253.445C445.2 196.435 542.687 82.7816 538.557 82.8341C538.239 82.8378 508.032 112.633 471.431 149.042ZM392.055 110.773C365.92 129.865 318.287 168.797 291.968 192.571L280.28 203.131L234.339 159.853L188.397 116.576H127.46C93.9427 116.576 66.5213 117.072 66.5213 117.678C66.5213 118.698 162.091 219.467 196.533 254.763L211.539 270.141L189.171 294.137C157.478 328.135 134.012 354.037 111.38 380.005C91.4026 402.927 37.7934 466.96 32.8876 473.756C29.8414 477.981 83.8537 425.086 209.014 301.28C362.351 149.601 421.899 90.3245 420.881 90.3845C420.329 90.4164 407.359 99.5905 392.055 110.773ZM1759.27 106.419C1756.69 106.873 1749.52 108.123 1743.33 109.196C1705.91 115.687 1667.79 136.309 1642.01 164.012C1609.2 199.257 1596.09 235.318 1598.68 283.114C1599.97 306.71 1604.13 325.585 1611.69 342.107C1631.66 385.743 1677.43 421.802 1729.79 435.144C1801.16 453.333 1872.42 435.852 1920.59 388.338C1953.55 355.82 1968.93 315.623 1966.81 267.509C1965.58 239.722 1960.7 220.714 1949.17 198.792C1932.13 166.417 1901.71 138.632 1865.15 122.049C1842.27 111.675 1819.79 106.927 1790.2 106.22C1775.76 105.875 1761.84 105.963 1759.27 106.419ZM707.817 128.438C703.89 136.866 673.015 202.401 639.211 274.071C561.527 438.772 565.159 430.961 565.159 433.318C565.159 436.385 639.119 436.049 641.489 432.973C643.086 430.897 662.107 387.946 669.727 369.204L672.595 362.154L753.18 362.642L833.764 363.131L848.703 399.224L863.639 435.316H901.858C924.687 435.316 940.075 434.6 940.075 433.539C940.075 431.975 930.648 411.482 901.648 350.006C893.912 333.606 870.894 284.559 829.496 196.261C818.376 172.543 805.029 144.109 799.836 133.075L790.396 113.015L752.679 113.064L714.961 113.114L707.817 128.438ZM996.32 219.188C996.326 304.513 996.883 329.05 999.121 342.861C1009.17 404.852 1041.66 434.499 1106.65 440.997C1129.45 443.277 1162.08 441.202 1180.96 436.272C1210.32 428.608 1234.17 409.734 1246.14 384.693C1260.94 353.709 1262.43 338.166 1262.47 213.87L1262.5 115.235L1250.98 114.029C1244.64 113.368 1228.19 112.826 1214.43 112.826H1189.39L1189.36 212.667C1189.32 315.811 1188.42 331.615 1181.68 347.28C1176.27 359.87 1162.48 372.382 1149.92 376.115C1125.01 383.511 1099.9 377.977 1085.45 361.906C1070.21 344.948 1070.55 347.908 1069.45 223.447L1068.48 113.763L1032.4 113.253L996.313 112.745L996.32 219.188ZM1310.23 115.16C1309.7 116.544 1309.5 130.296 1309.78 145.72L1310.3 173.761L1352.98 174.266L1395.65 174.77L1395.57 304.574L1395.5 434.379L1433.04 434.887L1470.58 435.393V305.047V174.699H1512.81H1555.03L1554.52 144.561L1554 114.423L1432.6 113.533C1332.1 112.794 1311.03 113.075 1310.23 115.16ZM1748.4 169.115C1711.44 178.799 1680.37 207.878 1670.36 242.137C1655.05 294.603 1678.31 346.618 1727.71 370.368C1748.68 380.448 1762.06 383.511 1784.57 383.39C1817.96 383.208 1844.91 372.194 1868.07 349.273C1891.73 325.84 1902.21 297.195 1898.98 264.696C1896.2 236.566 1887.37 218.021 1867.56 198.642C1853.36 184.76 1832.52 173.16 1812.77 168.155C1796.92 164.141 1765.6 164.608 1748.4 169.115ZM736.854 224.151C727.997 242.583 720.75 257.952 720.75 258.303C720.75 258.651 716.532 267.518 711.377 278.005C706.222 288.491 702.004 297.802 702.004 298.695C702.004 299.589 725.153 300.32 753.448 300.32H804.892L798.667 286.727C795.242 279.25 787.155 262.165 780.693 248.759C774.233 235.353 765.35 216.791 760.954 207.51L752.959 190.636L736.854 224.151Z" fill="white"/>
<path fill-rule="evenodd" clip-rule="evenodd" d="M559.506 8.34065C554.851 12.6999 534.184 31.3669 513.579 49.8257C401.424 150.295 231.224 315.475 108.598 442.861C78.1362 474.506 9.75532 547.862 3.73604 555.35L0 560L4.67333 556.143C20.9672 542.694 87.5954 482.319 135.81 437.313C248.043 332.549 429.434 152.106 515.016 60.0891C568.644 2.43084 580.297 -11.1231 559.506 8.34065ZM471.431 149.042C434.829 185.454 347.099 272.438 276.474 342.34C201.765 416.286 151.985 466.855 157.438 463.266C186.082 444.413 242.897 398.856 281.91 363.461L297.657 349.174L318.171 368.339C329.454 378.88 350.205 398.235 364.285 411.351L389.886 435.194L451.577 435.256L513.266 435.316L502.19 423.57C496.098 417.11 465.385 384.925 433.939 352.048C402.493 319.171 374.556 289.652 371.857 286.451L366.949 280.629L392.215 253.445C445.2 196.435 542.687 82.7816 538.557 82.8341C538.239 82.8378 508.032 112.633 471.431 149.042ZM392.055 110.773C365.92 129.865 318.287 168.797 291.968 192.571L280.28 203.131L234.339 159.853L188.397 116.576H127.46C93.9427 116.576 66.5213 117.072 66.5213 117.678C66.5213 118.698 162.091 219.467 196.533 254.763L211.539 270.141L189.171 294.137C157.478 328.135 134.012 354.037 111.38 380.005C91.4026 402.927 37.7934 466.96 32.8876 473.756C29.8414 477.981 83.8537 425.086 209.014 301.28C362.351 149.601 421.899 90.3245 420.881 90.3845C420.329 90.4164 407.359 99.5905 392.055 110.773Z" fill="#EAA038"/>
</g>
<defs>
<clipPath id="clip0_2862_26418">
<rect width="1967" height="560" fill="white"/>
</clipPath>
</defs>
</svg>
