<svg width="320" height="248" viewBox="0 0 320 248" fill="none" xmlns="http://www.w3.org/2000/svg">
<ellipse cx="82.4871" cy="231.033" rx="47.6684" ry="6.58667" fill="#F0F0F0"/>
<path d="M0 43.5533C0 32.5076 8.95431 23.5533 20 23.5533H300C311.046 23.5533 320 32.5076 320 43.5533V174.807C320 185.852 311.046 194.807 300 194.807H20C8.95431 194.807 0 185.852 0 174.807V43.5533Z" fill="#BC1418"/>
<path d="M33.2673 109.872C29.3243 114.051 28.5106 114.714 23.8055 114.419C13.8485 113.782 24.5732 109.557 14.4768 108.091L16.5493 99.8567C21.2654 100.574 21.907 101.148 21.8602 101.431L43.2108 77.6878C43.2108 77.6878 46.2093 72.154 52.5869 71.0966C57.1408 72.7291 59.5823 75.4689 57.7376 80.6898C55.8929 85.9107 35.5351 107.463 33.2673 109.872Z" fill="#FFCAC2"/>
<path d="M74.9064 20.3014C83.4142 20.3017 90.3116 28.5852 90.3116 38.8033C90.3116 38.8112 90.3107 38.819 90.3107 38.8268C90.4282 38.811 90.5481 38.8034 90.6691 38.8033C92.4497 38.8036 93.8937 40.556 93.8937 42.7174C93.8935 44.8786 92.4495 46.6302 90.6691 46.6305C90.0831 46.6304 89.5342 46.4397 89.0607 46.108C87.6095 50.1568 84.9916 53.4599 81.713 55.403V61.0778C81.713 61.9967 82.3397 62.7977 83.2316 63.0192L87.4454 64.0651L77.7726 73.316L63.7999 63.7096L66.7872 62.7203C67.5764 62.4589 68.1224 61.7365 68.1573 60.9059L68.38 55.566C64.9701 53.6478 62.2423 50.273 60.7501 46.109C60.2768 46.4403 59.7283 46.6304 59.1427 46.6305C57.3621 46.6305 55.9183 44.8788 55.9181 42.7174C55.9181 40.5558 57.3619 38.8033 59.1427 38.8033C59.2638 38.8034 59.3834 38.811 59.5011 38.8268C59.5011 38.819 59.5011 38.8112 59.5011 38.8033C59.5011 28.5851 66.3983 20.3014 74.9064 20.3014Z" fill="#FFCAC2"/>
<path d="M81.2046 56.6712C75.2565 59.428 70.7954 57.8199 68.8127 56.6712C68.8127 56.6712 72.2825 59.1326 74.7608 59.1326C77.2392 59.1326 81.2046 56.6712 81.2046 56.6712Z" fill="#FFA8A7" stroke="#FFA8A7" stroke-width="0.4" stroke-linecap="round"/>
<path d="M61.7363 222.042C61.464 218.933 64.6024 186.462 64.6024 186.462L74.2754 196.069C72.0757 214.051 71.2945 221.466 71.2658 224.462C71.3302 224.71 71.3591 224.967 71.3518 225.223C71.3518 228.781 69.6897 226.39 66.3937 228.803C63.5846 230.915 67.367 226.827 64.2441 228.447C61.8438 229.621 62.331 230.254 61.7363 228.803C65.7488 225.85 57.4802 231.094 60.6615 227.735C62.159 226.148 62.0372 225.764 61.7363 222.042Z" fill="#FFCAC2"/>
<path d="M101.627 222.042C101.9 218.933 98.7612 186.462 98.7612 186.462L89.0882 196.069C91.2879 214.051 92.0691 221.466 92.0977 224.462C92.0334 224.71 92.0045 224.967 92.0118 225.223C92.0118 228.781 93.6739 226.39 96.9699 228.803C99.779 230.915 95.9966 226.827 99.1195 228.447C101.52 229.621 101.033 230.254 101.627 228.803C97.6148 225.85 105.883 231.094 102.702 227.735C101.205 226.148 101.326 225.764 101.627 222.042Z" fill="#FFCAC2"/>
<path d="M93.3459 115.5C94.1842 133.369 98.4833 172.998 98.4833 172.998C98.8129 175.19 102.267 184.441 102.596 192.382C103.112 204.843 104.241 216.421 104.241 216.421C104.241 216.421 94.7547 219.182 89.5527 217.417C89.5527 217.417 84.0884 189.116 81.989 180.911C79.4883 171.12 74.5229 152.305 74.5229 152.305V178.99C75.3159 184.193 75.5273 189.467 75.1534 194.716C74.6805 199.982 74.1475 217.702 74.1475 217.702C74.1475 217.702 66.1368 218.556 60.5337 217.061C60.5337 217.061 56.6815 183.295 56.2731 178.478C55.8145 172.977 52.6117 117.642 52.6117 117.642L93.3459 115.5Z" fill="#E8383C"/>
<path d="M89.9107 127.399C91.004 131.313 92.5381 135.49 93.9525 136.913" stroke="#0958C9" stroke-linecap="round"/>
<path d="M57.6166 128.117C56.5233 132.031 56.2085 138.443 54.7942 139.866" stroke="#0958C9" stroke-linecap="round"/>
<path d="M74.9949 152.139L73.4617 148.433C73.2848 148.006 72.965 147.653 72.5568 147.434L68.5307 145.281" stroke="#0958C9" stroke-linecap="round"/>
<path d="M72.7142 131.668L71.9977 137.005L71.7587 138.667C71.6897 139.147 71.9743 139.607 72.4342 139.759L73.789 140.207" stroke="#0958C9" stroke-linecap="round"/>
<path d="M66.1533 63.9681C71.4419 69.2999 80.1717 68.9234 84.9824 63.1566C84.9824 63.1566 88.9284 64.3513 92.1572 65.1478C94.4675 67.6565 95.7834 73.9562 96.0058 81.7054C96.3425 93.101 94.3157 127.561 94.3095 127.666C81.9252 135.989 56.611 131.098 51.7822 124.146L54.3828 106.298C54.411 100.434 53.847 95.9826 53.1767 89.6683C50.7712 92.2997 47.972 95.291 46.4531 96.6634C44.3519 90.765 36.6118 85.5465 36.5722 85.5198C36.5722 85.5198 46.4025 70.3418 49.1757 67.8079C51.8208 65.3914 53.0121 64.9689 56.8105 64.6448L65.1913 62.9974L66.1533 63.9681Z" fill="#FAFAFA"/>
<path d="M91.7259 221.175C96.3823 222.759 100.766 221.318 101.32 220.108C103.365 221.1 106.293 222.549 109.171 224.022C113.471 226.223 117.659 228.478 118.615 229.348C119.413 230.668 118.615 231.328 118.116 231.493H93.0094C91.9048 231.493 91.0094 230.598 91.0094 229.493V229.359C91.0094 227.935 90.6616 223.683 91.7259 221.175Z" fill="#FAFAFA" stroke="#DEDEDE"/>
<path d="M91.0101 229.359H118.596C119.394 230.27 118.954 231.138 118.238 231.493H93.0101C91.9055 231.493 91.0101 230.598 91.0101 229.493V229.359Z" fill="#1B1818" stroke="#1B1818"/>
<path d="M100.626 224.537C100.576 224.552 100.519 224.545 100.465 224.517C100.434 224.501 100.405 224.479 100.38 224.451C100.355 224.424 100.334 224.391 100.318 224.357C100.302 224.322 100.291 224.285 100.287 224.248C100.282 224.211 100.284 224.175 100.292 224.141C100.564 223.321 100.997 222.613 101.56 222.065C102.124 221.518 102.807 221.143 103.562 220.966C103.592 220.962 103.623 220.964 103.654 220.974C103.685 220.983 103.715 221 103.743 221.022C103.771 221.044 103.796 221.072 103.816 221.104C103.836 221.135 103.852 221.17 103.862 221.206C103.871 221.242 103.875 221.279 103.873 221.314C103.871 221.349 103.863 221.382 103.849 221.411C103.835 221.44 103.816 221.464 103.792 221.482C103.769 221.5 103.742 221.512 103.712 221.517C103.035 221.684 102.423 222.025 101.916 222.518C101.409 223.011 101.018 223.645 100.767 224.38C100.758 224.42 100.741 224.455 100.716 224.482C100.692 224.51 100.661 224.528 100.626 224.537Z" fill="#C1C1C1"/>
<path d="M102.059 225.249C102.008 225.264 101.951 225.257 101.897 225.229C101.867 225.213 101.838 225.19 101.813 225.163C101.788 225.135 101.767 225.103 101.751 225.068C101.735 225.034 101.724 224.997 101.72 224.96C101.715 224.923 101.717 224.887 101.725 224.853C101.997 224.032 102.429 223.325 102.993 222.777C103.557 222.23 104.24 221.855 104.995 221.678C105.025 221.674 105.056 221.676 105.087 221.686C105.118 221.695 105.148 221.712 105.176 221.734C105.204 221.756 105.228 221.784 105.249 221.815C105.269 221.847 105.285 221.882 105.294 221.918C105.304 221.954 105.308 221.991 105.306 222.026C105.304 222.061 105.296 222.094 105.282 222.123C105.268 222.152 105.249 222.176 105.225 222.194C105.202 222.212 105.174 222.224 105.145 222.228C104.468 222.395 103.856 222.736 103.349 223.229C102.842 223.722 102.45 224.356 102.2 225.091C102.191 225.131 102.174 225.167 102.149 225.194C102.125 225.221 102.094 225.24 102.059 225.249Z" fill="#C1C1C1"/>
<path d="M103.492 225.961C103.442 225.976 103.385 225.968 103.331 225.94C103.3 225.924 103.271 225.902 103.246 225.875C103.221 225.847 103.2 225.815 103.184 225.78C103.168 225.745 103.157 225.708 103.153 225.671C103.148 225.634 103.15 225.598 103.158 225.565C103.43 224.744 103.863 224.036 104.426 223.489C104.99 222.941 105.673 222.567 106.428 222.39C106.458 222.385 106.489 222.388 106.52 222.397C106.551 222.407 106.581 222.423 106.609 222.445C106.637 222.468 106.661 222.495 106.682 222.527C106.702 222.559 106.718 222.594 106.728 222.63C106.737 222.666 106.741 222.702 106.739 222.738C106.737 222.773 106.729 222.806 106.715 222.834C106.701 222.863 106.682 222.887 106.658 222.906C106.635 222.924 106.608 222.935 106.578 222.94C105.901 223.107 105.289 223.448 104.782 223.941C104.275 224.434 103.884 225.068 103.633 225.803C103.624 225.843 103.607 225.878 103.582 225.906C103.558 225.933 103.527 225.952 103.492 225.961Z" fill="#C1C1C1"/>
<path d="M71.6175 221.175C66.9611 222.759 62.5778 221.318 62.0235 220.108C59.9788 221.1 57.0504 222.549 54.1725 224.022C49.8721 226.223 45.6848 228.478 44.7283 229.348C43.9301 230.668 44.7283 231.328 45.2272 231.493H70.334C71.4386 231.493 72.334 230.598 72.334 229.493V229.359C72.334 227.935 72.6818 223.683 71.6175 221.175Z" fill="#FAFAFA" stroke="#DEDEDE"/>
<path d="M72.3333 229.359H44.7479C43.9496 230.27 44.3897 231.138 45.1056 231.493H70.3333C71.4379 231.493 72.3333 230.598 72.3333 229.493V229.359Z" fill="#1B1818" stroke="#1B1818"/>
<path d="M62.717 224.537C62.7678 224.552 62.8248 224.545 62.8787 224.517C62.9092 224.501 62.9379 224.479 62.9631 224.451C62.9883 224.424 63.0096 224.391 63.0256 224.357C63.0417 224.322 63.0522 224.285 63.0567 224.248C63.0611 224.211 63.0593 224.175 63.0515 224.141C62.7793 223.321 62.3468 222.613 61.7828 222.065C61.2189 221.518 60.5365 221.143 59.7809 220.966C59.7514 220.962 59.7203 220.964 59.6894 220.974C59.6584 220.983 59.6281 221 59.6004 221.022C59.5726 221.044 59.5478 221.072 59.5275 221.104C59.5071 221.135 59.4916 221.17 59.4818 221.206C59.4719 221.242 59.468 221.279 59.4702 221.314C59.4724 221.349 59.4806 221.382 59.4945 221.411C59.5084 221.44 59.5276 221.464 59.551 221.482C59.5745 221.5 59.6017 221.512 59.6312 221.517C60.3084 221.684 60.9201 222.025 61.4272 222.518C61.9343 223.011 62.3257 223.645 62.5764 224.38C62.5853 224.42 62.6027 224.455 62.6271 224.482C62.6515 224.51 62.6823 224.528 62.717 224.537Z" fill="#C1C1C1"/>
<path d="M61.2841 225.249C61.3348 225.264 61.3918 225.257 61.4458 225.229C61.4763 225.213 61.505 225.19 61.5302 225.163C61.5554 225.135 61.5767 225.103 61.5927 225.068C61.6087 225.034 61.6193 224.997 61.6237 224.96C61.6282 224.923 61.6264 224.887 61.6185 224.853C61.3463 224.032 60.9139 223.325 60.3499 222.777C59.786 222.23 59.1035 221.855 58.348 221.678C58.3185 221.674 58.2874 221.676 58.2564 221.686C58.2255 221.695 58.1952 221.712 58.1674 221.734C58.1397 221.756 58.1149 221.784 58.0945 221.815C58.0742 221.847 58.0587 221.882 58.0488 221.918C58.039 221.954 58.0351 221.991 58.0372 222.026C58.0394 222.061 58.0477 222.094 58.0616 222.123C58.0755 222.152 58.0947 222.176 58.1181 222.194C58.1416 222.212 58.1688 222.224 58.1983 222.228C58.8754 222.395 59.4871 222.736 59.9943 223.229C60.5014 223.722 60.8928 224.356 61.1435 225.091C61.1524 225.131 61.1698 225.167 61.1942 225.194C61.2186 225.221 61.2494 225.24 61.2841 225.249Z" fill="#C1C1C1"/>
<path d="M59.851 225.961C59.9018 225.976 59.9588 225.968 60.0127 225.94C60.0433 225.924 60.072 225.902 60.0972 225.875C60.1224 225.847 60.1436 225.815 60.1597 225.78C60.1757 225.745 60.1862 225.708 60.1907 225.671C60.1951 225.634 60.1934 225.598 60.1855 225.565C59.9133 224.744 59.4808 224.036 58.9169 223.489C58.3529 222.941 57.6705 222.567 56.9149 222.39C56.8855 222.385 56.8544 222.388 56.8234 222.397C56.7924 222.407 56.7622 222.423 56.7344 222.445C56.7066 222.468 56.6819 222.495 56.6615 222.527C56.6411 222.559 56.6256 222.594 56.6158 222.63C56.606 222.666 56.602 222.702 56.6042 222.738C56.6064 222.773 56.6147 222.806 56.6285 222.834C56.6424 222.863 56.6616 222.887 56.6851 222.906C56.7085 222.924 56.7358 222.935 56.7652 222.94C57.4424 223.107 58.0541 223.448 58.5612 223.941C59.0683 224.434 59.4597 225.068 59.7105 225.803C59.7194 225.843 59.7367 225.878 59.7611 225.906C59.7855 225.933 59.8163 225.952 59.851 225.961Z" fill="#C1C1C1"/>
<path d="M60.5277 26.503C56.0721 30.6712 58.6712 38.0672 60.5277 41.2442C62.4517 38.8043 62.8483 31.5862 62.8062 28.2821C69.1774 30.1883 82.7046 33.5178 85.8438 31.5862C86.1476 37.5844 88.2489 40.7783 89.2615 41.6255C89.7678 39.7616 90.7567 36.4152 90.9071 34.0007C91.0574 31.5862 90.3585 29.5106 90.021 28.2821C90.9493 27.6891 92.7298 25.8422 92.426 23.199C92.3248 19.5391 91.2342 17.7867 88.7552 16.845C87.194 16.2519 83.504 15.3201 80.1477 15.32C73.4727 15.3198 71.4566 18.5467 68.882 18.8782C66.3075 19.2098 62.0467 21.3182 60.5277 26.503Z" fill="#1C1D19" stroke="#1C1D19" stroke-linecap="round"/>
<path d="M65.2327 37.38C65.9603 36.5535 68.2686 35.2146 71.6814 36.4708C71.2208 36.6684 67.3161 37.2423 65.2327 37.38Z" fill="#1C1D19"/>
<path d="M85.2953 37.38C84.5677 36.5535 82.2594 35.2146 78.8466 36.4708C79.3072 36.6684 83.2119 37.2423 85.2953 37.38Z" fill="#1C1D19"/>
<ellipse cx="2.14956" cy="2.84644" rx="2.14956" ry="2.84644" transform="matrix(-1 0 0 1 71.6815 38.0916)" fill="#FAFAFA"/>
<ellipse cx="0.71652" cy="1.06741" rx="0.71652" ry="1.06741" transform="matrix(-1 0 0 1 69.7958 40.9889)" fill="#393939"/>
<ellipse cx="2.14956" cy="2.84644" rx="2.14956" ry="2.84644" transform="matrix(-1 0 0 1 83.1456 38.0916)" fill="#FAFAFA"/>
<ellipse cx="0.71652" cy="1.06741" rx="0.71652" ry="1.06741" transform="matrix(-1 0 0 1 81.402 40.9889)" fill="#393939"/>
<path d="M75.2405 41.6498V44.4053C75.2405 44.4631 75.2156 44.518 75.172 44.556L74.8601 44.8282C74.4679 45.1706 74.404 45.7568 74.7133 46.1756L75.3123 46.9868" stroke="#B68881" stroke-width="0.6" stroke-linecap="round"/>
<path d="M58.4259 44.14C57.9386 43.7231 57.6573 43.8642 58.4947 41.4412" stroke="#B68881" stroke-width="0.6" stroke-linecap="round"/>
<path d="M91.1527 44.14C91.64 43.7231 91.9213 43.8642 91.0839 41.4412" stroke="#B68881" stroke-width="0.6" stroke-linecap="round"/>
<path d="M71.8489 50.4987C74.9948 52.5158 78.3385 50.8115 79.5545 50.0455C80.1785 49.6528 77.4721 53.7446 75.6239 53.6307C73.7757 53.5169 72.0933 51.2808 71.8489 50.4987Z" fill="#1D1D1D"/>
<path d="M71.8154 50.4676C71.8266 50.478 71.8378 50.4884 71.8489 50.4987M71.8489 50.4987C74.9948 52.5158 78.3385 50.8115 79.5545 50.0455C80.1785 49.6528 77.4721 53.7446 75.6239 53.6307C73.7757 53.5169 72.0933 51.2808 71.8489 50.4987Z" stroke="#1D1D1D" stroke-width="0.6" stroke-linecap="round"/>
<path d="M76.7324 52.5156H74.2454C73.8308 52.5156 75.1573 52.9272 75.4889 52.9272C75.8205 52.9272 77.1468 52.5156 76.7324 52.5156Z" stroke="#972F2F" stroke-width="0.6"/>
<path d="M80.4145 51.135C80.5182 50.5047 81.1904 50.3228 78.9813 49.0002" stroke="#B68881" stroke-width="0.6" stroke-linecap="round"/>
<path d="M7.60407 66.6446L38.5182 70.6288L46.0103 130.998L14.0622 124.969L7.60407 66.6446Z" fill="#FAFAFA"/>
<path d="M16.9962 112.535C16.9092 112.129 16.6527 111.872 15.032 111.859C13.6712 111.849 12.0936 112.019 10.7844 112.132C10.3934 112.607 10.1507 113.701 12.3081 114.274C11.6562 114.517 10.8746 115.245 12.9638 116.21C12.3777 116.316 11.5661 116.921 13.0078 118.497C12.6455 118.758 12.2588 119.5 13.6099 120.38C14.0352 120.348 17.8984 120.931 17.7437 120.014C17.614 119.243 13.1387 119.119 13.0078 118.497C12.8368 117.686 18.9827 119.005 18.7202 117.781C18.4601 116.56 13.0878 116.974 12.9638 116.21C12.864 115.595 19.6537 116.468 18.9668 115.142C18.2798 113.816 12.7107 114.889 12.3081 114.274C11.9054 113.659 17.172 113.357 16.9962 112.535Z" fill="#FFCAC2"/>
<path d="M93.4822 65.6889C98.3234 65.6889 101.556 67.4426 101.606 72.975C101.656 78.5078 89.876 105.645 88.5662 108.675C86.2864 113.936 85.7469 114.834 81.2205 116.143C71.7 118.883 63.9552 117.204 54.0515 119.167L54.0623 119.295C51.909 119.989 53.0564 120.54 47.9734 121.991C46.421 122.384 46.4213 122.382 44.8689 122.776C44.3159 122.917 40.1163 125.03 39.449 124.093C38.8887 123.305 44.2665 121.383 43.8484 120.738C43.2995 119.895 36.9835 123.63 36.1619 122.357C35.3406 121.087 42.3256 119.316 41.7634 118.538C41.3089 117.913 33.7875 121.48 33.3914 119.939C32.9969 118.398 40.8369 117.176 40.7586 116.427C40.678 115.678 33.9274 117.513 33.3748 116.659C33.1015 116.236 33.1773 115.888 35.155 115.222C38.4258 114.122 43.0998 113.306 43.492 112.619L43.0779 110.149C43.9901 110.228 45.3685 110.008 46.5984 110.179C49.4073 110.571 50.5327 111.784 53.0261 111.799V111.795C59.7578 110.478 74.8543 104.822 74.8543 104.822L86.9158 75.0502C86.9158 75.0502 87.8449 68.834 93.4822 65.6889Z" fill="#FFCAC2"/>
<path d="M89.5337 64.72C94.1194 65.5099 100.628 66.1742 102.383 69.2484C104.87 74.6 96.5803 96.0067 96.5803 96.0067C96.5803 96.0067 86.6321 89.8317 77.8965 91.6239L82.8706 80.5089L89.5337 64.72Z" fill="#FAFAFA"/>
<path d="M78.3419 91.4784L83.316 80.775" stroke="#DEDEDE" stroke-linecap="round"/>
<path d="M53.057 89.0083C54.0242 88.3222 56.0415 86.2913 56.3731 83.6567" stroke="#DEDEDE" stroke-linecap="round"/>
<path d="M80.0466 105.382C78.5252 105.667 76.2637 105.737 74.7749 104.894C74.7749 104.894 76.4234 106.78 80.573 106.247L80.0466 105.382Z" fill="#FFA8A7"/>
<rect x="107.772" y="0.5" width="203.401" height="159.727" rx="10" fill="#FAFAFA" stroke="#F0F0F0"/>
<rect x="119.628" y="27.92" width="179.396" height="80.1867" rx="3.75" stroke="#D9D9D9" stroke-width="0.5"/>
<rect x="119.628" y="114.37" width="55.044" height="39.02" rx="3.75" stroke="#D9D9D9" stroke-width="0.5"/>
<rect x="243.152" y="114.37" width="55.8731" height="39.02" rx="3.75" stroke="#D9D9D9" stroke-width="0.5"/>
<rect x="180.975" y="114.37" width="55.8731" height="39.02" rx="3.75" stroke="#D9D9D9" stroke-width="0.5"/>
<path d="M192.74 46.6071C185.723 46.5887 177.82 47.1474 168.622 48.5496C167.537 48.7 157.077 54.6068 154.257 58.6836C151.437 62.7607 150.473 70.5212 150.473 70.5212C149.711 73.6993 150.174 78.9523 150.386 79.4631C150.673 80.5689 152.292 81.497 155.073 82.168C155.397 77.0615 159.672 73.0824 164.84 73.0761C170.252 73.0761 174.638 77.4194 174.638 82.7765C174.635 83.2043 174.603 83.6314 174.542 84.055C174.687 84.0569 174.851 84.0608 174.988 84.0623L233.597 84.5448C233.486 83.9618 233.429 83.3698 233.427 82.7765C233.427 77.4194 237.815 73.0761 243.226 73.0761C248.637 73.0761 253.024 77.4194 253.024 82.7765C253.024 83.4235 252.959 84.069 252.829 84.703L268.062 84.8283C268.384 79.2962 269.742 73.4862 266.341 68.6481C265.004 66.7468 258.52 63.3037 242.083 60.7277C233.591 56.5056 225.303 51.7185 216.277 48.9752C209.318 47.6087 201.761 46.6307 192.74 46.6071ZM188.527 49.5134C189.996 49.524 191.344 49.5837 192.45 49.7098L194.235 61.4356C184.086 60.2005 173.745 59.0923 168.279 54.7666C168.364 53.4328 170.228 51.5019 172.322 50.7637C173.507 50.3457 182.161 49.4673 188.527 49.5134ZM197.009 49.5978C203.136 49.6618 212.204 50.2501 218.443 52.9783C221.432 54.3485 227.059 57.5555 230.822 60.387L229.266 62.9418C219.05 62.4859 205.435 61.9226 199.848 61.2976L197.009 49.5978Z" fill="#D9D9D9"/>
<ellipse cx="164.56" cy="82.4216" rx="7.87565" ry="7.82167" fill="#D9D9D9"/>
<ellipse cx="243.316" cy="82.4216" rx="7.87565" ry="7.82167" fill="#D9D9D9"/>
<path d="M162.347 130.319C162.458 130.065 162.504 129.787 162.481 129.511C162.458 129.234 162.367 128.968 162.216 128.737C161.813 127.955 159.023 127.762 159.148 128.687C159.199 129.061 159.297 129.314 158.841 129.359C158.761 129.205 158.693 129.045 158.636 128.881L157.845 126.431C157.52 125.457 156.835 124.647 155.933 124.171L155.376 123.87C154.534 123.415 153.593 123.177 152.638 123.177H142.499C141.543 123.175 140.602 123.412 139.758 123.865L139.203 124.166C138.301 124.643 137.616 125.452 137.29 126.426L136.493 128.874C136.437 129.038 136.369 129.198 136.29 129.353C135.831 129.308 135.931 129.052 135.981 128.681C136.107 127.756 133.317 127.949 132.914 128.731C132.762 128.962 132.671 129.228 132.648 129.505C132.625 129.781 132.671 130.059 132.782 130.312C133.157 130.561 133.579 130.728 134.021 130.802C134.463 130.877 134.916 130.857 135.35 130.745L133.74 132.729C133.182 133.321 132.873 134.109 132.878 134.927L132.921 143.007C132.939 143.435 133.124 143.839 133.435 144.131C133.746 144.424 134.159 144.58 134.583 144.568H137.036C137.232 144.574 137.422 144.503 137.566 144.369C137.711 144.235 137.797 144.049 137.806 143.852V143.82L137.765 142.007H157.374L157.331 143.829C157.331 144.029 157.409 144.221 157.549 144.362C157.689 144.503 157.879 144.583 158.077 144.583H160.56C160.986 144.596 161.4 144.439 161.712 144.145C162.024 143.852 162.208 143.446 162.225 143.016L162.27 134.936C162.274 134.118 161.965 133.33 161.407 132.738L159.779 130.743C160.213 130.857 160.665 130.877 161.108 130.804C161.55 130.731 161.972 130.566 162.347 130.319ZM137.699 129.202C137.742 127.935 138.281 126.736 139.198 125.869C140.115 125.002 141.336 124.537 142.592 124.578H152.538C153.796 124.538 155.017 125.003 155.935 125.872C156.853 126.741 157.392 127.942 157.434 129.211V129.889C157.433 129.939 157.413 129.986 157.379 130.021C157.344 130.056 157.296 130.076 157.247 130.076H137.884C137.835 130.076 137.788 130.056 137.753 130.021C137.718 129.986 137.699 129.939 137.699 129.889V129.202ZM139.777 135.272C139.744 135.324 139.699 135.367 139.646 135.397C139.593 135.427 139.533 135.443 139.472 135.445H134.906C134.703 135.445 134.282 135.351 134.282 134.729L134.591 133.119C134.697 132.559 135.793 132.59 136.281 132.884L139.657 134.762C139.74 134.815 139.799 134.898 139.822 134.995C139.844 135.091 139.828 135.193 139.777 135.278V135.272ZM160.546 133.119L160.855 134.735C160.855 135.357 160.434 135.451 160.231 135.451H155.665C155.586 135.449 155.509 135.421 155.447 135.372C155.384 135.322 155.339 135.254 155.319 135.176C155.298 135.099 155.302 135.017 155.332 134.942C155.361 134.868 155.413 134.805 155.48 134.762L158.862 132.884C159.336 132.59 160.433 132.556 160.546 133.119Z" fill="#D9D9D9"/>
<path fill-rule="evenodd" clip-rule="evenodd" d="M210.227 143.91L210.214 143.912L210.127 143.955L210.103 143.959L210.086 143.955L209.999 143.912C209.986 143.908 209.977 143.91 209.97 143.918L209.965 143.93L209.944 144.449L209.951 144.473L209.963 144.489L210.09 144.579L210.108 144.583L210.123 144.579L210.249 144.489L210.264 144.469L210.269 144.449L210.248 143.932C210.245 143.919 210.238 143.911 210.227 143.91ZM210.551 143.773L210.535 143.775L210.309 143.888L210.297 143.9L210.293 143.913L210.315 144.434L210.321 144.449L210.331 144.457L210.576 144.57C210.592 144.574 210.604 144.571 210.612 144.56L210.617 144.543L210.575 143.8C210.571 143.785 210.563 143.776 210.551 143.773ZM209.679 143.775C209.673 143.772 209.667 143.771 209.661 143.772C209.654 143.774 209.649 143.777 209.646 143.783L209.638 143.8L209.597 144.543C209.598 144.558 209.605 144.568 209.618 144.572L209.636 144.57L209.881 144.457L209.893 144.448L209.898 144.434L209.919 143.913L209.915 143.899L209.903 143.887L209.679 143.775Z" fill="#D9D9D9"/>
<path fill-rule="evenodd" clip-rule="evenodd" d="M204.112 123.177C203.682 123.177 203.26 123.29 202.888 123.504C202.516 123.719 202.208 124.027 201.995 124.398L197.628 131.988C197.417 132.354 197.306 132.769 197.306 133.191V138.64C197.306 139.016 197.394 139.387 197.563 139.723L198.927 142.432C199.129 142.835 199.441 143.173 199.826 143.41C200.212 143.647 200.656 143.772 201.109 143.772H202.185C202.832 143.772 203.453 143.517 203.91 143.062C204.368 142.608 204.625 141.992 204.625 141.349H214.384C214.384 141.992 214.641 142.608 215.098 143.062C215.556 143.517 216.176 143.772 216.823 143.772H217.899C218.352 143.772 218.797 143.647 219.182 143.41C219.567 143.173 219.879 142.835 220.081 142.432L221.445 139.723C221.615 139.388 221.703 139.016 221.703 138.64V133.191C221.703 132.769 221.592 132.354 221.381 131.988L217.014 124.398C216.8 124.027 216.492 123.719 216.12 123.504C215.748 123.29 215.326 123.177 214.896 123.177H204.112ZM209.504 132.869C207.556 132.869 205.757 132.453 203.95 131.784C203.661 131.641 203.326 131.617 203.019 131.719C202.712 131.821 202.458 132.039 202.313 132.327C202.169 132.615 202.145 132.947 202.247 133.252C202.35 133.557 202.57 133.809 202.86 133.953C203.462 134.25 206.528 135.292 209.504 135.292C211.766 135.292 214.101 134.96 216.146 133.954C216.434 133.809 216.653 133.556 216.756 133.252C216.859 132.948 216.837 132.616 216.695 132.327C216.624 132.185 216.525 132.058 216.403 131.953C216.282 131.849 216.142 131.769 215.99 131.719C215.838 131.668 215.677 131.648 215.517 131.659C215.358 131.671 215.202 131.713 215.058 131.784C213.393 132.611 211.329 132.869 209.504 132.869Z" fill="#D9D9D9"/>
<path fill-rule="evenodd" clip-rule="evenodd" d="M270.916 143.822L270.902 143.824L270.824 143.862L270.802 143.867L270.786 143.862L270.708 143.823C270.696 143.82 270.687 143.822 270.681 143.829L270.677 143.84L270.658 144.31L270.664 144.332L270.675 144.346L270.79 144.428L270.806 144.432L270.82 144.428L270.935 144.346L270.948 144.329L270.952 144.31L270.933 143.842C270.93 143.83 270.925 143.823 270.916 143.822ZM271.208 143.698L271.192 143.7L270.989 143.802L270.978 143.813L270.974 143.825L270.994 144.297L271 144.31L271.009 144.319L271.231 144.42C271.245 144.424 271.255 144.421 271.263 144.411L271.267 144.396L271.23 143.722C271.226 143.708 271.219 143.7 271.208 143.698ZM270.417 143.7C270.412 143.697 270.407 143.696 270.401 143.697C270.395 143.698 270.391 143.702 270.387 143.706L270.381 143.722L270.343 144.396C270.344 144.409 270.35 144.418 270.362 144.422L270.379 144.42L270.601 144.318L270.612 144.309L270.615 144.297L270.635 143.825L270.632 143.812L270.621 143.801L270.417 143.7Z" fill="#D9D9D9"/>
<path fill-rule="evenodd" clip-rule="evenodd" d="M265.174 126.25C265.895 125.296 266.83 124.521 267.904 123.988C268.979 123.454 270.163 123.177 271.364 123.177H276.891C277.771 123.177 278.614 123.524 279.236 124.141C279.858 124.759 280.207 125.597 280.207 126.47V140.741C280.207 141.323 279.974 141.882 279.56 142.294C279.145 142.705 278.583 142.937 277.997 142.937H262.522C261.935 142.937 261.373 142.705 260.958 142.294C260.544 141.882 260.311 141.323 260.311 140.741V134.52C260.311 133.332 260.699 132.177 261.416 131.227L265.174 126.25ZM271.364 125.372C270.506 125.372 269.66 125.571 268.893 125.952C268.125 126.333 267.458 126.886 266.943 127.568L263.627 131.959H277.997V126.47C277.997 126.179 277.88 125.9 277.673 125.694C277.466 125.488 277.184 125.372 276.891 125.372H271.364ZM273.575 135.252C273.282 135.252 273.001 135.368 272.794 135.574C272.586 135.78 272.47 136.059 272.47 136.35C272.47 136.641 272.586 136.92 272.794 137.126C273.001 137.332 273.282 137.448 273.575 137.448H274.681C274.974 137.448 275.255 137.332 275.462 137.126C275.669 136.92 275.786 136.641 275.786 136.35C275.786 136.059 275.669 135.78 275.462 135.574C275.255 135.368 274.974 135.252 274.681 135.252H273.575Z" fill="#D9D9D9"/>
<path d="M256.031 67.22C256.586 66.1302 257.65 66.3118 258.112 66.5389L262.969 69.2633C265.937 70.928 263.663 71.3066 262.969 71.3066C262.414 71.3066 257.65 70.8526 255.337 70.6255C255.337 69.9444 255.476 68.3097 256.031 67.22Z" fill="#FAFAFA"/>
<rect x="119" y="6.5" width="179.286" height="14.0935" rx="7.04676" fill="#1C0A36" fill-opacity="0.06"/>
<rect x="277.054" y="10.0235" width="17.6927" height="7.04676" rx="3.52338" fill="#BC1418"/>
<rect x="257.003" y="10.0235" width="17.6927" height="7.04676" rx="3.52338" fill="#FAFAFA"/>
<rect x="162.642" y="10.0235" width="69.5911" height="7.04676" rx="3.52338" fill="#FAFAFA"/>
<path d="M133.193 18.5023H123.658L125.643 15.9217H133.282C133.909 15.9217 134.193 15.7289 134.193 15.284C134.193 14.8242 133.894 14.6314 133.253 14.6314H127.851C125.419 14.6314 124.016 13.5339 124.016 11.6504C124.016 9.60372 125.404 8.58038 128.224 8.58038H136.953L134.969 11.161H127.985C127.344 11.161 127.045 11.3686 127.045 11.7987C127.045 12.2436 127.344 12.4513 127.985 12.4513H133.432C135.909 12.4513 137.222 13.4449 137.222 15.3285C137.222 17.5086 135.968 18.5023 133.193 18.5023ZM153.55 18.5023H141.956L143.807 15.9217H148.104L145.284 11.8729L140.554 18.5023H136.943L143.344 9.52956C143.777 8.93632 144.374 8.41724 145.329 8.41724C146.254 8.41724 146.865 8.90666 147.298 9.52956L153.55 18.5023Z" fill="#BC1418"/>
<path d="M133.307 18.5589H123.772L125.757 15.9784H133.396C134.023 15.9784 134.306 15.7856 134.306 15.3406C134.306 14.8809 134.008 14.6881 133.366 14.6881H127.965C125.533 14.6881 124.13 13.5906 124.13 11.707C124.13 9.66036 125.518 8.63702 128.338 8.63702H137.067L135.082 11.2176H128.099C127.458 11.2176 127.159 11.4252 127.159 11.8553C127.159 12.3003 127.458 12.5079 128.099 12.5079H133.545C136.022 12.5079 137.335 13.5016 137.335 15.3851C137.335 17.5653 136.082 18.5589 133.307 18.5589ZM153.664 18.5589H142.07L143.92 15.9784H148.218L145.397 11.9295L140.667 18.5589H137.057L143.458 9.5862C143.89 8.99296 144.487 8.47388 145.442 8.47388C146.367 8.47388 146.979 8.9633 147.412 9.5862L153.664 18.5589Z" fill="#BC1418"/>
</svg>
