<svg width="320" height="248" viewBox="0 0 320 248" fill="none" xmlns="http://www.w3.org/2000/svg">
<ellipse cx="95.0904" cy="231.033" rx="81.8605" ry="6.58667" fill="#F0F0F0"/>
<path d="M320 43.5533C320 32.5076 311.046 23.5533 300 23.5533H20C8.95431 23.5533 8.88109e-06 32.5076 8.88109e-06 43.5533V169.819C8.88109e-06 182.632 11.8793 192.14 24.3809 189.333L304.381 126.474C313.511 124.424 320 116.317 320 106.96V43.5533Z" fill="#EAA038"/>
<rect x="108.32" y="0.5" width="202.876" height="159.727" rx="10" fill="#FAFAFA" stroke="#F0F0F0"/>
<rect x="120.397" y="28.17" width="178.432" height="83.8033" rx="3.5" stroke="#D9D9D9"/>
<path d="M195.122 41.6673C186.019 41.6434 175.766 42.3656 163.834 44.1779C162.425 44.3722 148.856 52.0065 145.197 57.2757C141.539 62.5451 140.288 72.5753 140.288 72.5753C139.3 76.6829 139.9 83.4722 140.175 84.1323C140.547 85.5615 142.648 86.761 146.256 87.6283C146.676 81.0283 152.222 75.8855 158.927 75.8773C165.948 75.8773 171.639 81.491 171.639 88.4147C171.634 88.9676 171.592 89.5196 171.514 90.0671C171.702 90.0697 171.914 90.0747 172.092 90.0765L248.128 90.7003C247.984 89.9467 247.91 89.1816 247.908 88.4147C247.908 81.491 253.6 75.8773 260.62 75.8773C267.64 75.8773 273.331 81.491 273.331 88.4147C273.331 89.251 273.247 90.0853 273.078 90.9046L292.84 91.0667C293.259 83.9166 295.02 76.4074 290.608 70.1544C288.874 67.697 280.461 63.2469 259.137 59.9176C248.12 54.4607 237.368 48.2735 225.658 44.7279C216.63 42.9617 206.826 41.6977 195.122 41.6673ZM189.657 45.4235C191.563 45.4372 193.312 45.5143 194.746 45.6773L197.062 60.8325C183.896 59.2362 170.48 57.8038 163.388 52.2131C163.499 50.4892 165.918 47.9936 168.633 47.0395C170.171 46.4992 181.398 45.3639 189.657 45.4235ZM200.661 45.5325C208.609 45.6153 220.374 46.3757 228.468 49.9018C232.345 51.6727 239.646 55.8176 244.528 59.4772L242.51 62.7792C229.256 62.19 211.593 61.4619 204.343 60.6542L200.661 45.5325Z" fill="#D9D9D9"/>
<path d="M278.71 69.9744C279.415 68.5214 280.765 68.7636 281.353 69.0663L287.518 72.6989C291.285 74.9185 288.399 75.4233 287.518 75.4233C286.813 75.4233 280.765 74.8179 277.829 74.5152C277.829 73.607 278.006 71.4275 278.71 69.9744Z" fill="#FAFAFA"/>
<ellipse cx="159.173" cy="88.185" rx="10.3359" ry="10.2917" fill="#D9D9D9"/>
<ellipse cx="260.879" cy="88.185" rx="10.3359" ry="10.2917" fill="#D9D9D9"/>
<rect x="119.897" y="118.237" width="139.182" height="7.04676" rx="3.52338" fill="#D9D9D9"/>
<rect x="119.897" y="129.763" width="171.99" height="7.41" rx="3.705" fill="#D9D9D9"/>
<rect x="185.22" y="144.583" width="49.6124" height="9.05667" rx="4.52833" fill="#EAA038"/>
<path d="M146.357 31.7867C141.258 32.61 131.059 37.1383 131.059 48.665" stroke="#D9D9D9" stroke-linecap="round"/>
<path d="M149.664 37.55C145.805 38.1926 138.088 41.7269 138.088 50.7233" stroke="#D9D9D9" stroke-linecap="round"/>
<ellipse cx="128.705" cy="74.6716" rx="3.01989" ry="3.00696" fill="#D9D9D9"/>
<ellipse cx="131.221" cy="77.1774" rx="2.01326" ry="2.00464" fill="#D9D9D9"/>
<ellipse cx="133.486" cy="73.4187" rx="3.77486" ry="3.7587" fill="#D9D9D9"/>
<ellipse cx="3.01059" cy="3.01626" rx="3.01059" ry="3.01626" transform="matrix(0.531489 -0.847065 0.849108 0.528219 123.578 66.3217)" fill="#D9D9D9"/>
<ellipse cx="2.00706" cy="2.01084" rx="2.00706" ry="2.01084" transform="matrix(0.531489 -0.847065 0.849108 0.528219 128.432 65.2053)" fill="#D9D9D9"/>
<ellipse cx="3.76324" cy="3.77033" rx="3.76324" ry="3.77033" transform="matrix(0.531489 -0.847065 0.849108 0.528219 124.004 61.8593)" fill="#D9D9D9"/>
<rect x="137.261" y="81.1866" width="5.78811" height="2.47" rx="1" fill="#D9D9D9"/>
<path d="M235.659 100.947H266.253" stroke="#D9D9D9" stroke-linecap="round"/>
<path d="M135.607 100.947H166.202" stroke="#D9D9D9" stroke-linecap="round"/>
<path d="M228.217 95.1833H243.101" stroke="#D9D9D9" stroke-linecap="round"/>
<path d="M128.992 95.1833H143.876" stroke="#D9D9D9" stroke-linecap="round"/>
<path d="M62.8935 86.3883C62.8962 86.3898 69.4792 90.0951 74.2085 93.6991C78.0334 96.614 83.6503 102.14 85.6831 104.672C88.5148 108.201 89.4355 110.384 91.4597 113.682C93.4837 116.98 95.0033 119.293 96.764 122.001L96.0633 122.335C96.8483 122.868 97.3972 122.789 99.8491 125.584C100.769 126.699 100.767 126.7 101.687 127.815C102.016 128.212 105.37 130.823 104.853 131.727C104.418 132.488 100.769 128.84 100.398 129.431C99.9152 130.204 105.416 133.916 104.682 135.075C103.951 136.234 99.8107 131.219 99.384 131.977C99.041 132.587 104.871 137.349 103.752 138.265C102.632 139.181 98.6153 133.254 98.0285 133.608C97.4428 133.963 101.545 138.759 101.053 139.54C100.809 139.926 100.493 139.998 99.1856 138.641C97.0232 136.397 94.4862 132.647 93.7689 132.592C93.052 132.537 94.1144 134.234 93.8981 135.871C93.6817 137.509 92.1205 137.954 92.2192 136.674C92.3181 135.395 91.4325 133.822 90.637 131.249C89.88 128.801 90.3691 127.551 89.4054 125.516L88.3056 126.041L76.0955 112.005C76.082 111.974 73.92 106.926 67.8185 102.814C61.1106 98.2929 61.0621 98.3364 56.6959 94.6106L62.8935 86.3883Z" fill="#FFCAC2"/>
<path d="M35.4994 45.5738C42.6654 44.5985 49.4582 50.3719 51.2947 58.6923C52.3533 59.1204 53.1999 60.2418 53.3932 61.6492C53.6215 63.3128 52.8625 64.8346 51.6372 65.3734C51.1016 69.8883 49.01 73.8278 45.9277 76.2784L46.3815 79.5843L48.2608 79.3294C49.0895 79.2167 49.9016 79.6313 50.2963 80.369L55.238 89.6032L40.7198 96.8529L29.4898 86.7032L33.3648 84.7374C34.0969 84.3661 34.5272 83.5842 34.4497 82.7667L34.0021 78.0504C30.3149 76.5863 27.1698 73.3764 25.3779 69.1678C25.2916 69.1895 25.2039 69.2084 25.1141 69.2206C23.5185 69.4378 22.0088 68.0395 21.7421 66.0978C21.4948 64.2965 22.4042 62.6606 23.8107 62.2598C23.4135 53.8268 28.3822 46.5428 35.4994 45.5738Z" fill="#FFCAC2"/>
<path d="M92.8909 165.211C91.9763 167.434 89.3403 167.076 88.381 169.445C87.7025 171.081 87.7042 172.914 88.3858 174.546C88.6856 175.356 89.2055 176.224 89.2292 177.084C89.2612 178.175 89.289 179.279 89.3392 180.374C89.388 182.117 93.4711 180.269 93.2716 182.001C92.8829 186.252 94.6691 187.565 97.6574 190.446C99.1074 191.919 100.096 195.305 102.016 196.093C103.401 196.65 102.611 201.16 103.817 200.074C105.023 198.989 105.187 197.177 105.023 195.683C104.849 193.853 103.871 192.185 103.261 190.484C102.65 188.783 101.806 186.327 102.251 184.587C102.573 183.11 101.936 178.911 102.1 177.409C102.49 174.668 102.488 174.719 103.618 171.928L104.208 170.718C105.138 168.391 106.287 163.808 106.287 163.808L93.7482 161.969C93.5904 163.079 93.3027 164.167 92.8909 165.211Z" fill="#FFCAC2"/>
<path d="M139.112 216.397C141.08 217.787 140.132 220.263 142.233 221.73C143.679 222.758 145.473 223.172 147.223 222.88C148.084 222.773 149.051 222.465 149.897 222.637C150.972 222.853 152.058 223.076 153.141 223.275C154.857 223.622 153.973 219.244 155.623 219.83C159.693 221.169 153.22 213.562 156.715 211.316C158.484 210.243 162.02 210.051 163.225 208.367C164.084 207.15 166.751 208.56 165.963 207.144C165.174 205.729 165.004 205.537 163.506 205.358C161.676 205.113 159.822 205.683 158.02 205.89C156.218 206.097 161.786 212.532 160.185 211.707C158.813 211.06 154.562 210.726 153.13 210.227C150.537 209.229 150.586 209.243 148.112 207.514L147.061 206.668C144.996 205.239 140.772 203.087 140.772 203.087L136.135 214.832C137.185 215.236 138.184 215.761 139.112 216.397Z" fill="#FFCAC2"/>
<path d="M66.8315 127.205C68.4642 128.891 75.5226 127.003 82.1523 125.12C95.1898 121.426 101.698 117.182 107.872 117.476C111.35 117.64 113.807 118.623 116.382 121.592C119.642 126.046 119.591 127.936 119.252 130.816C117.755 143.529 112.66 154.21 109.12 165.152C109.12 165.152 96.7169 161.712 90.2602 162.821L98.0707 142.544L72.8329 151.63L66.8315 127.205Z" fill="#E8383C"/>
<path d="M45.7522 76.8286C41.0725 80.4651 36.8124 79.9446 34.8304 79.3298C34.8304 79.3298 38.3909 80.8044 40.5753 80.3042C42.7597 79.8039 45.7522 76.8286 45.7522 76.8286Z" fill="#FFA8A7" stroke="#FFA8A7" stroke-width="0.4" stroke-linecap="round"/>
<path d="M139.828 218.386C146.03 215.127 148.805 209.187 148.082 207.43C151.116 206.289 155.489 204.682 159.838 203.151C166.338 200.863 172.784 198.746 174.626 198.61C176.785 199.078 176.695 200.549 176.38 201.226L151.282 227.776C150.523 228.579 149.254 228.617 148.448 227.862L147.677 227.139C146.191 225.746 141.409 221.942 139.828 218.386Z" fill="#FAFAFA" stroke="#DEDEDE"/>
<path d="M147.678 227.139L174.618 198.64C176.349 198.708 176.826 200.012 176.499 201.1L151.282 227.776C150.523 228.578 149.255 228.617 148.449 227.861L147.678 227.139Z" fill="#1B1818" stroke="#1B1818"/>
<path d="M152.033 212.483C151.998 212.55 151.935 212.602 151.853 212.63C151.807 212.646 151.755 212.654 151.702 212.653C151.649 212.652 151.594 212.643 151.542 212.625C151.49 212.608 151.441 212.582 151.398 212.551C151.356 212.519 151.32 212.482 151.292 212.441C150.701 211.356 150.384 210.217 150.362 209.098C150.341 207.979 150.616 206.907 151.169 205.954C151.193 205.919 151.226 205.889 151.267 205.866C151.307 205.844 151.353 205.829 151.404 205.822C151.454 205.815 151.507 205.816 151.56 205.826C151.613 205.836 151.665 205.854 151.712 205.879C151.759 205.905 151.802 205.937 151.836 205.973C151.871 206.01 151.897 206.051 151.914 206.093C151.93 206.136 151.937 206.179 151.933 206.221C151.929 206.263 151.914 206.303 151.89 206.338C151.404 207.201 151.162 208.167 151.182 209.173C151.202 210.18 151.482 211.205 152.005 212.184C152.038 212.232 152.058 212.284 152.063 212.337C152.067 212.389 152.057 212.439 152.033 212.483Z" fill="#C1C1C1"/>
<path d="M154.175 211.7C154.141 211.767 154.078 211.819 153.996 211.847C153.949 211.863 153.898 211.871 153.845 211.87C153.791 211.869 153.737 211.86 153.685 211.842C153.633 211.825 153.584 211.799 153.541 211.768C153.498 211.736 153.462 211.699 153.435 211.658C152.843 210.573 152.526 209.434 152.505 208.315C152.484 207.196 152.759 206.124 153.312 205.171C153.336 205.136 153.369 205.106 153.409 205.083C153.449 205.061 153.496 205.045 153.547 205.039C153.597 205.032 153.65 205.033 153.703 205.043C153.756 205.053 153.807 205.071 153.855 205.096C153.902 205.122 153.944 205.153 153.979 205.19C154.013 205.227 154.04 205.268 154.056 205.31C154.073 205.353 154.079 205.396 154.075 205.438C154.071 205.48 154.057 205.52 154.033 205.555C153.546 206.418 153.305 207.384 153.325 208.39C153.345 209.397 153.625 210.422 154.148 211.401C154.181 211.449 154.201 211.501 154.205 211.553C154.21 211.606 154.2 211.656 154.175 211.7Z" fill="#C1C1C1"/>
<path d="M156.318 210.916C156.284 210.983 156.221 211.035 156.139 211.063C156.093 211.079 156.041 211.087 155.988 211.086C155.934 211.085 155.88 211.076 155.828 211.058C155.776 211.041 155.727 211.015 155.684 210.984C155.641 210.952 155.605 210.915 155.578 210.874C154.986 209.789 154.669 208.65 154.648 207.531C154.627 206.412 154.902 205.34 155.455 204.387C155.479 204.352 155.512 204.322 155.552 204.299C155.593 204.277 155.639 204.262 155.69 204.255C155.74 204.248 155.793 204.249 155.846 204.259C155.899 204.269 155.95 204.287 155.998 204.312C156.045 204.338 156.087 204.37 156.122 204.406C156.157 204.443 156.183 204.484 156.199 204.526C156.216 204.569 156.222 204.612 156.218 204.654C156.214 204.696 156.2 204.736 156.176 204.771C155.689 205.634 155.448 206.6 155.468 207.606C155.488 208.613 155.768 209.638 156.291 210.617C156.324 210.665 156.344 210.717 156.348 210.77C156.353 210.822 156.343 210.872 156.318 210.916Z" fill="#C1C1C1"/>
<path d="M29.943 59.3886C30.493 58.5574 32.3962 57.073 35.6092 57.7854C35.2208 58.0191 31.7928 59.0108 29.943 59.3886Z" fill="#1C1D19"/>
<path d="M47.9201 56.9419C47.1662 56.2881 44.9328 55.3668 42.0296 56.9116C42.4667 57.0329 46.0363 57.0722 47.9201 56.9419Z" fill="#1C1D19"/>
<ellipse cx="1.94386" cy="2.58113" rx="1.94386" ry="2.58113" transform="matrix(-0.990864 0.134861 0.136002 0.990709 35.8091 59.2415)" fill="#FAFAFA"/>
<ellipse cx="0.647954" cy="0.967923" rx="0.647954" ry="0.967923" transform="matrix(-0.990864 0.134861 0.136002 0.990709 35.3716 60.3212)" fill="#393939"/>
<ellipse cx="1.94386" cy="2.58113" rx="1.94386" ry="2.58113" transform="matrix(-0.990864 0.134861 0.136002 0.990709 46.2085 57.8513)" fill="#FAFAFA"/>
<ellipse cx="0.647954" cy="0.967923" rx="0.647954" ry="0.967923" transform="matrix(-0.990864 0.134861 0.136002 0.990709 45.771 58.931)" fill="#393939"/>
<path d="M24.8179 66.8275C24.3299 66.5124 24.0952 66.6735 24.5468 64.3946" stroke="#B68881" stroke-width="0.6" stroke-linecap="round"/>
<path d="M40.4864 63.545L40.8251 66.0123C40.833 66.0694 40.8651 66.1204 40.9133 66.1522L41.1485 66.3074C41.5825 66.5937 41.7252 67.1644 41.4768 67.6205L41.0804 68.3484" stroke="#B68881" stroke-width="0.6" stroke-linecap="round"/>
<path d="M36.9631 73.1622C36.7924 72.6086 36.1676 72.5272 37.984 71.0695" stroke="#B68881" stroke-width="0.6" stroke-linecap="round"/>
<path d="M37.1749 71.9598C38.4601 72.8621 41.5139 74.0301 43.4477 71.4838" stroke="#B68881" stroke-width="0.6" stroke-linecap="round"/>
<path d="M69.5109 105.029C68.9346 103.938 68.1162 102.385 66.5639 100.245" stroke="#DEDEDE" stroke-linecap="round"/>
<path d="M45.2369 149.735C44.7399 153.385 39.1986 159.05 38.1067 160.501" stroke="#1C0A36" stroke-linecap="round"/>
<path d="M72.9613 130.516C76.6059 131.143 76.7793 127.348 78.4978 126.748" stroke="#1C0A36" stroke-linecap="round"/>
<path d="M92.8241 165.318C95.0128 171.953 100.429 175.671 102.29 175.256C102.912 178.425 103.771 182.987 104.558 187.513C105.735 194.276 106.752 200.958 106.578 202.79C105.754 204.831 104.312 204.496 103.695 204.074L81.6097 174.99C80.9417 174.111 81.1155 172.859 81.998 172.195L82.8432 171.558C84.472 170.332 89.0392 166.275 92.8241 165.318Z" fill="#FAFAFA" stroke="#DEDEDE"/>
<path d="M82.8434 171.559L106.549 202.777C106.193 204.465 104.821 204.715 103.799 204.211L81.6099 174.991C80.9419 174.111 81.1157 172.86 81.9981 172.195L82.8434 171.559Z" fill="#1B1818" stroke="#1B1818"/>
<path d="M96.6249 178.287C96.5643 178.243 96.5236 178.172 96.5094 178.087C96.5014 178.039 96.5023 177.987 96.5121 177.935C96.5219 177.882 96.5403 177.831 96.5665 177.783C96.5926 177.734 96.6258 177.691 96.6642 177.654C96.7026 177.617 96.7455 177.588 96.7905 177.568C97.9638 177.169 99.1454 177.048 100.257 177.215C101.368 177.381 102.383 177.831 103.235 178.534C103.265 178.563 103.289 178.6 103.305 178.644C103.32 178.687 103.328 178.735 103.326 178.786C103.324 178.836 103.314 178.888 103.295 178.939C103.277 178.989 103.25 179.036 103.217 179.079C103.184 179.121 103.146 179.157 103.104 179.185C103.062 179.213 103.017 179.232 102.972 179.241C102.927 179.25 102.883 179.249 102.842 179.238C102.801 179.227 102.764 179.206 102.734 179.177C101.96 178.555 101.045 178.156 100.045 178.007C99.0447 177.858 97.9826 177.961 96.9262 178.311C96.8727 178.335 96.8176 178.346 96.7652 178.342C96.7129 178.338 96.6648 178.319 96.6249 178.287Z" fill="#C1C1C1"/>
<path d="M97.0416 180.522C96.981 180.477 96.9403 180.407 96.9261 180.321C96.9181 180.273 96.919 180.221 96.9287 180.169C96.9385 180.117 96.957 180.065 96.9831 180.017C97.0092 179.969 97.0424 179.925 97.0809 179.888C97.1193 179.851 97.1622 179.822 97.2071 179.802C98.3805 179.403 99.5621 179.283 100.673 179.449C101.784 179.616 102.8 180.065 103.651 180.768C103.682 180.797 103.706 180.835 103.721 180.878C103.737 180.921 103.744 180.97 103.743 181.02C103.741 181.071 103.731 181.123 103.712 181.173C103.693 181.223 103.667 181.271 103.634 181.313C103.601 181.355 103.562 181.391 103.52 181.419C103.478 181.447 103.433 181.466 103.389 181.475C103.344 181.484 103.299 181.483 103.259 181.472C103.218 181.462 103.181 181.441 103.15 181.412C102.377 180.789 101.461 180.391 100.461 180.241C99.4614 180.092 98.3993 180.196 97.3429 180.545C97.2894 180.57 97.2343 180.58 97.1819 180.576C97.1296 180.572 97.0815 180.554 97.0416 180.522Z" fill="#C1C1C1"/>
<path d="M97.4589 182.757C97.3983 182.712 97.3576 182.642 97.3434 182.556C97.3354 182.508 97.3363 182.456 97.346 182.404C97.3558 182.352 97.3743 182.3 97.4004 182.252C97.4265 182.204 97.4597 182.16 97.4982 182.123C97.5366 182.086 97.5795 182.057 97.6244 182.037C98.7978 181.638 99.9794 181.518 101.091 181.684C102.202 181.851 103.217 182.3 104.069 183.003C104.099 183.032 104.123 183.07 104.139 183.113C104.154 183.156 104.162 183.205 104.16 183.255C104.158 183.306 104.148 183.358 104.129 183.408C104.111 183.458 104.084 183.506 104.051 183.548C104.018 183.59 103.98 183.626 103.938 183.654C103.896 183.682 103.851 183.701 103.806 183.71C103.761 183.719 103.717 183.718 103.676 183.707C103.635 183.697 103.598 183.676 103.568 183.646C102.794 183.024 101.879 182.626 100.879 182.476C99.8787 182.327 98.8166 182.431 97.7602 182.78C97.7067 182.805 97.6516 182.815 97.5992 182.811C97.5469 182.807 97.4988 182.789 97.4589 182.757Z" fill="#C1C1C1"/>
<path d="M83.6727 162.685L73.8423 154.649C75.3393 141.978 69.7961 128.822 62.4066 122.534C60.1242 138.535 43.6265 146.08 32.6704 145.705C33.8128 151.872 36.4368 160.901 41.3591 165.381C46.2815 169.86 61.9096 178.796 69.8587 182.265C77.8078 185.734 92.82 195.249 103.457 199.839L134.242 218.62L143.084 203.1L130.942 194.581L105.877 177.363C102.659 174.772 86.3777 164.856 83.6727 162.685Z" fill="#E8383C"/>
<path d="M73.1783 147.465C73.454 149.112 74.2533 153.887 73.5918 154.875" stroke="#0958C9" stroke-linecap="round"/>
<path d="M55.7278 76.3515C56.4016 76.2187 57.0346 76.1583 57.6305 76.1673C65.0296 75.4865 67.8663 76.0695 75.6584 87.7731C81.3267 96.3117 83.9324 100.345 83.9588 100.386L82.9519 101.457C80.1318 104.456 76.7233 106.841 72.9395 108.464L72.2449 108.762C71.5191 107.803 70.9187 107.098 70.4089 106.571C72.5024 117.748 73.2064 120.985 75.1377 123.06C75.2018 132.838 54.8982 152.611 33.3332 149.961C31.1858 144.176 29.3702 138.273 27.8948 132.283C24.7705 119.222 23.7056 115.684 22.2464 104.365C21.2844 96.8833 24.0243 90.4238 25.5366 88.5093C28.4302 86.9388 28.5857 87.1304 30.5527 86.1816C33.9239 84.5555 36.1564 91.4682 43.4103 88.1853C52.5048 84.0692 46.6346 79.7168 47.7709 79.3168C51.8188 77.8975 51.8523 77.6533 53.3333 77.0701C54.1696 76.7407 54.9536 76.5064 55.6894 76.3587L55.689 76.3558C55.7019 76.3545 55.7148 76.3528 55.7278 76.3515Z" fill="#FAFAFA"/>
<path d="M15.8398 103.516C15.5168 94.8699 19.5869 91.4584 25.5753 88.7874C32.5363 94.9691 31.7255 111.476 31.7255 111.476L31.0578 133.958C31.0578 133.958 52.0504 136.817 54.0819 136.099L55.3749 145.518C51.709 145.71 37.8764 147.015 26.6679 144.635C20.1155 143.24 19.9885 140.547 19.0891 134.643C16.8733 120.097 16.1794 112.714 15.8398 103.516Z" fill="#FFCAC2"/>
<path d="M15.663 98.2816C17.3077 91.7712 22.5908 89.8737 25.9275 88.3178C32.886 93.0151 32.0421 107.983 32.3578 111.576C32.466 112.808 32.7144 115.492 32.994 118.487L32.6289 118.619C27.4387 120.503 21.8274 120.918 16.4133 119.817L16.2479 119.784C15.241 110.553 14.0182 104.792 15.663 98.2816Z" fill="#FAFAFA"/>
<path d="M98.5712 142.094C98.6877 139.313 98.9182 135.598 101.017 133.334C101.017 133.334 97.0051 135.452 96.2577 142.938L98.5712 142.094Z" fill="#0958C9"/>
<path d="M42.584 150.347C42.8769 154.074 37.7932 158.715 38.1067 160.501" stroke="#0958C9" stroke-linecap="round"/>
<path d="M30.7421 133.354C29.3541 133.171 27.3914 132.595 26.3522 131.45C26.3522 131.45 27.2318 133.539 30.9481 134.247L30.7421 133.354Z" fill="#FFA8A7"/>
<rect width="11.9956" height="23.143" rx="2" transform="matrix(0.997544 0.0700471 -0.0706477 0.997501 67.0558 124.161)" fill="#FEFFD9"/>
<rect width="4.49837" height="5.22585" rx="1" transform="matrix(0.997544 0.0700471 -0.0706477 0.997501 68.446 125.756)" fill="#CECFB1"/>
<ellipse cx="0.749728" cy="0.74655" rx="0.749728" ry="0.74655" transform="matrix(0.997544 0.0700471 -0.0706477 0.997501 69.1412 126.553)" fill="#787878"/>
<ellipse cx="0.749728" cy="0.74655" rx="0.749728" ry="0.74655" transform="matrix(0.997544 0.0700471 -0.0706477 0.997501 68.983 128.787)" fill="#787878"/>
<ellipse cx="0.374864" cy="0.373275" rx="0.374864" ry="0.373275" transform="matrix(0.997544 0.0700471 -0.0706477 0.997501 71.2794 128.2)" fill="#787878"/>
<ellipse cx="1.49946" cy="1.4931" rx="1.49946" ry="1.4931" transform="matrix(0.997544 0.0700471 -0.0706477 0.997501 70.8047 134.902)" fill="#D6D6D6"/>
<path d="M62.4589 133.659C59.2251 134.568 57.1827 135.821 54.0537 136.103L55.3229 145.349C57.8276 145.797 56.8537 146.208 62.7377 147.058C64.5272 147.262 64.5264 147.26 66.3159 147.464C66.9528 147.537 71.9549 149.261 72.5545 148.113C73.0595 147.148 66.7713 145.817 67.1405 145.033C67.6226 144.008 75.23 147.222 75.95 145.676C76.6713 144.134 68.6186 143.215 69.1253 142.26C69.5329 141.492 78.4603 144.338 78.6651 142.556C78.87 140.774 69.9462 140.599 69.921 139.751C69.8959 138.902 77.6964 139.929 78.1809 138.89C78.4207 138.376 78.2831 137.999 75.9774 137.556C72.1655 136.823 66.8345 136.621 66.2923 135.913L66.3753 133.091C65.3715 133.318 63.8026 133.281 62.4589 133.659Z" fill="#FFCAC2"/>
<path d="M24.2286 51.3143C20.7502 55.6022 22.526 63.5394 26.0465 64.5573C27.4696 62.1307 26.9349 55.5978 26.4896 52.6347C32.4336 53.5702 45.948 53.831 48.5227 51.7129C51.8842 56.9064 50.7031 59.3276 51.8404 61.3955C52.0642 59.6594 52.5376 56.5325 52.3745 54.345C52.2115 52.1576 51.3293 50.3781 50.8753 49.3157C51.634 48.6697 53.0017 46.7934 52.4035 44.4558C51.8614 41.1802 50.6681 39.739 48.3306 39.1953C46.8586 38.8529 43.4372 38.4658 40.4299 38.8751C34.4487 39.689 33.0401 42.8337 30.7741 43.4456C28.5081 44.0574 24.9502 46.4711 24.2286 51.3143Z" fill="#1C1D19" stroke="#1C1D19" stroke-linecap="round"/>
<path d="M31.8347 117.825C32.2481 115.492 32.8269 110.497 31.8347 109.18" stroke="#DEDEDE" stroke-linecap="round"/>
<path d="M69.8708 106.298C68.6228 104.282 66.1499 100.331 66.1499 98.8884" stroke="#DEDEDE" stroke-linecap="round"/>
<rect x="120" y="9.5" width="179.286" height="14.0935" rx="7.04676" fill="#1C0A36" fill-opacity="0.06"/>
<rect x="278.054" y="13.0235" width="17.6927" height="7.04676" rx="3.52338" fill="#EAA038"/>
<rect x="258.003" y="13.0235" width="17.6927" height="7.04676" rx="3.52338" fill="#FAFAFA"/>
<rect x="163.642" y="13.0235" width="69.5911" height="7.04676" rx="3.52338" fill="#FAFAFA"/>
<path d="M134.193 21.5023H124.658L126.643 18.9217H134.283C134.909 18.9217 135.193 18.7289 135.193 18.284C135.193 17.8242 134.894 17.6314 134.253 17.6314H128.851C126.419 17.6314 125.017 16.5339 125.017 14.6504C125.017 12.6037 126.404 11.5804 129.224 11.5804H137.953L135.969 14.161H128.986C128.344 14.161 128.046 14.3686 128.046 14.7987C128.046 15.2436 128.344 15.4513 128.986 15.4513H134.432C136.909 15.4513 138.222 16.4449 138.222 18.3285C138.222 20.5086 136.968 21.5023 134.193 21.5023ZM154.55 21.5023H142.956L144.807 18.9217H149.104L146.284 14.8729L141.554 21.5023H137.943L144.344 12.5296C144.777 11.9363 145.374 11.4172 146.329 11.4172C147.254 11.4172 147.865 11.9067 148.298 12.5296L154.55 21.5023Z" fill="#EAA038"/>
<path d="M134.307 21.5589H124.772L126.757 18.9784H134.396C135.023 18.9784 135.306 18.7856 135.306 18.3406C135.306 17.8809 135.008 17.6881 134.366 17.6881H128.965C126.533 17.6881 125.13 16.5906 125.13 14.707C125.13 12.6604 126.518 11.637 129.338 11.637H138.067L136.082 14.2176H129.099C128.458 14.2176 128.159 14.4252 128.159 14.8553C128.159 15.3003 128.458 15.5079 129.099 15.5079H134.546C137.022 15.5079 138.335 16.5016 138.335 18.3851C138.335 20.5653 137.082 21.5589 134.307 21.5589ZM154.664 21.5589H143.07L144.92 18.9784H149.218L146.398 14.9295L141.668 21.5589H138.057L144.458 12.5862C144.891 11.993 145.487 11.4739 146.442 11.4739C147.367 11.4739 147.979 11.9633 148.412 12.5862L154.664 21.5589Z" fill="#EAA038"/>
</svg>
