<svg width="320" height="248" viewBox="0 0 320 248" fill="none" xmlns="http://www.w3.org/2000/svg">
<path d="M0 43.5533C0 32.5076 8.9543 23.5533 20 23.5533H300C311.046 23.5533 320 32.5076 320 43.5533V169.819C320 182.632 308.121 192.14 295.619 189.333L15.6191 126.474C6.4886 124.424 0 116.317 0 106.96V43.5533Z" fill="#BC1418"/>
<ellipse cx="251.783" cy="231.033" rx="47.5452" ry="6.58667" fill="#F0F0F0"/>
<rect x="78.553" y="194.807" width="80.2067" height="27.9933" rx="10" fill="#BC1418"/>
<path d="M94.695 213.803V204.349H100.558V205.577H96.1215V208.457H100.138V209.681H96.1215V213.803H94.695ZM104.668 213.946C104.003 213.946 103.423 213.794 102.927 213.489C102.432 213.185 102.047 212.758 101.773 212.211C101.499 211.663 101.362 211.023 101.362 210.29C101.362 209.555 101.499 208.911 101.773 208.361C102.047 207.81 102.432 207.382 102.927 207.077C103.423 206.772 104.003 206.62 104.668 206.62C105.333 206.62 105.913 206.772 106.408 207.077C106.904 207.382 107.288 207.81 107.562 208.361C107.836 208.911 107.973 209.555 107.973 210.29C107.973 211.023 107.836 211.663 107.562 212.211C107.288 212.758 106.904 213.185 106.408 213.489C105.913 213.794 105.333 213.946 104.668 213.946ZM104.672 212.788C105.103 212.788 105.46 212.674 105.743 212.446C106.027 212.218 106.236 211.915 106.371 211.537C106.51 211.158 106.579 210.741 106.579 210.286C106.579 209.833 106.51 209.418 106.371 209.039C106.236 208.658 106.027 208.351 105.743 208.12C105.46 207.89 105.103 207.774 104.672 207.774C104.238 207.774 103.878 207.89 103.592 208.12C103.309 208.351 103.098 208.658 102.96 209.039C102.824 209.418 102.757 209.833 102.757 210.286C102.757 210.741 102.824 211.158 102.96 211.537C103.098 211.915 103.309 212.218 103.592 212.446C103.878 212.674 104.238 212.788 104.672 212.788ZM109.514 213.803V206.712H110.848V207.839H110.922C111.051 207.457 111.279 207.157 111.605 206.939C111.935 206.717 112.307 206.606 112.722 206.606C112.809 206.606 112.91 206.609 113.027 206.615C113.147 206.622 113.241 206.629 113.309 206.639V207.959C113.253 207.943 113.155 207.927 113.013 207.908C112.872 207.887 112.73 207.876 112.589 207.876C112.262 207.876 111.971 207.945 111.716 208.084C111.464 208.219 111.264 208.408 111.116 208.651C110.968 208.891 110.894 209.165 110.894 209.473V213.803H109.514ZM118.232 206.712V207.82H114.359V206.712H118.232ZM115.398 205.014H116.778V211.721C116.778 211.989 116.818 212.191 116.898 212.326C116.978 212.458 117.081 212.549 117.207 212.598C117.337 212.645 117.477 212.668 117.627 212.668C117.738 212.668 117.835 212.66 117.918 212.645C118.001 212.629 118.066 212.617 118.112 212.608L118.361 213.748C118.281 213.779 118.168 213.81 118.02 213.84C117.872 213.874 117.687 213.893 117.466 213.896C117.103 213.902 116.764 213.837 116.45 213.702C116.136 213.566 115.882 213.357 115.688 213.074C115.495 212.791 115.398 212.435 115.398 212.008V205.014ZM124.958 208.444L123.707 208.665C123.655 208.505 123.572 208.353 123.458 208.208C123.347 208.064 123.196 207.945 123.006 207.853C122.815 207.76 122.576 207.714 122.29 207.714C121.899 207.714 121.573 207.802 121.311 207.977C121.05 208.15 120.919 208.373 120.919 208.647C120.919 208.884 121.007 209.075 121.182 209.219C121.358 209.364 121.641 209.482 122.032 209.575L123.158 209.833C123.81 209.984 124.297 210.216 124.617 210.53C124.937 210.844 125.097 211.252 125.097 211.754C125.097 212.178 124.974 212.557 124.728 212.889C124.484 213.219 124.144 213.477 123.707 213.665C123.273 213.853 122.77 213.946 122.198 213.946C121.404 213.946 120.756 213.777 120.254 213.439C119.753 213.097 119.445 212.612 119.331 211.984L120.665 211.781C120.748 212.129 120.919 212.392 121.177 212.571C121.436 212.746 121.773 212.834 122.188 212.834C122.641 212.834 123.003 212.74 123.273 212.552C123.544 212.361 123.68 212.129 123.68 211.855C123.68 211.634 123.597 211.447 123.43 211.297C123.267 211.146 123.016 211.032 122.678 210.955L121.478 210.692C120.816 210.541 120.327 210.301 120.01 209.972C119.696 209.642 119.539 209.225 119.539 208.721C119.539 208.302 119.656 207.936 119.889 207.622C120.123 207.308 120.447 207.063 120.859 206.888C121.271 206.709 121.744 206.62 122.276 206.62C123.043 206.62 123.646 206.786 124.086 207.119C124.526 207.448 124.817 207.89 124.958 208.444ZM129.671 213.946C128.972 213.946 128.37 213.797 127.866 213.499C127.364 213.197 126.976 212.774 126.702 212.229C126.431 211.681 126.296 211.04 126.296 210.304C126.296 209.578 126.431 208.938 126.702 208.384C126.976 207.83 127.358 207.397 127.847 207.086C128.34 206.776 128.915 206.62 129.574 206.62C129.974 206.62 130.362 206.686 130.737 206.819C131.113 206.951 131.45 207.159 131.748 207.442C132.047 207.725 132.282 208.093 132.454 208.545C132.627 208.995 132.713 209.541 132.713 210.184V210.673H127.076V209.639H131.36C131.36 209.276 131.286 208.955 131.139 208.674C130.991 208.391 130.783 208.168 130.515 208.005C130.251 207.842 129.94 207.76 129.583 207.76C129.195 207.76 128.857 207.856 128.567 208.047C128.281 208.234 128.059 208.481 127.903 208.785C127.749 209.087 127.672 209.415 127.672 209.769V210.576C127.672 211.05 127.755 211.454 127.921 211.786C128.09 212.118 128.326 212.372 128.627 212.548C128.929 212.72 129.281 212.806 129.684 212.806C129.946 212.806 130.185 212.769 130.4 212.695C130.615 212.618 130.802 212.505 130.959 212.354C131.116 212.203 131.236 212.017 131.319 211.795L132.625 212.031C132.521 212.415 132.333 212.752 132.062 213.042C131.794 213.328 131.457 213.551 131.051 213.711C130.648 213.868 130.188 213.946 129.671 213.946ZM137.554 206.712V207.82H133.681V206.712H137.554ZM134.72 205.014H136.1V211.721C136.1 211.989 136.14 212.191 136.22 212.326C136.3 212.458 136.403 212.549 136.53 212.598C136.659 212.645 136.799 212.668 136.95 212.668C137.06 212.668 137.157 212.66 137.241 212.645C137.324 212.629 137.388 212.617 137.434 212.608L137.684 213.748C137.604 213.779 137.49 213.81 137.342 213.84C137.194 213.874 137.01 213.893 136.788 213.896C136.425 213.902 136.086 213.837 135.772 213.702C135.459 213.566 135.205 213.357 135.011 213.074C134.817 212.791 134.72 212.435 134.72 212.008V205.014ZM142.391 206.712V207.82H138.518V206.712H142.391ZM139.557 205.014H140.937V211.721C140.937 211.989 140.977 212.191 141.057 212.326C141.137 212.458 141.24 212.549 141.366 212.598C141.496 212.645 141.636 212.668 141.787 212.668C141.897 212.668 141.994 212.66 142.077 212.645C142.161 212.629 142.225 212.617 142.271 212.608L142.521 213.748C142.441 213.779 142.327 213.81 142.179 213.84C142.031 213.874 141.847 213.893 141.625 213.896C141.262 213.902 140.923 213.837 140.609 213.702C140.295 213.566 140.042 213.357 139.848 213.074C139.654 212.791 139.557 212.435 139.557 212.008V205.014Z" fill="#FAFAFA"/>
<path d="M163.033 194.711C163.222 194.431 163.357 194.198 163.528 193.985C165.251 191.828 167.382 190.12 169.661 188.588C169.928 188.409 170.236 188.259 170.541 188.195C170.706 188.16 170.971 188.269 171.095 188.408C171.187 188.513 171.18 188.792 171.103 188.924C170.961 189.176 170.765 189.417 170.543 189.611C169.077 190.9 167.607 192.18 166.126 193.449C165.571 193.922 164.999 194.381 164.434 194.844C164.247 195.001 164.049 195.147 163.849 195.277C163.628 195.429 163.36 195.47 163.184 195.256C163.069 195.114 162.932 194.992 163.033 194.711Z" fill="#BC1418"/>
<path d="M168.679 207.481C168.389 207.32 168.044 207.153 167.725 206.952C166.47 206.155 165.215 205.359 163.97 204.552C163.7 204.376 163.456 204.151 163.244 203.916C162.958 203.604 162.931 203.297 163.093 203.03C163.255 202.763 163.551 202.666 163.958 202.804C164.236 202.897 164.529 203.009 164.769 203.167C166.337 204.22 167.901 205.286 169.456 206.356C169.63 206.476 169.796 206.637 169.897 206.818C170.156 207.265 169.862 207.717 169.343 207.668C169.141 207.647 168.936 207.552 168.679 207.481Z" fill="#BC1418"/>
<path d="M156.842 183.881C156.977 183.59 157.149 183.312 157.333 183.045C157.498 182.809 157.744 182.687 158.042 182.765C158.292 182.833 158.467 183.17 158.39 183.503C158.286 183.95 158.173 184.401 157.999 184.822C157.474 186.093 156.921 187.361 156.364 188.62C156.177 189.037 155.965 189.444 155.739 189.847C155.66 189.985 155.554 190.12 155.429 190.206C155.087 190.451 154.686 190.279 154.653 189.87C154.635 189.64 154.685 189.383 154.763 189.166C154.99 188.438 156.375 184.912 156.842 183.881Z" fill="#BC1418"/>
<path d="M74.5665 223.643C74.2685 223.662 74.0293 223.661 73.7895 223.698C71.3682 224.054 69.1104 224.923 66.9219 225.983C66.6658 226.107 66.414 226.276 66.2291 226.481C66.1291 226.591 66.0953 226.842 66.1464 226.998C66.1862 227.115 66.4036 227.234 66.5385 227.234C66.7955 227.238 67.0671 227.196 67.3156 227.112C68.9559 226.565 70.5914 226.011 72.2232 225.445C72.833 225.231 73.4401 224.998 74.0462 224.772C74.2498 224.698 74.4497 224.612 74.6388 224.518C74.8538 224.416 75.0046 224.23 74.918 224C74.8599 223.849 74.8277 223.69 74.5665 223.643Z" fill="#BC1418"/>
<path d="M81.8732 233.628C81.8779 233.335 81.9031 232.998 81.8906 232.665C81.8374 231.354 81.7841 230.042 81.7179 228.734C81.7027 228.45 81.6388 228.164 81.5529 227.897C81.4407 227.541 81.2181 227.384 80.9414 227.389C80.6647 227.394 80.4595 227.577 80.3851 227.949C80.3325 228.202 80.2884 228.475 80.3032 228.728C80.4142 230.393 80.5371 232.059 80.667 233.721C80.6819 233.907 80.7313 234.106 80.8249 234.263C81.0525 234.659 81.5288 234.635 81.7219 234.218C81.7949 234.054 81.813 233.855 81.8732 233.628Z" fill="#BC1418"/>
<path d="M68.9983 214.116C68.7148 214.089 68.4248 214.098 68.1385 214.119C67.8831 214.14 67.6803 214.275 67.6076 214.537C67.5484 214.759 67.7294 215.043 68.0198 215.132C68.409 215.252 68.8053 215.367 69.2064 215.421C70.4159 215.585 71.6357 215.726 72.8506 215.861C73.254 215.903 73.6617 215.922 74.0716 215.929C74.2125 215.93 74.3638 215.908 74.4848 215.85C74.8258 215.698 74.8718 215.314 74.5724 215.107C74.4035 214.991 74.1844 214.914 73.9824 214.878C73.3227 214.728 69.9983 214.217 68.9983 214.116Z" fill="#BC1418"/>
<rect x="9.92249" y="0.5" width="202.876" height="159.727" rx="10" fill="#FAFAFA" stroke="#F0F0F0"/>
<rect x="21.7176" y="7.54669" width="179.286" height="14.0935" rx="7.04676" fill="#1C0A36" fill-opacity="0.06"/>
<rect x="179.772" y="11.0702" width="17.6927" height="7.04676" rx="3.52338" fill="#BC1418"/>
<rect x="159.72" y="11.0702" width="17.6927" height="7.04676" rx="3.52338" fill="#FAFAFA"/>
<rect x="65.3595" y="11.0702" width="69.5911" height="7.04676" rx="3.52338" fill="#FAFAFA"/>
<rect x="25.2561" y="43.955" width="16.5131" height="3.52338" rx="1.76169" fill="#D9D9D9"/>
<rect x="25.2561" y="60.3976" width="139.182" height="7.04676" rx="3.52338" fill="#D9D9D9"/>
<rect x="25.2561" y="72.1422" width="73.1297" height="7.04676" rx="3.52338" fill="#D9D9D9"/>
<rect x="25.2561" y="92.108" width="90.8223" height="7.04676" rx="2" fill="#D9D9D9"/>
<rect x="37.0512" y="107.376" width="84.9248" height="4.69784" rx="2" fill="#D9D9D9"/>
<rect x="25.2561" y="103.853" width="173.388" height="11.7446" rx="5.8723" stroke="#D9D9D9" stroke-width="0.5"/>
<rect x="65.3595" y="43.955" width="16.5131" height="3.52338" rx="1.76169" fill="#D9D9D9"/>
<rect x="105.463" y="43.955" width="16.5131" height="3.52338" rx="1.76169" fill="#D9D9D9"/>
<rect x="145.566" y="43.955" width="16.5131" height="3.52338" rx="1.76169" fill="#D9D9D9"/>
<rect x="185.67" y="43.955" width="16.5131" height="3.52338" rx="1.76169" fill="#D9D9D9"/>
<path d="M33.5126 30.3615C36.4955 30.3615 38.9099 32.7687 38.91 35.7336C38.91 38.6986 36.4956 41.1057 33.5126 41.1057C30.5296 41.1056 28.1151 38.6986 28.1151 35.7336C28.1152 32.7687 30.5297 30.3616 33.5126 30.3615Z" fill="#BC1418" stroke="#BC1418"/>
<path d="M73.6162 35.0594C73.9934 35.0595 74.2959 35.3638 74.2959 35.7342C74.2957 36.1045 73.9933 36.4079 73.6162 36.408C73.239 36.408 72.9367 36.1045 72.9365 35.7342C72.9365 35.3637 73.2389 35.0594 73.6162 35.0594Z" fill="#E8383C" stroke="#BC1418"/>
<path d="M113.719 30.3615C116.702 30.3615 119.117 32.7687 119.117 35.7336C119.117 38.6986 116.702 41.1057 113.719 41.1057C110.736 41.1056 108.322 38.6986 108.322 35.7336C108.322 32.7687 110.736 30.3616 113.719 30.3615Z" stroke="#D9D9D9"/>
<path d="M153.823 30.3615C156.806 30.3615 159.22 32.7687 159.22 35.7336C159.22 38.6986 156.806 41.1057 153.823 41.1057C150.84 41.1056 148.425 38.6986 148.425 35.7336C148.425 32.7687 150.84 30.3616 153.823 30.3615Z" stroke="#D9D9D9"/>
<path d="M193.926 30.3615C196.909 30.3615 199.323 32.7687 199.324 35.7336C199.324 38.6986 196.909 41.1057 193.926 41.1057C190.943 41.1056 188.529 38.6986 188.529 35.7336C188.529 32.7687 190.943 30.3616 193.926 30.3615Z" stroke="#D9D9D9"/>
<rect x="39.0689" y="36.1092" width="29.3558" height="0.411667" fill="#BC1418" stroke="#BC1418" stroke-width="0.411667"/>
<rect x="79.3799" y="35.9033" width="28.9406" height="0.823333" fill="#D9D9D9"/>
<rect x="119.07" y="35.9033" width="29.7674" height="0.823333" fill="#D9D9D9"/>
<rect x="159.587" y="35.9033" width="28.9406" height="0.823333" fill="#D9D9D9"/>
<path d="M31.1541 107.626C32.3196 107.626 33.2623 108.567 33.2625 109.725C33.2625 110.883 32.3197 111.824 31.1541 111.824C29.9883 111.824 29.0447 110.883 29.0447 109.725C29.0449 108.567 29.9884 107.626 31.1541 107.626Z" stroke="#D9D9D9" stroke-width="0.5"/>
<path d="M31.1541 124.068C32.3196 124.068 33.2623 125.009 33.2625 126.167C33.2625 127.325 32.3197 128.266 31.1541 128.266C29.9883 128.266 29.0447 127.325 29.0447 126.167C29.0449 125.009 29.9884 124.068 31.1541 124.068Z" stroke="#D9D9D9" stroke-width="0.5"/>
<path d="M31.1541 140.511C32.3196 140.511 33.2623 141.452 33.2625 142.609C33.2625 143.768 32.3197 144.709 31.1541 144.709C29.9883 144.709 29.0447 143.768 29.0447 142.609C29.0449 141.451 29.9884 140.511 31.1541 140.511Z" stroke="#E8383C" stroke-width="0.5"/>
<ellipse cx="31.1536" cy="142.61" rx="1.17951" ry="1.17446" fill="#E8383C"/>
<rect x="37.0512" y="123.818" width="57.796" height="4.69784" rx="2" fill="#D9D9D9"/>
<rect x="25.2561" y="120.295" width="173.388" height="11.7446" rx="5.8723" stroke="#D9D9D9" stroke-width="0.5"/>
<rect x="37.0512" y="140.261" width="107.335" height="4.69784" rx="2" fill="#D9D9D9"/>
<rect x="25.2561" y="136.737" width="173.388" height="11.7446" rx="5.8723" stroke="#E8383C" stroke-width="0.5"/>
<path d="M73.6159 30.3615C76.5988 30.3615 79.0132 32.7687 79.0134 35.7336C79.0134 38.6986 76.5989 41.1057 73.6159 41.1057C70.6329 41.1056 68.2184 38.6986 68.2184 35.7336C68.2186 32.7687 70.633 30.3616 73.6159 30.3615Z" stroke="#BC1418"/>
<path d="M35.9105 19.549H26.376L28.3605 16.9684H36.0001C36.6268 16.9684 36.9103 16.7756 36.9103 16.3307C36.9103 15.8709 36.6118 15.6781 35.9702 15.6781H30.5688C28.1367 15.6781 26.7341 14.5806 26.7341 12.6971C26.7341 10.6504 28.1218 9.62707 30.9418 9.62707H39.6706L37.6861 12.2077H30.7031C30.0615 12.2077 29.7631 12.4153 29.7631 12.8454C29.7631 13.2903 30.0615 13.498 30.7031 13.498H36.1493C38.6262 13.498 39.9392 14.4916 39.9392 16.3752C39.9392 18.5553 38.6859 19.549 35.9105 19.549ZM56.2677 19.549H44.674L46.5242 16.9684H50.8215L48.0013 12.9195L43.2714 19.549H39.6605L46.0616 10.5763C46.4943 9.98301 47.0912 9.46393 48.0461 9.46393C48.9712 9.46393 49.583 9.95335 50.0157 10.5763L56.2677 19.549Z" fill="#BC1418"/>
<path d="M36.0242 19.6056H26.4897L28.4742 17.025H36.1138C36.7404 17.025 37.0239 16.8322 37.0239 16.3873C37.0239 15.9276 36.7255 15.7348 36.0839 15.7348H30.6825C28.2504 15.7348 26.8478 14.6373 26.8478 12.7537C26.8478 10.707 28.2354 9.68371 31.0555 9.68371H39.7843L37.7998 12.2643H30.8168C30.1752 12.2643 29.8768 12.4719 29.8768 12.902C29.8768 13.347 30.1752 13.5546 30.8168 13.5546H36.263C38.7399 13.5546 40.0529 14.5483 40.0529 16.4318C40.0529 18.612 38.7996 19.6056 36.0242 19.6056ZM56.3814 19.6056H44.7876L46.6379 17.025H50.9352L48.115 12.9762L43.3851 19.6056H39.7742L46.1753 10.6329C46.608 10.0397 47.2049 9.52057 48.1598 9.52057C49.0849 9.52057 49.6967 10.01 50.1294 10.6329L56.3814 19.6056Z" fill="#BC1418"/>
<path d="M245.593 64.5333C237.731 64.8251 235.709 69.7707 230.706 76.7801C227.133 81.7614 222.13 89.4396 222.13 89.4396C222.13 89.4396 211.846 74.4958 211.267 72.2614C210.552 69.5786 211.489 68.376 211.267 65.4157C211.046 62.4554 210.481 60.5483 210.903 59.1962C211.324 57.8442 209.535 57.9415 208.899 59.6493C208.263 61.3572 208.987 63.4422 208.23 63.2074C207.472 62.9725 205.669 58.3209 203.897 55.3799C202.825 53.601 202.467 53.6014 202.11 53.9566C201.388 54.6742 204.618 60.8364 203.9 61.0735C203.182 61.3105 200.323 53.9572 198.894 54.6687C197.465 55.3803 202.56 61.9249 202.041 62.4967C201.395 63.2075 198.179 56.8031 197.107 57.8705C196.032 58.9379 201.035 64.275 200.323 64.9866C199.779 65.5314 196.753 60.7169 196.099 61.4293C195.321 62.2757 198.284 65.9035 198.539 66.4098C199.253 67.833 199.251 67.833 199.966 69.2562C202.465 73.8817 202.764 72.6506 203.9 74.5933C205.601 77.5038 209.859 96.4988 216.484 104.519C219.514 108.183 223.988 106.81 227.033 104.255C232.993 99.3168 243.456 85.6965 243.456 85.6965C248.852 80.6441 248.287 70.3543 245.593 64.5333Z" fill="#FFCAC2"/>
<path d="M262.857 20.156C271.343 20.156 278.222 28.4397 278.222 38.658C278.222 38.6658 278.221 38.6736 278.221 38.6814C278.339 38.6655 278.458 38.658 278.579 38.658C280.355 38.658 281.795 40.4105 281.795 42.572C281.795 44.7334 280.355 46.4851 278.579 46.4851C277.995 46.4851 277.447 46.2944 276.975 45.9626C275.528 50.012 272.916 53.3155 269.646 55.2585V60.9333C269.646 61.8518 270.272 62.6519 271.163 62.8738L275.364 63.9197L265.715 73.1707L251.78 63.5642L254.757 62.5759C255.546 62.3141 256.09 61.5917 256.125 60.7615L256.348 55.4207C252.947 53.5024 250.226 50.1277 248.738 45.9636C248.265 46.2949 247.718 46.4851 247.134 46.4851C245.358 46.485 243.918 44.7333 243.918 42.572C243.918 40.4105 245.358 38.6581 247.134 38.658C247.255 38.658 247.374 38.6656 247.491 38.6814C247.491 38.6736 247.491 38.6658 247.491 38.658C247.491 28.4398 254.371 20.1562 262.857 20.156Z" fill="#FFCAC2"/>
<path d="M269.139 56.5258C263.207 59.2826 258.757 57.6745 256.779 56.5258C256.779 56.5258 260.24 58.9872 262.712 58.9872C265.184 58.9872 269.139 56.5258 269.139 56.5258Z" fill="#FFA8A7" stroke="#FFA8A7" stroke-width="0.4" stroke-linecap="round"/>
<path d="M232.126 221.897C231.854 218.787 234.985 186.316 234.985 186.316L244.633 195.923C242.439 213.906 241.66 221.32 241.631 224.316C241.695 224.565 241.724 224.821 241.717 225.078C241.717 228.636 240.059 226.245 236.771 228.657C233.97 230.769 237.742 226.681 234.627 228.301C232.233 229.476 232.719 230.109 232.126 228.657C236.128 225.704 227.881 230.949 231.054 227.59C232.548 226.003 232.426 225.619 232.126 221.897Z" fill="#FFCAC2"/>
<path d="M272.862 221.897C273.134 218.787 270.004 186.316 270.004 186.316L260.356 195.923C262.55 213.906 263.329 221.32 263.357 224.316C263.293 224.565 263.264 224.821 263.272 225.078C263.272 228.636 264.929 226.245 268.217 228.657C271.019 230.769 267.246 226.681 270.361 228.301C272.755 229.476 272.269 230.109 272.862 228.657C268.86 225.704 277.107 230.949 273.934 227.59C272.441 226.003 272.562 225.619 272.862 221.897Z" fill="#FFCAC2"/>
<path d="M241.564 115.355C240.728 133.223 236.44 172.853 236.44 172.853C236.111 175.044 235.053 184.515 234.005 192.337C232.351 204.687 230.697 216.275 230.697 216.275C230.697 216.275 240.159 219.036 245.347 217.271C245.347 217.271 247.935 205.224 250.129 194.571C252.196 189.043 253.023 186.162 253.85 178.844C256.344 169.053 260.338 152.159 260.338 152.159V178.844C259.547 184.048 259.337 189.322 259.71 194.571C260.181 199.837 260.713 217.556 260.713 217.556C260.713 217.556 268.703 218.41 274.291 216.916C274.291 216.916 278.134 183.15 278.541 178.332C278.998 172.831 282.193 117.497 282.193 117.497L241.564 115.355Z" fill="#E8383C"/>
<path d="M261.453 152.814L264.398 136.283C264.398 136.283 270.508 136.205 274.789 132.419C274.789 132.419 274.167 136.297 266.47 138.439L263.211 152.358L260.735 178.118L261.453 152.814Z" fill="#E8383C"/>
<path d="M290.728 77.4402C290.728 77.4402 294.594 84.8004 296.804 90.9607C298.59 95.942 299.305 104.482 299.662 108.04C300.16 112.996 299.773 115.52 299.662 119.781C299.554 123.909 299.651 126.717 299.657 130.124C300.069 131.473 300.69 131.237 301.349 135.783C301.53 137.364 301.528 137.363 301.709 138.944C301.774 139.507 303.308 143.926 302.285 144.456C301.425 144.901 300.242 139.346 299.543 139.672C298.63 140.097 301.489 146.819 300.111 147.454C298.737 148.09 297.922 140.976 297.071 141.424C296.388 141.786 298.917 149.671 297.33 149.851C295.742 150.031 295.591 142.149 294.835 142.125C294.079 142.102 294.989 148.994 294.063 149.422C293.606 149.633 293.27 149.511 292.876 147.474C292.225 144.106 292.133 139.121 291.503 138.641C290.872 138.162 290.834 140.368 289.648 141.755C288.462 143.142 286.748 142.622 287.61 141.496C288.472 140.37 288.599 138.386 289.411 135.53C290.218 132.69 291.5 131.873 291.764 129.146L288.942 109.107C288.942 109.107 288.585 103.058 285.401 95.5867C281.912 87.398 281.842 87.4085 280.042 81.3533L290.728 77.4402Z" fill="#FFCAC2"/>
<path d="M244.99 127.253C243.9 131.167 242.37 135.344 240.959 136.767" stroke="#0958C9" stroke-linecap="round"/>
<path d="M277.865 129.388C278.955 133.302 278.605 138.298 280.016 139.721" stroke="#0958C9" stroke-linecap="round"/>
<path d="M259.638 153.122L261.285 149.355C261.464 148.944 261.777 148.605 262.172 148.393L266.207 146.23" stroke="#0958C9" stroke-linecap="round"/>
<path d="M262.142 131.523L261.428 136.86L261.189 138.523C261.12 139.002 261.404 139.461 261.864 139.614L263.214 140.062" stroke="#0958C9" stroke-linecap="round"/>
<path d="M254.125 63.8198C259.397 69.1484 268.113 68.7732 272.907 63.0112C272.922 63.0155 276.24 64.0203 279.273 64.8003C283.801 65.5918 286.179 66.9382 287.921 69.9966C289.172 72.2168 296.297 88.769 296.297 88.769C296.267 88.8305 293.282 94.8774 285.034 95.5005L283.785 93.3159C283.364 107.841 282.216 127.435 282.211 127.521C269.859 135.844 245.519 131.003 240.702 124.05L242.387 106.153C242.415 100.288 241.851 95.8378 241.183 89.5239C238.784 92.155 235.993 95.1459 234.478 96.5181C232.383 90.6211 224.665 85.4037 224.622 85.3745C224.622 85.3745 234.428 70.1961 237.194 67.6626C239.832 65.246 241.02 64.8236 244.809 64.4995L253.167 62.8521L254.125 63.8198Z" fill="#FAFAFA"/>
<path d="M262.986 221.03C267.631 222.614 272.003 221.172 272.556 219.962C274.595 220.954 277.516 222.403 280.386 223.876C284.676 226.077 288.852 228.333 289.806 229.203C290.602 230.523 289.806 231.183 289.308 231.348H264.272C263.167 231.348 262.272 230.452 262.272 229.348V229.213C262.272 227.79 261.925 223.538 262.986 221.03Z" fill="#FAFAFA" stroke="#DEDEDE"/>
<path d="M262.272 229.213H289.787C290.583 230.124 290.144 230.992 289.43 231.348H264.272C263.168 231.348 262.272 230.453 262.272 229.348V229.213Z" fill="#1B1818" stroke="#1B1818"/>
<path d="M271.864 224.392C271.813 224.407 271.756 224.399 271.703 224.371C271.672 224.355 271.644 224.333 271.618 224.306C271.593 224.278 271.572 224.246 271.556 224.211C271.54 224.176 271.53 224.139 271.525 224.102C271.521 224.065 271.522 224.029 271.53 223.996C271.802 223.175 272.233 222.467 272.796 221.92C273.358 221.372 274.039 220.998 274.792 220.821C274.822 220.816 274.853 220.819 274.884 220.828C274.915 220.838 274.945 220.854 274.972 220.877C275 220.899 275.025 220.926 275.045 220.958C275.065 220.99 275.081 221.025 275.091 221.061C275.101 221.097 275.104 221.133 275.102 221.169C275.1 221.204 275.092 221.237 275.078 221.266C275.064 221.294 275.045 221.319 275.022 221.337C274.998 221.355 274.971 221.366 274.942 221.371C274.266 221.538 273.656 221.879 273.15 222.372C272.645 222.865 272.254 223.499 272.004 224.234C271.995 224.274 271.978 224.309 271.954 224.337C271.929 224.364 271.898 224.383 271.864 224.392Z" fill="#C1C1C1"/>
<path d="M273.293 225.104C273.242 225.118 273.186 225.111 273.132 225.083C273.101 225.067 273.073 225.045 273.048 225.017C273.022 224.99 273.001 224.958 272.985 224.923C272.969 224.888 272.959 224.851 272.954 224.814C272.95 224.777 272.952 224.741 272.959 224.708C273.231 223.887 273.662 223.179 274.225 222.632C274.787 222.084 275.468 221.71 276.222 221.533C276.251 221.528 276.282 221.531 276.313 221.54C276.344 221.55 276.374 221.566 276.402 221.588C276.429 221.611 276.454 221.638 276.474 221.67C276.495 221.701 276.51 221.736 276.52 221.772C276.53 221.809 276.534 221.845 276.531 221.88C276.529 221.916 276.521 221.948 276.507 221.977C276.493 222.006 276.474 222.03 276.451 222.048C276.427 222.067 276.4 222.078 276.371 222.083C275.695 222.25 275.085 222.591 274.58 223.084C274.074 223.577 273.683 224.211 273.433 224.946C273.424 224.986 273.407 225.021 273.383 225.048C273.358 225.076 273.328 225.095 273.293 225.104Z" fill="#C1C1C1"/>
<path d="M274.722 225.815C274.672 225.83 274.615 225.823 274.561 225.795C274.531 225.779 274.502 225.757 274.477 225.729C274.452 225.702 274.431 225.669 274.415 225.635C274.399 225.6 274.388 225.563 274.384 225.526C274.379 225.489 274.381 225.453 274.389 225.419C274.66 224.598 275.092 223.891 275.654 223.343C276.217 222.796 276.897 222.421 277.651 222.244C277.68 222.24 277.711 222.242 277.742 222.252C277.773 222.261 277.803 222.278 277.831 222.3C277.859 222.322 277.883 222.35 277.904 222.382C277.924 222.413 277.939 222.448 277.949 222.484C277.959 222.52 277.963 222.557 277.961 222.592C277.959 222.627 277.95 222.66 277.937 222.689C277.923 222.718 277.904 222.742 277.88 222.76C277.857 222.778 277.83 222.79 277.8 222.795C277.125 222.962 276.515 223.303 276.009 223.796C275.503 224.288 275.113 224.923 274.863 225.658C274.854 225.698 274.836 225.733 274.812 225.76C274.788 225.788 274.757 225.806 274.722 225.815Z" fill="#C1C1C1"/>
<path d="M241.982 221.03C237.337 222.614 232.965 221.172 232.412 219.962C230.373 220.954 227.452 222.403 224.582 223.876C220.293 226.077 216.116 228.333 215.162 229.203C214.366 230.523 215.162 231.183 215.66 231.348H240.696C241.801 231.348 242.696 230.452 242.696 229.348V229.213C242.696 227.79 243.043 223.538 241.982 221.03Z" fill="#FAFAFA" stroke="#DEDEDE"/>
<path d="M242.696 229.213H215.182C214.385 230.124 214.824 230.992 215.538 231.348H240.696C241.8 231.348 242.696 230.453 242.696 229.348V229.213Z" fill="#1B1818" stroke="#1B1818"/>
<path d="M233.104 224.392C233.155 224.407 233.212 224.399 233.266 224.371C233.296 224.355 233.325 224.333 233.35 224.306C233.375 224.278 233.396 224.246 233.412 224.211C233.428 224.176 233.439 224.139 233.443 224.102C233.447 224.065 233.446 224.029 233.438 223.996C233.166 223.175 232.735 222.467 232.173 221.92C231.61 221.372 230.929 220.998 230.176 220.821C230.146 220.816 230.115 220.819 230.084 220.828C230.054 220.838 230.023 220.854 229.996 220.877C229.968 220.899 229.943 220.926 229.923 220.958C229.903 220.99 229.887 221.025 229.877 221.061C229.868 221.097 229.864 221.133 229.866 221.169C229.868 221.204 229.876 221.237 229.89 221.266C229.904 221.294 229.923 221.319 229.946 221.337C229.97 221.355 229.997 221.366 230.026 221.371C230.702 221.538 231.312 221.879 231.818 222.372C232.324 222.865 232.714 223.499 232.964 224.234C232.973 224.274 232.99 224.309 233.015 224.337C233.039 224.364 233.07 224.383 233.104 224.392Z" fill="#C1C1C1"/>
<path d="M231.675 225.104C231.726 225.118 231.783 225.111 231.836 225.083C231.867 225.067 231.895 225.045 231.921 225.017C231.946 224.99 231.967 224.958 231.983 224.923C231.999 224.888 232.009 224.851 232.014 224.814C232.018 224.777 232.016 224.741 232.009 224.708C231.737 223.887 231.306 223.179 230.743 222.632C230.181 222.084 229.5 221.71 228.747 221.533C228.717 221.528 228.686 221.531 228.655 221.54C228.624 221.55 228.594 221.566 228.566 221.588C228.539 221.611 228.514 221.638 228.494 221.67C228.473 221.701 228.458 221.736 228.448 221.772C228.438 221.809 228.434 221.845 228.437 221.88C228.439 221.916 228.447 221.948 228.461 221.977C228.475 222.006 228.494 222.03 228.517 222.048C228.541 222.067 228.568 222.078 228.597 222.083C229.273 222.25 229.883 222.591 230.389 223.084C230.894 223.577 231.285 224.211 231.535 224.946C231.544 224.986 231.561 225.021 231.585 225.048C231.61 225.076 231.64 225.095 231.675 225.104Z" fill="#C1C1C1"/>
<path d="M230.246 225.815C230.296 225.83 230.353 225.823 230.407 225.795C230.437 225.779 230.466 225.757 230.491 225.729C230.516 225.702 230.538 225.669 230.554 225.635C230.57 225.6 230.58 225.563 230.584 225.526C230.589 225.489 230.587 225.453 230.579 225.419C230.308 224.598 229.876 223.891 229.314 223.343C228.751 222.796 228.071 222.421 227.317 222.244C227.288 222.24 227.257 222.242 227.226 222.252C227.195 222.261 227.165 222.278 227.137 222.3C227.109 222.322 227.085 222.35 227.064 222.382C227.044 222.413 227.029 222.448 227.019 222.484C227.009 222.52 227.005 222.557 227.007 222.592C227.009 222.627 227.018 222.66 227.032 222.689C227.045 222.718 227.065 222.742 227.088 222.76C227.111 222.778 227.138 222.79 227.168 222.795C227.843 222.962 228.453 223.303 228.959 223.796C229.465 224.288 229.855 224.923 230.106 225.658C230.114 225.698 230.132 225.733 230.156 225.76C230.18 225.788 230.211 225.806 230.246 225.815Z" fill="#C1C1C1"/>
<path d="M248.516 26.3575C244.072 30.5257 246.664 37.9217 248.516 41.0987C250.435 38.6588 250.831 31.4407 250.788 28.1366C257.143 30.0428 270.636 33.3723 273.767 31.4407C274.07 37.4388 276.165 40.6328 277.175 41.48C277.68 39.6161 278.667 36.2697 278.817 33.8552C278.967 31.4407 278.27 29.3651 277.933 28.1366C278.859 27.5436 280.635 25.6967 280.332 23.0534C280.231 19.3936 279.143 17.6412 276.67 16.6995C275.113 16.1064 271.433 15.1746 268.085 15.1745C261.427 15.1743 259.417 18.4012 256.849 18.7327C254.281 19.0643 250.031 21.1727 248.516 26.3575Z" fill="#1C1D19" stroke="#1C1D19" stroke-linecap="round"/>
<path d="M253.209 37.2346C253.934 36.408 256.237 35.0691 259.641 36.3254C259.181 36.5229 255.287 37.0968 253.209 37.2346Z" fill="#1C1D19"/>
<path d="M273.22 37.2346C272.494 36.408 270.192 35.0691 266.788 36.3254C267.247 36.5229 271.142 37.0968 273.22 37.2346Z" fill="#1C1D19"/>
<ellipse cx="2.14401" cy="2.84644" rx="2.14401" ry="2.84644" transform="matrix(-1 0 0 1 259.641 37.9459)" fill="#FAFAFA"/>
<ellipse cx="0.714669" cy="1.06741" rx="0.714669" ry="1.06741" transform="matrix(-1 0 0 1 257.497 39.3694)" fill="#393939"/>
<ellipse cx="2.14401" cy="2.84644" rx="2.14401" ry="2.84644" transform="matrix(-1 0 0 1 271.075 37.9459)" fill="#FAFAFA"/>
<ellipse cx="0.714669" cy="1.06741" rx="0.714669" ry="1.06741" transform="matrix(-1 0 0 1 268.931 39.3694)" fill="#393939"/>
<path d="M263.572 41.5043V44.26C263.572 44.3176 263.596 44.3725 263.64 44.4105L263.952 44.6834C264.343 45.0256 264.407 45.6104 264.098 46.0289L263.5 46.8413" stroke="#B68881" stroke-width="0.6" stroke-linecap="round"/>
<path d="M246.419 43.9944C245.933 43.5775 245.653 43.7187 246.488 41.2956" stroke="#B68881" stroke-width="0.6" stroke-linecap="round"/>
<path d="M279.062 43.9944C279.548 43.5775 279.828 43.7187 278.993 41.2956" stroke="#B68881" stroke-width="0.6" stroke-linecap="round"/>
<path d="M258.778 51.4178C258.675 50.7875 258.004 50.6056 260.208 49.283" stroke="#B68881" stroke-width="0.6" stroke-linecap="round"/>
<path d="M259.19 50.1355C260.459 51.3126 263.621 53.043 266.116 50.5482" stroke="#B68881" stroke-width="0.6" stroke-linecap="round"/>
<path d="M222.089 89.355C222.971 90.617 223.959 92.6373 223.795 94.3313C223.795 94.3313 224.849 92.0654 222.666 88.5239L222.089 89.355Z" fill="#FFA8A7"/>
<path d="M241.447 89.0084C242.412 88.3223 244.837 85.468 245.168 82.8334" stroke="#DEDEDE" stroke-linecap="round"/>
<path d="M283.618 92.7134C282.653 92.0272 283.204 88.5967 282.791 85.715" stroke="#DEDEDE" stroke-linecap="round"/>
</svg>
