<svg width="56" height="56" viewBox="0 0 56 56" fill="none" xmlns="http://www.w3.org/2000/svg">
<path d="M33.6758 4.66669H13.4956C8.61955 4.66669 4.66675 8.61949 4.66675 13.4955V42.5045C4.66675 47.3806 8.61955 51.3334 13.4956 51.3334H33.6758C38.5518 51.3334 42.5046 47.3806 42.5046 42.5045V13.4955C42.5046 8.61949 38.5518 4.66669 33.6758 4.66669Z" fill="#EAA038"/>
<path d="M14.7568 14.7692H32.4145H14.7568ZM14.7568 24.8593H32.4145H14.7568ZM14.7568 34.9494H23.5857H14.7568Z" fill="#EAA038"/>
<path d="M14.7568 14.7692H32.4145M14.7568 24.8593H32.4145M14.7568 34.9494H23.5857" stroke="#FAFAFA" stroke-width="3" stroke-linecap="round" stroke-linejoin="round"/>
<path d="M37.6162 27.3367C37.9918 26.6271 39.0084 26.6271 39.3839 27.3367L48.8373 45.1989C49.1897 45.8649 48.7069 46.6667 47.9534 46.6667H29.0467C28.2932 46.6667 27.8104 45.8649 28.1629 45.1989L37.6162 27.3367Z" fill="#FFAE39"/>
<rect x="37.3335" y="32.6667" width="2.33333" height="7" rx="1" fill="#050F23"/>
<circle cx="38.5002" cy="43.1667" r="1.16667" fill="#050F23"/>
</svg>
