<svg width="60" height="56" viewBox="0 0 60 56" fill="none" xmlns="http://www.w3.org/2000/svg">
<path d="M14 17.0015H38.5L42 27.0015H14V17.0015Z" fill="#D7FBFF"/>
<path d="M39.2503 26.7517C39.2503 25.5582 38.7761 24.4136 37.9322 23.5697C37.0883 22.7258 35.9437 22.2517 34.7503 22.2517C33.5568 22.2517 32.4122 22.7258 31.5683 23.5697C30.7244 24.4136 30.2502 25.5582 30.2502 26.7517H31.4882C31.4882 25.8866 31.8319 25.0569 32.4437 24.4451C33.0554 23.8334 33.8851 23.4897 34.7503 23.4897C35.6154 23.4897 36.4451 23.8334 37.0568 24.4451C37.6686 25.0569 38.0123 25.8866 38.0123 26.7517H39.2503Z" fill="#050F23"/>
<path d="M50.5003 34.6265C50.5003 37.7331 47.9819 40.2515 44.8753 40.2515C41.7686 40.2515 39.2502 37.7331 39.2502 34.6265C39.2502 31.5199 40.8934 30.0015 44 30.0015C47.1066 30.0015 50.5003 31.5199 50.5003 34.6265Z" fill="#FAFAFA"/>
<circle cx="11.125" cy="34.6265" r="5.62501" fill="#FAFAFA"/>
<path d="M34.6968 11.0015C36.3168 11.0015 37.8747 11.3272 39.2993 11.9263L38.8726 14.2954C38.7926 14.7385 38.8645 15.1961 39.0767 15.5933L46.4067 29.314C46.9272 30.2882 48.1386 30.6557 49.1128 30.1353L51.7866 28.7065C52.7342 29.8618 53.312 31.3275 53.312 32.939V38.0015C53.312 39.7026 52.6623 41.2368 51.6245 42.4233V48.1265C51.6245 49.9901 50.1131 51.5015 48.2495 51.5015H44.8745C43.011 51.5013 41.4995 49.99 41.4995 48.1265V44.7515H14.4995V48.1265C14.4995 49.9901 12.9881 51.5015 11.1245 51.5015H7.74951C5.88597 51.5014 4.37451 49.99 4.37451 48.1265V42.4233C3.33689 41.2358 2.68701 39.7014 2.68701 38.0015V32.939C2.68702 30.9119 3.59967 29.1136 5.01611 27.8765H2.89893C2.31791 27.8763 1.81164 27.4806 1.67139 26.9175L1.03857 24.3862C0.838443 23.588 1.44265 22.8141 2.26611 22.814H8.57959L10.3345 18.4263C12.139 13.9155 16.4445 11.0016 21.3022 11.0015H34.6968ZM11.1245 31.2515C9.09971 31.2516 7.74961 32.5972 7.74951 34.6157C7.74951 36.6343 9.09963 37.9799 11.1245 37.98C13.1495 37.98 16.1869 38.3168 16.187 36.2983C16.187 34.2797 13.1495 31.2515 11.1245 31.2515ZM44.8745 31.2515C42.8495 31.2517 39.812 34.2798 39.812 36.2983C39.8122 38.3168 42.8496 37.98 44.8745 37.98C46.8995 37.98 48.2495 36.6344 48.2495 34.6157C48.2494 32.5972 46.8994 31.2515 44.8745 31.2515ZM21.3022 17.7515C19.2321 17.7516 17.371 19.0118 16.6021 20.9331L14.4995 26.189H41.4995L39.3979 20.9331C38.629 19.0116 36.767 17.7515 34.6968 17.7515H21.3022Z" fill="#BC1418"/>
<path fill-rule="evenodd" clip-rule="evenodd" d="M41.1812 14.9277C41.1058 15.3716 41.1825 15.828 41.3987 16.2229L47.5501 27.4564C48.0806 28.4253 49.296 28.7806 50.2649 28.2501L57.5094 24.283C58.4782 23.7525 58.8336 22.5371 58.303 21.5682L52.1517 10.3347C51.9355 9.93977 51.5922 9.62937 51.1776 9.45373L45.0471 6.85673C43.8585 6.35319 42.5112 7.09093 42.2952 8.36365L41.1812 14.9277ZM47.1343 13.9352C47.8766 13.5287 48.1489 12.5974 47.7424 11.8551C47.3359 11.1127 46.4046 10.8405 45.6623 11.247C44.9199 11.6535 44.6477 12.5848 45.0542 13.3271C45.4606 14.0695 46.392 14.3417 47.1343 13.9352Z" fill="#D7FBFF"/>
<path d="M41.5 48.1267V44.7517H51.625V48.1267C51.625 49.9903 50.1136 51.5017 48.25 51.5017H44.875C43.0114 51.5017 41.5 49.9903 41.5 48.1267Z" fill="#050F23"/>
<path d="M7.75001 51.5017C5.88637 51.5017 4.375 49.9903 4.375 48.1267V44.7517H14.5V48.1267C14.5 49.9903 12.9886 51.5017 11.125 51.5017H7.75001Z" fill="#050F23"/>
</svg>
