<svg width="56" height="56" viewBox="0 0 56 56" fill="none" xmlns="http://www.w3.org/2000/svg">
<rect x="13" y="16" width="20" height="11" fill="#D7FBFF"/>
<path d="M51 35.5C51 37.364 47.4376 40 44.4 40C41.3624 40 40 37.364 40 35.5C40 33.636 42.4624 31 45.5 31C48.5376 31 51 33.636 51 35.5Z" fill="#FAFAFA"/>
<ellipse cx="12" cy="35.5" rx="6" ry="5.5" fill="#FAFAFA"/>
<path d="M33.478 11.5286V18.2737H22.2876C20.2189 18.2739 18.3586 19.5333 17.5903 21.4534L15.4897 26.7053H33.688C34.3236 28.8873 36.3369 30.4827 38.7241 30.4827H50.7153C51.6187 30.4827 52.4683 30.2529 53.2104 29.8508C53.8808 30.8897 54.2749 32.1204 54.2749 33.4504V38.509C54.2749 40.209 53.6264 41.7433 52.5894 42.929V48.6272C52.5894 50.4895 51.0786 52.0002 49.2163 52.0002H45.8433C43.9811 52 42.4712 50.4894 42.4712 48.6272V45.2551H15.4897V48.6272C15.4897 50.4895 13.9799 52.0002 12.1177 52.0002H8.74463C6.88244 52.0001 5.37256 50.4894 5.37256 48.6272V42.929C4.33548 41.7422 3.68604 40.208 3.68604 38.509V33.4504C3.68607 31.4248 4.59779 29.6281 6.01318 28.3918H3.89795C3.31733 28.3918 2.81167 27.9965 2.67139 27.4338L2.03857 24.9045C1.83835 24.1068 2.44217 23.3325 3.26514 23.3323H9.57471L11.3276 18.9485C13.1309 14.4409 17.4333 11.5287 22.2876 11.5286H33.478ZM12.1177 31.7639C10.0941 31.7639 8.74468 33.109 8.74463 35.1262C8.74463 37.1435 10.0941 38.4885 12.1177 38.4885C14.1412 38.4885 17.1763 38.8241 17.1763 36.8069C17.1758 34.7897 14.1411 31.7641 12.1177 31.7639ZM45.8433 31.7639C43.8199 31.7643 40.7852 34.7898 40.7847 36.8069C40.7847 38.824 43.8197 38.4886 45.8433 38.4885C47.8668 38.4885 49.2163 37.1435 49.2163 35.1262C49.2163 33.109 47.8668 31.7639 45.8433 31.7639Z" fill="#BC1418"/>
<path d="M42.4712 48.6273V45.2547H52.589V48.6273C52.589 50.4896 51.0787 51.9999 49.2164 51.9999H45.8438C43.9815 51.9999 42.4712 50.4896 42.4712 48.6273Z" fill="#050F23"/>
<path d="M8.74493 51.9999C6.88261 51.9999 5.37231 50.4896 5.37231 48.6273V45.2547H15.4902V48.6273C15.4902 50.4896 13.9799 51.9999 12.1175 51.9999H8.74493Z" fill="#050F23"/>
<path d="M49.9766 6H40.2537C37.9045 6 36 7.90447 36 10.2537V24.2304C36 26.5796 37.9045 28.4841 40.2537 28.4841H49.9766C52.3259 28.4841 54.2304 26.5796 54.2304 24.2304V10.2537C54.2304 7.90447 52.3259 6 49.9766 6Z" fill="#BC1418"/>
<path d="M40.8613 10.8674H49.3688H40.8613ZM40.8613 15.7289H49.3688H40.8613ZM40.8613 20.5903H45.1151H40.8613Z" fill="#BC1418"/>
<path d="M40.8613 10.8674H49.3688M40.8613 15.7289H49.3688M40.8613 20.5903H45.1151" stroke="#FAFAFA" stroke-width="2" stroke-linecap="round" stroke-linejoin="round"/>
</svg>
